<svg xmlns="http://www.w3.org/2000/svg" xmlns:xlink="http://www.w3.org/1999/xlink" width="92.528" height="78.836" viewBox="0 0 92.528 78.836">
  <defs>
    <clipPath id="clip-path">
      <path id="Path_984" data-name="Path 984" d="M65.324,467.005s-29.164-38.182-21.46-55.228,14.788-1.907,22.3-15,22.715-8.722,25.555-.651,11.624,5.819,14,4.239,12.226-5.963,16.965,4.8-2.594,13.966,2.761,18.659,9.655.311,9.655,8.49S119.616,470.492,65.324,467.005Z"/>
    </clipPath>
  </defs>
  <g id="XMLID_710_" transform="translate(-42.568 -388.449)">
    <path id="Path_974" data-name="Path 974" d="M65.324,467.005s-29.164-38.182-21.46-55.228,14.788-1.907,22.3-15,22.715-8.722,25.555-.651,11.624,5.819,14,4.239,12.226-5.963,16.965,4.8-2.594,13.966,2.761,18.659,9.655.311,9.655,8.49S119.616,470.492,65.324,467.005Z" fill="#ffd7a0"/>
    <g id="XMLID_711_" clip-path="url(#clip-path)">
      <path id="Path_975" data-name="Path 975" d="M81.741,459.065a.967.967,0,0,0,1.037,1.445,6.958,6.958,0,0,0,1.091-.277,2.568,2.568,0,0,0,2.1-.774,1.036,1.036,0,0,0,.2-1.13,1.01,1.01,0,0,0-.581-1.013,2.468,2.468,0,0,0-3.555-.624,1.656,1.656,0,0,0-.49,1.507A.909.909,0,0,0,81.741,459.065Z" fill="#fff"/>
      <path id="Path_976" data-name="Path 976" d="M89.6,452.77a2.938,2.938,0,0,0,2.509-.007,2.331,2.331,0,0,0,1.627-1.409,1.766,1.766,0,0,0-.3-1.509c.015-.094.035-.185.044-.282.076-.826-1.044-1.212-1.685-.833-.667.394-1.551.429-2.191.877a2.025,2.025,0,0,0-.873,1.558A1.794,1.794,0,0,0,89.6,452.77Z" fill="#fff"/>
      <path id="Path_977" data-name="Path 977" d="M70.051,455.953a.916.916,0,0,0,.416,1.055c.067.045.137.085.206.126a2.292,2.292,0,0,0,1.561,1.319,1.714,1.714,0,0,0,1.933-.77c.1-.025.2-.054.3-.086a.96.96,0,0,0,1.193-.224,2.843,2.843,0,0,0-.208-3.63,1.159,1.159,0,0,0-.97-.351,3.919,3.919,0,0,0-2.556.894,1.832,1.832,0,0,0-.335.495A2.205,2.205,0,0,0,70.051,455.953Z" fill="#fff"/>
      <path id="Path_978" data-name="Path 978" d="M78.79,451.928a1.076,1.076,0,0,0,1.315.125c.474-.321,1.077-.639,1.564-1.017.58-.39,1.137-.953.733-1.671,0-.007-.009-.012-.013-.019a1.448,1.448,0,0,0-.943-.881,2.591,2.591,0,0,0-2.144.363c-.613.382-1.523.841-1.714,1.534A1.368,1.368,0,0,0,78.79,451.928Zm.413-1.779c-.019.011-.041.02-.059.031.043-.019,0-.016-.123.01C79.058,450.1,79.119,450.084,79.2,450.149Z" fill="#fff"/>
      <path id="Path_979" data-name="Path 979" d="M91.805,455.811a1.994,1.994,0,0,0,.134,2.81.988.988,0,0,0,.781.525,2.339,2.339,0,0,0,1.988-.136c1.033-.276,1.837-.91,1.5-2.07A2.871,2.871,0,0,0,91.805,455.811Z" fill="#fff"/>
      <path id="Path_980" data-name="Path 980" d="M100.434,448.831a2.291,2.291,0,0,0,.6.163,1.079,1.079,0,0,0,.629.091,1.758,1.758,0,0,0,.968-.448,1.575,1.575,0,0,0,.625-1.077.707.707,0,0,0-.137-.5,1.861,1.861,0,0,0-.15-.442,2.074,2.074,0,0,0-3.045-.682A1.661,1.661,0,0,0,100.434,448.831Zm.684-1.486.012,0-.011.025c-.009.016-.013.021-.015.022a.212.212,0,0,1,.008-.022A.189.189,0,0,0,101.118,447.345Zm.021-.026-.013,0C101.136,447.3,101.143,447.293,101.139,447.319Zm.117-.119a.057.057,0,0,0-.025.016h0A.028.028,0,0,1,101.256,447.2Zm-.122.013h0l-.057-.006Z" fill="#fff"/>
      <path id="Path_981" data-name="Path 981" d="M87.776,442.726a1.38,1.38,0,0,0,.211.7,1.1,1.1,0,0,0,1.447,1.185,2.748,2.748,0,0,0,.707-.358,2.113,2.113,0,0,0,.695-.3c1.143-.769.657-2.393-.776-2.815a1.968,1.968,0,0,0-2.057.467.865.865,0,0,0-.179.763A1.351,1.351,0,0,0,87.776,442.726Z" fill="#fff"/>
      <path id="Path_982" data-name="Path 982" d="M98.6,441.241q.83-.5,1.658-1a.825.825,0,0,0,.066-1.259,1.12,1.12,0,0,0-1.132-.3c0-.015,0-.029,0-.044a1.117,1.117,0,0,0-1.66-.6,2.142,2.142,0,0,0-.5,2.828A1.142,1.142,0,0,0,98.6,441.241Z" fill="#fff"/>
      <path id="Path_983" data-name="Path 983" d="M100.917,452.362a1.2,1.2,0,0,0-1.147,1.216,1.45,1.45,0,0,0,.081.427.817.817,0,0,0,.046.734,1.171,1.171,0,0,0,1.359.491,1.5,1.5,0,0,0,.993-.983c.011-.035.017-.069.025-.1.064-.146.129-.291.193-.437a.966.966,0,0,0-.661-1.177,1.34,1.34,0,0,0-.225-.05A1.5,1.5,0,0,0,100.917,452.362Z" fill="#fff"/>
    </g>
  </g>
</svg>
