<svg xmlns="http://www.w3.org/2000/svg" viewBox="0 0 1621.81 321.2"><defs><style>.cls-1{fill:#7dc1ec;}.cls-2{fill:none;stroke:#7dc1ec;stroke-miterlimit:10;stroke-width:60px;}.cls-3{fill:#f8df74;}.cls-4{fill:#fff;}.cls-5{fill:#9bcef3;}</style></defs><g id="Calque_2" data-name="Calque 2"><g id="OBJECTS"><path class="cls-1" d="M1568.1,185.55l-.06,0-3,8c-4.67,10.63-21.26,27-44.91,33-26,6.53-54.29-1.45-71.82-21.26a6,6,0,0,1,3-9.83l166-41.67a6,6,0,0,0,4.41-7c-4.78-23.27-13-64.73-61.76-90.35-28.16-14.78-58-17.7-90.46-9.55-33.55,8.42-58.54,26.36-75.9,54.64s-21.46,57.65-12.69,88.8c8.93,31.67,27.94,55.27,57.33,71.79,29.8,15.87,60.93,19.74,94.48,11.32,32.46-8.15,58-28.45,69.85-44.77A136.16,136.16,0,0,0,1617.15,201c1.09-2.81,2-5.3,2.77-7.54a6,6,0,0,0-5.66-7.95Zm-129.33-34.8a6,6,0,0,1-7.36-6.91c4.34-23.45,22-42.37,51.38-49.73,28.44-7.14,56.62,2.44,70.35,19.21a6,6,0,0,1-3.24,9.54Z"/><path class="cls-1" d="M764.24,58.37c-51.17,0-92.65,40.44-92.65,90.33S713.07,239,764.24,239s92.65-40.44,92.65-90.32S815.41,58.37,764.24,58.37Zm62.35,151.11a89.78,89.78,0,0,1-124.7,0,84.46,84.46,0,0,1,0-121.57c.39-.38.8-.74,1.2-1.11a10.11,10.11,0,0,1-1.21,2.65c-1.31,1.91-3.49,2.67-4.87,4.46a17.91,17.91,0,0,0-2.72,5.92c-.5,2-.19,4.38-.91,6.35-.91,2.51-2.55,4-2.25,6.9,3.58,1,2-5.16,5-5.48,1,2.31.33,6.62.06,9.14-.38,3.48-1.07,4.34,1,7.32,1.69,2.36,2.25,3.94,5.51,4.31,3,.35,4.22,1.66,5.47,4.47,2.3.48,3.7.85,4,3.34,1,.54,2.88,2.3,3.93,2.57,1.53.39,4.08-1.73,5.52-.1,2.41,2.73-3.05,9.87-4,12.33-1.43,3.61-1.64,8.9,1.86,11.49,1.8,1.33,3.72,2,4.3,4.38.54,2.23.12,4.08,1.13,6.19,1.58,3.29,5.2,4.38,7.78,6.89,3.38,3.3,3.15,7.58,3.15,12.25,0,4.89,1.9,8.6,2.56,13.08s2.08,8.9,3.08,13.36c.74,3.36,3.72,8.44,8,7.75.3-1.59-1.4-2.84-1.61-4.41s.22-2.92-.07-4.45c-.58-3-.55-4.82,1.51-7.46.73-.93,1.74-1.7,2.49-2.63,1.46-1.81.34-1.27.28-3.26-.08-2.47.69-1.26,2.22-2a11.79,11.79,0,0,0,2.29-2.23c1.34-1.35,3.39-3,4.43-4.59,1.16-1.8,1-4.33,2.21-6.19,1.36-2.15,3.3-2.15,5.21-3.55,2.48-1.81,1.46-3.71,1.91-6.2a27.71,27.71,0,0,1,5.37-12c3.38-4.17,4.83-7.71.72-11.7-2-2-3.09-1.45-5.79-2.14-2.06-.52-3.91-2-6-2.24-1.25-.15-2,.29-3.14,0s-.93-.91-2.06-.9c-1.68,0-4,3.43-5.44,1.25-.79-1.21,1.61-4.57,1.5-6.19-.14-2-.9-5.26-2.91-6.35-.76-.42-2.44-.47-3.37-.82a17.66,17.66,0,0,1-3.15-1.69c-1.28-.8-3.75-2.19-4.32-3.62-1.57-.06-2.63-.91-4.23-.89-1.43,0-2.39.67-3.94.5-1.35-.15-2.81-1.2-4.28-1-1,.14-2.42,1.37-3.27,1.83a23.3,23.3,0,0,1-7.07,2.57c-3.82.7-4.51-.73-4.28-4.17l-.57-1.12c1.42-3.85-1.14-4.12-4-5-.39-2.74,3.07-4.7,1.62-7.7-2.92-.15-6.11,7.88-8.58,4.4-1.64-2.29.84-8.7,2.28-10.64s6.71-5.49,9.19-5.8a4,4,0,0,1,4.36,2.25c.81,1.79-.24,3.49,0,5.53,2.47-.56,1.83-3.62,1.72-5.26-.18-2.73,1.29-2.53,2.73-4.5,1.3-1.8,1.5-3.85,3.13-5.59,1.27-1.36,2.76-2.78,4.15-4,1.58-1.43,3.37-1.3,5-2.35,2.48-1.59-.8-4.56,2.85-4.33,1.3.08.65.87,2.37.48A24.18,24.18,0,0,0,743.91,87c3.48-1.38,1-1.74-.59-3.54-2-2.28.85-1.88,2.94-2.23,1.54-.25,1.22-.74,2.57.15,1.19.77.49,1.81,2.22,1.75,3.29-.11,1-3.33.28-4.4-1.26-1.83-1.58-3.1-4.24-3.17a4,4,0,0,0-.08-2.7c-2.24.28-2.62-1.3-4.31-1.92-2.85-1-2.39,1.22-3.56,2.77s-3.49,1.32-4.37,3.27,0,3.59-3.39,3a10.58,10.58,0,0,0,.21-4.09,14.8,14.8,0,0,1-2.76-.65c0-3.26,3.71-3.54,6.23-3.85,2.82-.34,3.74-3.14,6.27-3.61,2.35-.45,4,3.27,6.93,1.12,1.66-1.23.89-1.95.29-3.14-.16-.31-1-1-1.22-1.32a.33.33,0,0,1-.06-.1c2.25-.42,4.53-.75,6.82-1A21.15,21.15,0,0,0,756,66.86c.37.62,1.07,1,1.37,1.72s-.46,1.73.55,2.26c1.55.8,6.06-4.46,7.15-5.31,1.37-1.09,2.23-1.68,1.91-2.73a90.71,90.71,0,0,1,21.2,3.14c.54.67,1.1,1.35,1.66,2.11,1.2,1.63,2,3.09,4.13,3.82,1.25.42,5.27.34,3.6,3.14-1.54,2.57-3.24-.81-4-1.62-1.08-1.12-4.26-2.37-4.16.21.15,3.84,9,3.22,7.13,7.45,1.06.61,3.16,1.62,2.82,3.13-.43,1.87-2.92.68-2.87,3.07a5.64,5.64,0,0,0,7.36,4.94c3.75-1.29.93-6.36,5.22-6.89,1.69-.2,2.69.28,4.21,1.45,1.23,1,2,3.12,3.73,3,.18-1-.62-1.76-.76-2.71a11,11,0,0,1,4.73,3c1.14,1.69,1,4.13,3.82,2-.42-.34-.63-1.09-.86-1.35,3.58,0,6.07,1.45,7.61,4.47,3.43,6.76-5,1.4-5.41,4.92-2.08-.65-3-2.27-4.8-3.25-.85-.46-2.43-.21-3.09-.68-.9-.64-.68-1.81-1.47-2.45-3.11-2.49-10.22,1.53-13.08,3.14-.78.44-1.61.48-2.14,1.3-.91,1.41.37,1.77.09,3.08-.41,1.87-2.91,2.73-3.67,4.23-1.82,3.6,1.87,8.75,1.38,12.75-.28,2.21-2.73,4.62-1.79,6.48.4.79,1.82,1.47,2.36,2.42a25.29,25.29,0,0,0,1.35,2.86,113,113,0,0,0,7.58,8.77,5.5,5.5,0,0,0,5.41,1.53,30.09,30.09,0,0,0,6-1.68c2.16-1,2.44-2.42,4.71-1.46,1.8.76,3.39,3,5.49,1.15,1.74,1.65-.19,4.53-.57,6.37-.5,2.36.46,4.41,1.95,6.42,1.78,2.4,2.2,2.83,1.83,6a66.36,66.36,0,0,1-1.49,7.29c-.52,2.37-2.08,4.18-2,6.69.07,2.33,1.1,4.19.79,6.68a52.55,52.55,0,0,1-1,7c-.61,2.2-2.2,4.15-2.87,6.41a7.32,7.32,0,0,0,1.08,6.68c1.6,1.83,3.19.78,5.07-.61,3.7-2.74,5.39-7.39,7.85-11.09s5-7.22,6.71-11.13c.36-.83.79-1.65,1.23-2.46A85.11,85.11,0,0,1,826.59,209.48Z"/><ellipse class="cls-2" cx="764.24" cy="147.44" rx="118.1" ry="111.44"/><path class="cls-3" d="M894.91,269.54,815,218.17a18.93,18.93,0,0,0-16.16-1,76.1,76.1,0,0,1-36,10.17c-25.16.85-50.23-10.37-64.81-31.44l-2-1.75A73.37,73.37,0,0,1,682.69,166c-5.23-21.91-.58-45.84,13.85-63.9a51.07,51.07,0,0,0,8-14.13c8.58-23.3-33-61-50.7-42.82-24.7,25.38-38.3,58.34-40.71,92.11a38,38,0,0,0-.35,8.14,153.73,153.73,0,0,0,1,20.23c.13,2.2.4,6.08,1.11,11q.4,2.82,1,6.07a129.52,129.52,0,0,0,20.83,48.81,139.89,139.89,0,0,0,25.95,28.22,137.62,137.62,0,0,0,13.52,10.38,7.9,7.9,0,0,0,2.54,1.15,157.14,157.14,0,0,0,87.67,23.22,154.44,154.44,0,0,0,38.76-6.19c1.41-.42,2.83-.85,4.23-1.31l49.79,32a13.66,13.66,0,0,0,18.28-3.26l20.94-29A12,12,0,0,0,894.91,269.54Z"/><path class="cls-4" d="M867,44.09c-35.94-37-88.67-51-137.21-40.91a147.67,147.67,0,0,0-36.46,12.68,144.78,144.78,0,0,0-29.59,19.76A138.64,138.64,0,0,0,641.44,60c-12.83,18,20.2,85.54,31,85.21,10.29-.3,20.1-29.31,26.4-43.91,2.76-6.41,7.18-10.22,13.43-15.62A72.94,72.94,0,0,1,745.36,69.5c22-4.6,45.84.73,63.48,15.67a50.81,50.81,0,0,0,13.9,8.38C845.78,102.79,884.67,62.32,867,44.09Z"/><path class="cls-1" d="M381,77.86c22.82-23.12,49.88-34.4,82.25-34.4,31.84,0,58.91,11.28,81.73,34.4s34,50.51,34,82.74c0,32.77-11.14,60.19-34,83.29-22.82,22.56-49.89,33.85-81.73,33.85-32.37,0-59.43-11.29-82.25-33.85-22.82-23.1-34-50.52-34-83.29C347,128.37,358.13,101,381,77.86Zm17,82.74c0,19.88,6.36,36,18.57,48.9,12.74,12.36,28.13,18.8,46.7,18.8s34-6.44,46.17-18.8c12.74-12.9,19.11-29,19.11-48.9s-6.37-36-19.11-48.36Q491.06,92.91,463.2,92.9c-18.57,0-34,6.45-46.7,19.34C404.29,124.6,397.93,140.73,397.93,160.6Z"/><rect class="cls-1" y="75.3" width="54.64" height="202.44" rx="16.92"/><rect class="cls-5" y="2.69" width="54.64" height="54.64" rx="16.92"/><path class="cls-1" d="M273.39,73c-20.49-17.73-45-26.87-72.86-26.87S148.16,55.28,127.67,73c-19.92,17.74-30.17,44.6-30.17,81.14V260.82a16.92,16.92,0,0,0,16.92,16.92h20.81a16.92,16.92,0,0,0,16.91-16.92v-2.43h0V154.15c0-38.69,18.78-58.57,48.38-58.57s48.95,20.41,48.95,58.57V262.62h.1a16.92,16.92,0,0,0,16.82,15.12h20.81a16.93,16.93,0,0,0,16.92-16.92V154.15C304.13,118.14,293.88,90.75,273.39,73Z"/><path class="cls-1" d="M1193.35,162.22V152a17.06,17.06,0,0,0-.76-5c-3-29.86-15.23-53.78-36.24-71.77-24.47-20.95-54.07-31.7-87.66-31.7-34.72,0-64.32,11.28-88.8,34.4C956,101,944,128.37,944,160.6c0,32.77,12,60.19,35.86,83.29q35.86,33.84,88.8,33.85c26.76,0,54.65-10.74,61.48-15,3.42-2.32,6-3.83,7.74-5.23a3.85,3.85,0,0,1,.8-1.06v1a16.92,16.92,0,0,0,16.91,16.92h20.81a16.92,16.92,0,0,0,16.92-16.92v-14h0ZM1068.69,228.3c-39.27,0-70-28.47-70-67.7,0-38.69,30.74-67.7,70-67.7,40.41,0,70,29,70,67.7C1138.71,199.83,1108,228.3,1068.69,228.3Z"/><path class="cls-1" d="M1337.26,48.86v0h-13.09c-52.94,0-92.22,26.32-92.22,92.42v14.06h0v105.5a16.93,16.93,0,0,0,16.92,16.92h20.24A16.93,16.93,0,0,0,1286,260.82V141.26c0-28.49,13.66-43,41-43h2.36c.31,0,.62,0,.94,0h6.46a16.91,16.91,0,0,0,16.91-16.92V65.75A16.9,16.9,0,0,0,1337.26,48.86Z"/></g></g></svg>