<svg xmlns="http://www.w3.org/2000/svg" width="47.723" height="69.696" viewBox="0 0 47.723 69.696">
  <g id="Group_2704" data-name="Group 2704" transform="matrix(-0.946, -0.326, 0.326, -0.946, 1374.097, 5920.924)">
    <g id="Group_2703" data-name="Group 2703">
      <g id="Group_2702" data-name="Group 2702">
        <g id="Group_2701" data-name="Group 2701">
          <g id="Group_2700" data-name="Group 2700">
            <g id="Group_2699" data-name="Group 2699">
              <g id="Group_2698" data-name="Group 2698">
                <g id="Group_2697" data-name="Group 2697">
                  <g id="Group_2696" data-name="Group 2696">
                    <g id="XMLID_181_" transform="translate(2608 4697)">
                      <path id="Path_315" data-name="Path 315" d="M590.188,399.774a22.353,22.353,0,0,1,6.838,11.525,8.763,8.763,0,0,1-1.2,6.993c-1.3,1.891-2.922,3.505-4.1,5.491-2.192,3.683-3.443,8.109-2.488,12.375.505,2.254,1.709,4.276,2.235,6.524a13.634,13.634,0,0,1,.084,5.671,14.626,14.626,0,0,1-7.249,10.107,1.155,1.155,0,0,0,1.106,2.026,16.822,16.822,0,0,0,7.375-21.142c-.982-2.488-1.773-4.781-1.509-7.5a16.791,16.791,0,0,1,2.4-6.842c1.289-2.167,3.151-3.9,4.46-6.038a10.6,10.6,0,0,0,1.337-6.915c-.641-5.28-3.777-10.292-7.613-13.862C590.784,397.182,589.1,398.76,590.188,399.774Z" fill="#4c4c4c"/>
                      <path id="Path_316" data-name="Path 316" d="M584.542,399.866a22.346,22.346,0,0,1,6.838,11.525,8.763,8.763,0,0,1-1.2,6.993c-1.3,1.892-2.922,3.505-4.1,5.491-2.192,3.683-3.443,8.109-2.488,12.375.505,2.254,1.709,4.276,2.235,6.524a13.617,13.617,0,0,1,.083,5.671,14.628,14.628,0,0,1-7.248,10.107,1.155,1.155,0,0,0,1.106,2.026,16.822,16.822,0,0,0,7.375-21.142c-.982-2.488-1.773-4.781-1.509-7.5a16.791,16.791,0,0,1,2.4-6.842c1.289-2.167,3.151-3.9,4.46-6.038a10.6,10.6,0,0,0,1.337-6.915c-.641-5.28-3.777-10.292-7.613-13.861C585.137,397.274,583.452,398.852,584.542,399.866Z" fill="#4c4c4c"/>
                      <path id="Path_317" data-name="Path 317" d="M572.1,459.585a16.822,16.822,0,0,0,7.375-21.142c-.982-2.488-1.773-4.781-1.509-7.5a16.778,16.778,0,0,1,2.405-6.842c1.289-2.167,3.151-3.9,4.46-6.038a10.6,10.6,0,0,0,1.337-6.915c-.641-5.28-3.777-10.292-7.613-13.862-1.083-1.008-2.769.57-1.679,1.584a22.353,22.353,0,0,1,6.838,11.525,8.763,8.763,0,0,1-1.2,6.993c-1.3,1.891-2.922,3.505-4.1,5.491-2.192,3.683-3.443,8.109-2.488,12.375.505,2.254,1.709,4.276,2.235,6.524a13.634,13.634,0,0,1,.084,5.671,14.626,14.626,0,0,1-7.249,10.107A1.154,1.154,0,0,0,572.1,459.585Z" fill="#4c4c4c"/>
                    </g>
                  </g>
                </g>
              </g>
            </g>
          </g>
        </g>
      </g>
    </g>
  </g>
</svg>
