<?xml version="1.0" encoding="UTF-8" standalone="no"?>
<svg
   xmlns:dc="http://purl.org/dc/elements/1.1/"
   xmlns:cc="http://creativecommons.org/ns#"
   xmlns:rdf="http://www.w3.org/1999/02/22-rdf-syntax-ns#"
   xmlns:svg="http://www.w3.org/2000/svg"
   xmlns="http://www.w3.org/2000/svg"
   viewBox="0 0 4266.6665 2666.6667"
   height="2666.6667"
   width="4266.6665"
   xml:space="preserve"
   id="svg2"
   version="1.1"><metadata
     id="metadata8"><rdf:RDF><cc:Work
         rdf:about=""><dc:format>image/svg+xml</dc:format><dc:type
           rdf:resource="http://purl.org/dc/dcmitype/StillImage" /></cc:Work></rdf:RDF></metadata><defs
     id="defs6" /><g
     transform="matrix(1.3333333,0,0,-1.3333333,0,2666.6667)"
     id="g10"><g
       transform="scale(0.1)"
       id="g12"><g
         transform="scale(1.96319)"
         id="g14"><path
           id="path16"
           style="fill:#ffffff;fill-opacity:1;fill-rule:nonzero;stroke:none"
           d="M 16300,0 H 0 V 10187.5 H 16300 V 0" /></g><g
         transform="scale(1.8474)"
         id="g18"><path
           id="path20"
           style="fill:#ebf3fa;fill-opacity:1;fill-rule:nonzero;stroke:none"
           d="m 1869.04,1584.12 c 0.7,-0.54 13648.96,1.68 13648.96,1.68 449.3,958.43 448.6,1426.71 499.7,1976.07 C 16300,6598.28 14013,7065.1 13343,7191.71 11291.6,7579.4 12225.2,9497.61 6879.46,9137.72 6389.47,9104.74 5234.26,8838.43 4836.13,8665.91 4556.89,8545 3504.82,8003.98 3196.15,7088.78 3098.65,6799.93 3075.27,6473.83 3173.56,6111.87 3521.47,4831.06 2614.45,4904.68 1951.67,4294.31 1067.06,3479.76 1159.53,2147.56 1869.04,1584.12" /></g><g
         transform="scale(1.13572)"
         id="g22"><path
           id="path24"
           style="fill:#b0d4ff;fill-opacity:1;fill-rule:nonzero;stroke:none"
           d="m 16264.6,2578.09 h 3 c 18,0 32.4,14.79 32,32.76 l -48.5,2099.1 -142.6,16.64 121.7,-2115.92 c 1,-18.31 16.1,-32.58 34.4,-32.58" /></g><g
         transform="scale(1.19365)"
         id="g26"><path
           id="path28"
           style="fill:#95c0f4;fill-opacity:1;fill-rule:nonzero;stroke:none"
           d="m 16266.3,2452.98 h 2.9 c 17.1,0 30.8,14.07 30.4,31.16 l -46.1,1997.24 -135.7,15.83 115.7,-2013.23 c 1,-17.43 15.4,-31 32.8,-31" /></g><g
         transform="scale(1.04222)"
         id="g30"><path
           id="path32"
           style="fill:#b0d4ff;fill-opacity:1;fill-rule:nonzero;stroke:none"
           d="m 16129.8,2809.39 h -3.3 c -19.5,0 -35.2,16.12 -34.8,35.69 l 52.8,2287.42 155.5,18.14 -132.6,-2305.75 c -1.2,-19.96 -17.7,-35.5 -37.6,-35.5" /></g><g
         transform="scale(1.19777)"
         id="g34"><path
           id="path36"
           style="fill:#b0d4ff;fill-opacity:1;fill-rule:nonzero;stroke:none"
           d="m 16300,4589.46 v 1363.87 c 0,240.03 -194.5,434.56 -434.5,434.56 h -982.7 c -240,0 -434.6,-194.53 -434.6,-434.56 V 4537.28 l 1851.8,52.18" /></g><g
         transform="scale(1.19777)"
         id="g38"><path
           id="path40"
           style="fill:#95c0f4;fill-opacity:1;fill-rule:nonzero;stroke:none"
           d="m 14272.2,4374.14 h 1897.4 c 72,0 130.4,58.36 130.4,130.41 v 84.91 h -2027.8 v -215.32" /></g><g
         transform="scale(1.14462)"
         id="g42"><path
           id="path44"
           style="fill:#cae5ff;fill-opacity:1;fill-rule:nonzero;stroke:none"
           d="M 14696.9,4577.24 H 16199 c 55.8,0 101,45.17 101,100.91 v 23.41 c 0,55.74 -45.2,101 -101,101 h -1502.1 c -55.7,0 -100.9,-45.26 -100.9,-101 v -23.41 c 0,-55.74 45.2,-100.91 100.9,-100.91" /></g><g
         transform="scale(1.2751)"
         id="g46"><path
           id="path48"
           style="fill:#95c0f4;fill-opacity:1;fill-rule:nonzero;stroke:none"
           d="M 16300,6460.65 H 10978.6 V 11054.3 H 16300 V 6460.65" /></g><g
         transform="scale(1.26701)"
         id="g50"><path
           id="path52"
           style="fill:#dfedfb;fill-opacity:1;fill-rule:nonzero;stroke:none"
           d="M 16300,6594.13 H 11150.7 V 11047.9 H 16300 V 6594.13" /></g><g
         transform="scale(1.00664)"
         id="g54"><path
           id="path56"
           style="fill:#ffffff;fill-opacity:1;fill-rule:nonzero;stroke:none"
           d="m 16300,11466.4 h -1420.2 v 1773.4 l 240.8,217.1 H 16300 v -1990.5" /></g><path
         id="path58"
         style="fill:#b0d4ff;fill-opacity:1;fill-rule:nonzero;stroke:none"
         d="m 14978.7,13327.8 h 234.6 l 7.8,218.5 z" /><path
         id="path60"
         style="fill:#b0d4ff;fill-opacity:1;fill-rule:nonzero;stroke:none"
         d="m 15922.4,13350.8 h -457.8 v 21.8 h 457.8 v -21.8" /><path
         id="path62"
         style="fill:#b0d4ff;fill-opacity:1;fill-rule:nonzero;stroke:none"
         d="m 16030.1,13285.4 h -673.2 v 21.8 h 673.2 v -21.8" /><path
         id="path64"
         style="fill:#b0d4ff;fill-opacity:1;fill-rule:nonzero;stroke:none"
         d="m 16265.8,12859.2 h -1117.9 v 28 h 1117.9 v -28" /><path
         id="path66"
         style="fill:#b0d4ff;fill-opacity:1;fill-rule:nonzero;stroke:none"
         d="m 16265.8,12774 h -1117.9 v 28.1 h 1117.9 v -28.1" /><path
         id="path68"
         style="fill:#b0d4ff;fill-opacity:1;fill-rule:nonzero;stroke:none"
         d="m 16265.8,12688.9 h -1117.9 v 28 h 1117.9 v -28" /><path
         id="path70"
         style="fill:#b0d4ff;fill-opacity:1;fill-rule:nonzero;stroke:none"
         d="m 16265.8,12603.8 h -1117.9 v 28 h 1117.9 v -28" /><path
         id="path72"
         style="fill:#b0d4ff;fill-opacity:1;fill-rule:nonzero;stroke:none"
         d="m 16265.8,11693 h -1117.9 v 28 h 1117.9 v -28" /><g
         transform="scale(1.10792)"
         id="g74"><path
           id="path76"
           style="fill:#ffffff;fill-opacity:1;fill-rule:nonzero;stroke:none"
           d="m 16300,8182.72 h -1290.4 v 1611.32 l 218.8,197.23 H 16300 V 8182.72" /></g><g
         transform="scale(1.03509)"
         id="g78"><path
           id="path80"
           style="fill:#b0d4ff;fill-opacity:1;fill-rule:nonzero;stroke:none"
           d="m 16065.7,10483.2 h 226.8 l 7.5,211.1 -234.3,-211.1" /></g><g
         transform="scale(1.0781)"
         id="g82"><path
           id="path84"
           style="fill:#b0d4ff;fill-opacity:1;fill-rule:nonzero;stroke:none"
           d="m 16300,10086.2 h -424.5 v 20.2 h 424.5 v -20.2" /></g><g
         transform="scale(1.08472)"
         id="g86"><path
           id="path88"
           style="fill:#b0d4ff;fill-opacity:1;fill-rule:nonzero;stroke:none"
           d="m 16300,9964.42 h -620.7 v 20.09 h 620.7 v -20.09" /></g><g
         transform="scale(1.09918)"
         id="g90"><path
           id="path92"
           style="fill:#b0d4ff;fill-opacity:1;fill-rule:nonzero;stroke:none"
           d="m 16300,9445.56 h -1017 v 25.5 h 1017 v -25.5" /></g><g
         transform="scale(1.09918)"
         id="g94"><path
           id="path96"
           style="fill:#b0d4ff;fill-opacity:1;fill-rule:nonzero;stroke:none"
           d="m 16300,9368.13 h -1017 v 25.5 h 1017 v -25.5" /></g><g
         transform="scale(1.09918)"
         id="g98"><path
           id="path100"
           style="fill:#b0d4ff;fill-opacity:1;fill-rule:nonzero;stroke:none"
           d="m 16300,9290.69 h -1017 v 25.5 h 1017 v -25.5" /></g><g
         transform="scale(1.09918)"
         id="g102"><path
           id="path104"
           style="fill:#b0d4ff;fill-opacity:1;fill-rule:nonzero;stroke:none"
           d="m 16300,9213.26 h -1017 v 25.49 h 1017 v -25.49" /></g><g
         transform="scale(1.09918)"
         id="g106"><path
           id="path108"
           style="fill:#b0d4ff;fill-opacity:1;fill-rule:nonzero;stroke:none"
           d="m 16300,8974.98 h -1017 v 25.47 h 1017 v -25.47" /></g><g
         transform="scale(1.09918)"
         id="g110"><path
           id="path112"
           style="fill:#b0d4ff;fill-opacity:1;fill-rule:nonzero;stroke:none"
           d="m 16300,8897.56 h -1017 v 25.47 h 1017 v -25.47" /></g><g
         transform="scale(1.09918)"
         id="g114"><path
           id="path116"
           style="fill:#b0d4ff;fill-opacity:1;fill-rule:nonzero;stroke:none"
           d="m 16300,8807.76 h -1017 v 25.48 h 1017 v -25.48" /></g><g
         transform="scale(1.15741)"
         id="g118"><path
           id="path120"
           style="fill:#b0d4ff;fill-opacity:1;fill-rule:nonzero;stroke:none"
           d="m 15618,11704 h 682 v -601.3 h -682 v 601.3" /></g><g
         transform="scale(1.13532)"
         id="g122"><path
           id="path124"
           style="fill:#ffa412;fill-opacity:1;fill-rule:nonzero;stroke:none"
           d="m 16239.1,11858.8 c 0,16.8 13.6,30.4 30.4,30.4 16.8,0 30.5,-13.6 30.5,-30.4 0,-16.9 -13.7,-30.5 -30.5,-30.5 -16.8,0 -30.4,13.6 -30.4,30.5" /></g><g
         transform="scale(1.15884)"
         id="g126"><path
           id="path128"
           style="fill:#ffffff;fill-opacity:1;fill-rule:nonzero;stroke:none"
           d="m 15578.6,10852.8 679.5,47.5 41.9,-599.1 -679.6,-47.5 -41.8,599.1" /></g><g
         transform="scale(1.13445)"
         id="g130"><path
           id="path132"
           style="fill:#b0d4ff;fill-opacity:1;fill-rule:nonzero;stroke:none"
           d="m 16238,10997.5 c -1.1,16.8 11.5,31.3 28.3,32.5 16.8,1.2 31.3,-11.5 32.5,-28.3 1.2,-16.8 -11.5,-31.3 -28.2,-32.5 -16.9,-1.2 -31.4,11.5 -32.6,28.3" /></g><path
         id="path134"
         style="fill:#ffffff;fill-opacity:1;fill-rule:nonzero;stroke:none"
         d="m 15429.8,10012.7 787.6,55 48.4,-694.3 -787.5,-55 -48.5,694.3" /><path
         id="path136"
         style="fill:#b0d4ff;fill-opacity:1;fill-rule:nonzero;stroke:none"
         d="m 15797.9,9912.1 c -1.3,19 13,35.5 32.1,36.9 19,1.3 35.5,-13.1 36.9,-32.1 1.3,-19.1 -13.1,-35.6 -32.1,-36.9 -19.1,-1.3 -35.6,13 -36.9,32.1" /><path
         id="path138"
         style="fill:#ffffff;fill-opacity:1;fill-rule:nonzero;stroke:none"
         d="m 14437.1,9560.1 789.4,8.1 7.1,-695.9 -789.3,-8.1 -7.2,695.9" /><path
         id="path140"
         style="fill:#b0d4ff;fill-opacity:1;fill-rule:nonzero;stroke:none"
         d="m 14798.5,9437.8 c -0.1,19.1 15.2,34.7 34.3,34.9 19,0.2 34.7,-15.1 34.9,-34.2 0.2,-19.1 -15.1,-34.7 -34.2,-34.9 -19.1,-0.2 -34.8,15.1 -35,34.2" /><g
         transform="scale(1.22919)"
         id="g142"><path
           id="path144"
           style="fill:#eef6ff;fill-opacity:1;fill-rule:nonzero;stroke:none"
           d="m 15667.8,9934.42 632.2,-112.99 -99.6,-557.36 -632.2,112.98 99.6,557.37" /></g><g
         transform="scale(1.20633)"
         id="g146"><path
           id="path148"
           style="fill:#78acea;fill-opacity:1;fill-rule:nonzero;stroke:none"
           d="m 16248.5,9992.55 c 2.4,13.55 15.4,22.55 29,20.15 13.5,-2.4 22.5,-15.38 20.1,-28.92 -2.4,-13.54 -15.4,-22.56 -28.9,-20.14 -13.5,2.42 -22.6,15.36 -20.2,28.91" /></g><g
         transform="scale(1.08501)"
         id="g150"><path
           id="path152"
           style="fill:#eef6ff;fill-opacity:1;fill-rule:nonzero;stroke:none"
           d="m 15507.7,11576.4 723.3,78.3 69,-637.7 -723.3,-78.3 -69,637.7" /></g><g
         transform="scale(1.05891)"
         id="g154"><path
           id="path156"
           style="fill:#78acea;fill-opacity:1;fill-rule:nonzero;stroke:none"
           d="m 16241.9,11810.3 c -1.7,15.6 9.6,29.6 25.1,31.3 15.6,1.7 29.6,-9.6 31.3,-25.2 1.7,-15.6 -9.5,-29.6 -25.1,-31.2 -15.6,-1.7 -29.7,9.5 -31.3,25.1" /></g><path
         id="path158"
         style="fill:#bae8e3;fill-opacity:1;fill-rule:nonzero;stroke:none"
         d="m 14789.7,10835.7 772,164.6 145.2,-680.6 -772.1,-164.7 -145.1,680.7" /><path
         id="path160"
         style="fill:#ffa412;fill-opacity:1;fill-rule:nonzero;stroke:none"
         d="m 15178.9,10800.8 c -13.9,9.1 -17.9,27.7 -8.8,41.6 9,13.9 27.6,17.9 41.6,8.9 13.9,-9 17.8,-27.7 8.8,-41.6 -9,-13.9 -27.6,-17.9 -41.6,-8.9" /><g
         transform="scale(1.08169)"
         id="g162"><path
           id="path164"
           style="fill:#ffffff;fill-opacity:1;fill-rule:nonzero;stroke:none"
           d="m 16300,11879.9 h -694.6 v 466.7 l 192.3,176.7 h 502.3 v -643.4" /></g><g
         transform="scale(1.04836)"
         id="g166"><path
           id="path168"
           style="fill:#b0d4ff;fill-opacity:1;fill-rule:nonzero;stroke:none"
           d="m 16097.8,12739.2 h 195.7 l 6.5,182.3 -202.2,-182.3" /></g><g
         transform="scale(1.06184)"
         id="g170"><path
           id="path172"
           style="fill:#b0d4ff;fill-opacity:1;fill-rule:nonzero;stroke:none"
           d="m 16253.5,12696.8 c 0,12.8 10.4,23.2 23.2,23.2 12.9,0 23.3,-10.4 23.3,-23.2 0,-12.9 -10.4,-23.3 -23.3,-23.3 -12.8,0 -23.2,10.4 -23.2,23.3" /></g><g
         transform="scale(1.21637)"
         id="g174"><path
           id="path176"
           style="fill:#ffffff;fill-opacity:1;fill-rule:nonzero;stroke:none"
           d="m 16300,7167.04 h -617.7 v 415.08 l 171,157.11 h 446.7 v -572.19" /></g><g
         transform="scale(1.18304)"
         id="g178"><path
           id="path180"
           style="fill:#b0d4ff;fill-opacity:1;fill-rule:nonzero;stroke:none"
           d="m 16120.8,7795.78 h 173.5 l 5.7,161.54 -179.2,-161.54" /></g><g
         transform="scale(1.19652)"
         id="g182"><path
           id="path184"
           style="fill:#b0d4ff;fill-opacity:1;fill-rule:nonzero;stroke:none"
           d="m 16258.7,7813.82 c 0,11.36 9.3,20.64 20.7,20.64 11.4,0 20.6,-9.28 20.6,-20.64 0,-11.37 -9.2,-20.65 -20.6,-20.65 -11.4,0 -20.7,9.28 -20.7,20.65" /></g><g
         transform="scale(1.2374)"
         id="g186"><path
           id="path188"
           style="fill:#ffffff;fill-opacity:1;fill-rule:nonzero;stroke:none"
           d="m 16300,7854.94 h -607.2 v 407.97 l 168.1,154.47 h 439.1 v -562.44" /></g><g
         transform="scale(1.20407)"
         id="g190"><path
           id="path192"
           style="fill:#b0d4ff;fill-opacity:1;fill-rule:nonzero;stroke:none"
           d="m 16123.8,8491.65 h 170.6 l 5.6,158.74 -176.2,-158.74" /></g><g
         transform="scale(1.21755)"
         id="g194"><path
           id="path196"
           style="fill:#b0d4ff;fill-opacity:1;fill-rule:nonzero;stroke:none"
           d="m 16259.4,8501.7 c 0,11.21 9.1,20.29 20.3,20.29 11.2,0 20.3,-9.08 20.3,-20.29 0,-11.2 -9.1,-20.29 -20.3,-20.29 -11.2,0 -20.3,9.09 -20.3,20.29" /></g><g
         transform="scale(1.17657)"
         id="g198"><path
           id="path200"
           style="fill:#bae8e3;fill-opacity:1;fill-rule:nonzero;stroke:none"
           d="m 16300,8261.04 h -638.6 v 429.06 l 176.7,162.45 h 461.9 v -591.51" /></g><g
         transform="scale(1.14323)"
         id="g202"><path
           id="path204"
           style="fill:#a1d6ce;fill-opacity:1;fill-rule:nonzero;stroke:none"
           d="m 16114.6,8943.51 h 179.5 l 5.9,167.19 -185.4,-167.19" /></g><g
         transform="scale(1.15672)"
         id="g206"><path
           id="path208"
           style="fill:#f99746;fill-opacity:1;fill-rule:nonzero;stroke:none"
           d="m 16257.2,8948.77 c 0,11.8 9.6,21.36 21.4,21.36 11.8,0 21.4,-9.56 21.4,-21.36 0,-11.79 -9.6,-21.35 -21.4,-21.35 -11.8,0 -21.4,9.56 -21.4,21.35" /></g><g
         transform="scale(1.25041)"
         id="g210"><path
           id="path212"
           style="fill:#bae8e3;fill-opacity:1;fill-rule:nonzero;stroke:none"
           d="m 16300,10416.2 h -600.9 v 403.8 l 166.3,152.8 h 434.6 v -556.6" /></g><g
         transform="scale(1.21707)"
         id="g214"><path
           id="path216"
           style="fill:#a1d6ce;fill-opacity:1;fill-rule:nonzero;stroke:none"
           d="m 16125.8,11116.3 h 168.6 l 5.6,157.1 -174.2,-157.1" /></g><g
         transform="scale(1.23056)"
         id="g218"><path
           id="path220"
           style="fill:#f99746;fill-opacity:1;fill-rule:nonzero;stroke:none"
           d="m 16259.9,11097.5 c 0,11.1 9,20.1 20,20.1 11.2,0 20.1,-9 20.1,-20.1 0,-11.1 -8.9,-20 -20.1,-20 -11,0 -20,8.9 -20,20" /></g><path
         id="path222"
         style="fill:#c0d8fb;fill-opacity:1;fill-rule:nonzero;stroke:none"
         d="m 12951.5,14237.1 h -1429.2 c -65.6,0 -119.3,53.7 -119.3,119.3 v 1379.4 c 0,65.6 53.7,119.3 119.3,119.3 h 1429.2 c 65.6,0 119.3,-53.7 119.3,-119.3 v -1379.4 c 0,-65.6 -53.7,-119.3 -119.3,-119.3" /><path
         id="path224"
         style="fill:#dfebfd;fill-opacity:1;fill-rule:nonzero;stroke:none"
         d="m 12889.6,14307.2 h -1305.4 c -59.9,0 -108.9,49 -108.9,108.9 V 15676 c 0,60 49,109 108.9,109 h 1305.4 c 59.9,0 109,-49 109,-109 v -1259.9 c 0,-59.9 -49.1,-108.9 -109,-108.9" /><path
         id="path226"
         style="fill:#b7d3f3;fill-opacity:1;fill-rule:nonzero;stroke:none"
         d="m 12202.4,15637.3 c 0,19.1 15.4,34.6 34.5,34.6 19.1,0 34.6,-15.5 34.6,-34.6 0,-19 -15.5,-34.5 -34.6,-34.5 -19.1,0 -34.5,15.5 -34.5,34.5" /><path
         id="path228"
         style="fill:#b7d3f3;fill-opacity:1;fill-rule:nonzero;stroke:none"
         d="m 12481.1,15588.5 c 9.3,16.7 30.3,22.7 47,13.4 16.7,-9.3 22.7,-30.3 13.4,-47 -9.2,-16.6 -30.3,-22.6 -47,-13.4 -16.6,9.3 -22.6,30.3 -13.4,47" /><path
         id="path230"
         style="fill:#b7d3f3;fill-opacity:1;fill-rule:nonzero;stroke:none"
         d="m 12720,15398.8 c 16,10.3 37.4,5.7 47.7,-10.4 10.4,-16 5.7,-37.4 -10.3,-47.7 -16,-10.3 -37.4,-5.7 -47.7,10.3 -10.4,16 -5.8,37.4 10.3,47.8" /><path
         id="path232"
         style="fill:#b7d3f3;fill-opacity:1;fill-rule:nonzero;stroke:none"
         d="m 12838.3,15105.1 c 19,0 34.5,-15.5 34.5,-34.6 0,-19.1 -15.5,-34.5 -34.5,-34.5 -19.1,0 -34.6,15.4 -34.6,34.5 0,19.1 15.5,34.6 34.6,34.6" /><path
         id="path234"
         style="fill:#b7d3f3;fill-opacity:1;fill-rule:nonzero;stroke:none"
         d="m 12777.9,14764.3 c 13.4,-13.5 13.4,-35.4 0,-48.9 -13.5,-13.5 -35.4,-13.5 -48.9,0 -13.5,13.5 -13.5,35.4 0,48.9 13.5,13.4 35.4,13.4 48.9,0" /><path
         id="path236"
         style="fill:#b7d3f3;fill-opacity:1;fill-rule:nonzero;stroke:none"
         d="m 12560.9,14546.7 c 13.5,-13.4 13.5,-35.3 0,-48.8 -13.5,-13.5 -35.4,-13.5 -48.8,0 -13.5,13.5 -13.5,35.4 0,48.8 13.4,13.5 35.3,13.5 48.8,0" /><path
         id="path238"
         style="fill:#b7d3f3;fill-opacity:1;fill-rule:nonzero;stroke:none"
         d="m 12202.4,14434.6 c 0,19.1 15.4,34.6 34.5,34.6 19.1,0 34.6,-15.5 34.6,-34.6 0,-19 -15.5,-34.5 -34.6,-34.5 -19.1,0 -34.5,15.5 -34.5,34.5" /><path
         id="path240"
         style="fill:#b7d3f3;fill-opacity:1;fill-rule:nonzero;stroke:none"
         d="m 11991.6,15588.5 c -9.3,16.7 -30.3,22.7 -47,13.4 -16.7,-9.3 -22.7,-30.3 -13.4,-47 9.3,-16.6 30.3,-22.6 47,-13.4 16.6,9.3 22.7,30.3 13.4,47" /><path
         id="path242"
         style="fill:#b7d3f3;fill-opacity:1;fill-rule:nonzero;stroke:none"
         d="m 11752.8,15398.8 c -16.1,10.3 -37.5,5.7 -47.8,-10.4 -10.3,-16 -5.7,-37.4 10.3,-47.7 16,-10.3 37.4,-5.7 47.8,10.3 10.3,16 5.7,37.4 -10.3,47.8" /><path
         id="path244"
         style="fill:#b7d3f3;fill-opacity:1;fill-rule:nonzero;stroke:none"
         d="m 11634.5,15105.1 c -19.1,0 -34.6,-15.5 -34.6,-34.6 0,-19.1 15.5,-34.5 34.6,-34.5 19,0 34.5,15.4 34.5,34.5 0,19.1 -15.5,34.6 -34.5,34.6" /><path
         id="path246"
         style="fill:#b7d3f3;fill-opacity:1;fill-rule:nonzero;stroke:none"
         d="m 11694.9,14764.3 c -13.5,-13.5 -13.5,-35.4 0,-48.9 13.5,-13.5 35.3,-13.5 48.8,0 13.5,13.5 13.5,35.4 0,48.9 -13.5,13.4 -35.3,13.4 -48.8,0" /><path
         id="path248"
         style="fill:#b7d3f3;fill-opacity:1;fill-rule:nonzero;stroke:none"
         d="m 11911.8,14546.7 c -13.5,-13.4 -13.5,-35.3 0,-48.8 13.5,-13.5 35.4,-13.5 48.9,0 13.5,13.5 13.5,35.4 0,48.8 -13.5,13.5 -35.4,13.5 -48.9,0" /><path
         id="path250"
         style="fill:#b7d3f3;fill-opacity:1;fill-rule:nonzero;stroke:none"
         d="m 12227.6,15070.5 c 0,19.1 15.5,34.6 34.5,34.6 19.1,0 34.6,-15.5 34.6,-34.6 0,-19.1 -15.5,-34.5 -34.6,-34.5 -19,0 -34.5,15.4 -34.5,34.5" /><path
         id="path252"
         style="fill:#b7d3f3;fill-opacity:1;fill-rule:nonzero;stroke:none"
         d="m 12266.9,15070.5 h -9.5 v 431.6 h 9.5 v -431.6" /><path
         id="path254"
         style="fill:#b7d3f3;fill-opacity:1;fill-rule:nonzero;stroke:none"
         d="m 12266.5,15060 -17.5,22.3 228.9,179.6 17.4,-22.3 -228.8,-179.6" /><g
         transform="scale(1.34407)"
         id="g256"><path
           id="path258"
           style="fill:#ffb27d;fill-opacity:1;fill-rule:nonzero;stroke:none"
           d="m 16182.1,2241.92 c -5.1,-69.05 -102.5,-69.79 -213.1,-56.99 -110.6,12.87 -81.2,-15.11 -236,-17.27 -154.8,-2.15 -208.1,49.03 -215.6,71.13 -6.7,19.64 67.8,36.16 147.6,55.58 10,2.38 20.2,4.91 30.2,7.44 89.9,22.91 149.5,90.17 226.4,148.95 72.9,55.73 167,257.2 167,257.2 l 211.4,9.6 c 0,0 -89.1,-180.65 -122.5,-258.54 -19.7,-45.76 -11.3,-102.08 -2.8,-145.23 4.6,-23.51 9.2,-47.55 7.4,-71.87" /></g><g
         transform="scale(1.3345)"
         id="g260"><path
           id="path262"
           style="fill:#233862;fill-opacity:1;fill-rule:nonzero;stroke:none"
           d="m 16083.6,2200.61 c -111.4,12.96 -81.8,-15.22 -237.7,-17.39 -155.9,-2.17 -209.6,49.38 -217.2,71.64 -6.7,19.78 68.4,36.41 148.7,55.97 l 1,-1.49 c 0,0 100.4,-53.88 228.8,-40.99 104.6,10.49 211.4,54.17 283.6,62.04 4.6,-23.68 9.2,-47.88 7.4,-72.39 -5.1,-69.53 -103.3,-70.28 -214.6,-57.39" /></g><g
         transform="scale(1.45493)"
         id="g264"><path
           id="path266"
           style="fill:#ffb27d;fill-opacity:1;fill-rule:nonzero;stroke:none"
           d="m 16298.3,2057.9 c -4.6,-63.86 -94.6,-64.61 -196.7,-52.86 -102.2,11.75 -75,-14.09 -218,-16.22 -143,-2.13 -192.4,45.09 -199.3,65.5 -6.2,18.15 62.7,33.48 136.4,51.48 9.2,2.27 18.5,4.61 27.8,6.95 83.1,21.23 138,83.43 209.1,137.8 67.3,51.55 0,356.44 0,356.44 l 214.9,20.9 c 0,0 -10.3,-256.71 -10.2,-373.42 0.1,-46.05 21.3,-90.32 29.2,-130.25 4.2,-21.72 8.5,-43.85 6.8,-66.32" /></g><g
         transform="scale(1.45493)"
         id="g268"><path
           id="path270"
           style="fill:#233862;fill-opacity:1;fill-rule:nonzero;stroke:none"
           d="m 16101.6,2005.04 c -102.2,11.75 -75,-14.09 -218,-16.22 -143,-2.13 -192.4,45.09 -199.3,65.5 -6.2,18.15 62.7,33.48 136.4,51.48 l 0.8,-1.31 c 0,0 92.2,-49.34 209.9,-37.38 96,9.69 193.9,49.9 260.1,57.11 4.2,-21.72 8.5,-43.85 6.8,-66.32 -4.6,-63.86 -94.6,-64.61 -196.7,-52.86" /></g><g
         transform="scale(1.51208)"
         id="g272"><path
           id="path274"
           style="fill:#a9453d;fill-opacity:1;fill-rule:nonzero;stroke:none"
           d="m 15079,7050.8 c -35.6,146.4 16,214.58 62.5,250.88 22.1,53.88 47.3,92.72 73,107.36 47.1,26.71 103.3,29.62 142.8,27.3 -10.2,10.46 -30.1,14.28 -30.1,14.28 24.4,3.63 78.9,-20.6 78.9,-20.6 339.8,130.91 393.1,-369.33 386,-485.55 -7.1,-116.21 -6.2,-253.08 170.6,-344.62 337.3,-174.73 -112.1,-833.16 -112.1,-833.16 8.6,93.91 -424.7,589.52 -650.8,737.99 -55,81.02 -74.6,224.14 -76.1,235.42 9.6,-113.49 28.9,-177.15 46.3,-213 -103,94.84 -118.3,322.57 -91,523.7" /></g><g
         transform="scale(1.44105)"
         id="g276"><path
           id="path278"
           style="fill:#ffb27d;fill-opacity:1;fill-rule:nonzero;stroke:none"
           d="m 15963,6817.53 c -1.2,-0.55 114.6,-60.58 201.6,-36.77 81.9,22.27 135.4,128.44 134.3,128.72 -34.7,6.87 -44.7,54.52 -43.9,259.28 l -15.7,-3.09 -263.6,-52.19 c 0,0 6,-82.95 6.2,-161.09 0.1,-65.6 -3.8,-127.85 -18.9,-134.86" /></g><g
         transform="scale(1.43568)"
         id="g280"><path
           id="path282"
           style="fill:#ed975d;fill-opacity:1;fill-rule:nonzero;stroke:none"
           d="m 16035.5,7140.08 c 0,0 5.9,-83.26 6.2,-161.69 148,4.17 226.3,139.22 258.3,214.08 l -264.5,-52.39" /></g><g
         transform="scale(1.45177)"
         id="g284"><path
           id="path286"
           style="fill:#2a4e96;fill-opacity:1;fill-rule:nonzero;stroke:none"
           d="m 14793.2,2403.41 c -12.8,-40.16 16,-81.63 58.2,-83.63 l 102.2,-4.75 108.1,-3.3 c 27.1,-0.83 52.9,10.95 70,31.96 86.4,105.87 352.1,458.82 513.2,971.64 4.6,14.39 9.3,28.93 14.4,43.67 106.5,310.38 327.2,699.97 443.4,1052.57 18.6,56.21 35.2,109.04 50,159.12 4.9,15.98 9.5,31.75 13.9,47.25 85.7,297.77 110.5,493.26 133.4,702.11 l -839.7,-6.68 c 0,0 -176.8,-1374.05 -667.1,-2909.96" /></g><g
         transform="scale(1.48382)"
         id="g288"><path
           id="path290"
           style="fill:#ffffff;fill-opacity:1;fill-rule:nonzero;stroke:none"
           d="m 15241.4,5670.69 c 2.1,-390.95 -57.4,-558.69 -57.4,-558.69 0,0 351.8,-178.73 769.9,-47.17 4.9,1.55 346.1,79.45 346.1,79.45 -6.9,15.77 -69.2,279.28 -76,293.77 -88.3,189.58 -155.3,272.67 -165.7,330.97 -19.4,108.77 -19.9,221.39 -10.2,327.53 25.5,281.03 101.3,514.35 101.3,514.35 -113.9,25.95 -220.5,71.5 -339.1,115.92 -27.3,-33.97 -110.6,-69.49 -183,-67.87 -83.3,1.89 -110.3,37.54 -106,76.43 -88.7,-49.4 -159.5,-96.04 -159.5,-96.04 -75.4,-131.01 -228.4,-258.25 -239.4,-459.22 -2.8,-49.4 118.9,-498.51 119,-509.43" /></g><g
         transform="scale(1.4769)"
         id="g292"><path
           id="path294"
           style="fill:#5f9aa8;fill-opacity:1;fill-rule:nonzero;stroke:none"
           d="m 16022.7,5653.46 c 36.1,-51.06 105.2,-361.44 277.3,-400.5 -88.7,221.27 -156,318.23 -166.5,386.28 -19.5,126.95 -20,258.31 -10.2,382.22 -57.6,100.95 -100.6,170.22 -100.6,170.22 -4.6,16.32 -91.6,285.39 -119.5,44.89 -27.8,-240.64 79.2,-525.97 119.5,-583.11" /></g><g
         transform="scale(1.44291)"
         id="g296"><path
           id="path298"
           style="fill:#ffb27d;fill-opacity:1;fill-rule:nonzero;stroke:none"
           d="m 15905.9,7030.39 c 0,0 348.5,-5.75 348.7,211.34 0.3,217.1 45.4,362.56 -177.1,375.41 -222.5,12.85 -265.8,-69.94 -283.6,-142.38 -17.6,-72.45 21.3,-437.28 112,-444.37" /></g><g
         transform="scale(1.44917)"
         id="g300"><path
           id="path302"
           style="fill:#a9453d;fill-opacity:1;fill-rule:nonzero;stroke:none"
           d="m 15850.1,7589.57 c 0,0 95,-253.59 240.8,-291.08 145.8,-37.5 209.1,1.57 209.1,1.57 0,0 -111.9,88.85 -135.1,243.94 0,0 -243.1,166.28 -314.8,45.57" /></g><g
         transform="scale(1.41126)"
         id="g304"><path
           id="path306"
           style="fill:#a9453d;fill-opacity:1;fill-rule:nonzero;stroke:none"
           d="m 16300,7772.3 c 0,0 -72.8,-58.14 -90.6,-114.66 -17.7,-56.52 -25.7,-172.88 -59.7,-168.92 0,0 -73.5,177 9.2,277.12 87.5,106.18 141.1,6.46 141.1,6.46" /></g><g
         transform="scale(1.37731)"
         id="g308"><path
           id="path310"
           style="fill:#ffb27d;fill-opacity:1;fill-rule:nonzero;stroke:none"
           d="m 16088.9,5816.84 -172.4,-525.74 98.4,-39.42 285.1,464.45 -211.1,100.71" /></g><g
         transform="scale(1.39877)"
         id="g312"><path
           id="path314"
           style="fill:#f99746;fill-opacity:1;fill-rule:nonzero;stroke:none"
           d="m 16300,7073.59 c 0,0 -200.2,-79.5 -258.2,-203.32 -57.9,-123.9 -145.7,-954.78 -180.6,-1040.14 -35,-85.29 -61.2,-152.84 -61.2,-152.84 0,0 100.9,-85.08 202.5,-91.3 101.5,-6.29 297.5,1487.6 297.5,1487.6" /></g><g
         transform="scale(1.41294)"
         id="g316"><path
           id="path318"
           style="fill:#f99746;fill-opacity:1;fill-rule:nonzero;stroke:none"
           d="m 16300,7073.27 c 0,0 -205.9,-508.72 -212,-611.63 -6,-102.98 -24.2,-1683.51 -24.2,-1683.51 0,0 12.1,-72.69 -127.2,-42.4 -139.2,30.22 -175.6,60.51 -175.6,60.51 0,0 133.2,974.99 96.9,1314.15 -36.3,339.15 278.6,892.25 278.6,892.25 l 163.5,70.63" /></g><g
         transform="scale(1.43989)"
         id="g320"><path
           id="path322"
           style="fill:#1e3d70;fill-opacity:1;fill-rule:nonzero;stroke:none"
           d="m 15077,2334.14 118.4,-3.61 c 21.1,-0.7 41.4,8.47 54.9,24.79 79.6,96.33 357.1,457.12 523.8,987.37 4.5,14.51 9.3,29.17 14.5,44.03 107.3,312.94 329.8,705.75 447,1061.26 18.7,56.67 35.4,109.94 50.4,160.43 4.9,16.11 9.6,32.01 14,47.64 l -124.7,94.59 c 0,0 -374.3,-606.09 -490.1,-1176.55 -100.7,-495.45 -503.8,-1091.68 -608.2,-1239.95" /></g><g
         transform="scale(1.48502)"
         id="g324"><path
           id="path326"
           style="fill:#2a4e96;fill-opacity:1;fill-rule:nonzero;stroke:none"
           d="m 15671.2,3413.96 c -2,-254.47 10.1,-821.6 41.1,-1098.84 2.8,-25.38 24.2,-44.51 49.8,-44.51 h 85.6 c 36.1,0 63.1,0.27 81.1,0.54 15.5,0.2 28.8,11.38 31.7,26.6 85.2,433.46 146.2,793.53 190.8,1104.7 37.4,260.4 70.5,483.7 96,675.95 25.8,193.4 43.6,355.35 50,492.25 1,21.48 1.8,42.49 2.2,62.83 0.4,20.47 0.5,40.33 0.3,59.66 l -709.3,69.09 c 9,-471.24 81.8,-1191.97 80.7,-1348.27" /></g><g
         transform="scale(1.48477)"
         id="g328"><path
           id="path330"
           style="fill:#1e3d70;fill-opacity:1;fill-rule:nonzero;stroke:none"
           d="m 15850.4,2270.99 c 32.4,0 57.5,0.2 75.3,0.47 18.8,0.27 34.9,13.74 38.6,32.26 84.6,431.04 145.2,789.41 189.7,1099.29 37.4,260.44 70.5,483.78 96,676.06 25.8,193.43 43.6,355.41 50,492.34 l -260.3,-153.16 c 0,0 166.1,-58.59 102.8,-502.37 -63.4,-443.7 -203.9,-1582.06 -292.1,-1644.89" /></g><g
         transform="scale(1.4992)"
         id="g332"><path
           id="path334"
           style="fill:#f99746;fill-opacity:1;fill-rule:nonzero;stroke:none"
           d="m 15664.6,4531.68 c 0,0 49.5,-178.77 220.7,-155.95 171.2,22.81 414.7,125.53 414.7,125.53 0,0 -73.2,231.26 -164.2,534.95 -110.1,367.73 -246.4,841.78 -310.7,1140.81 -18,83.77 -30.4,153.75 -34.9,203.91 l -142.1,275.61 c 0,0 -211.8,-475.39 -223.2,-595.25 -11.4,-119.86 239.7,-1529.61 239.7,-1529.61" /></g><g
         transform="scale(1.48748)"
         id="g336"><path
           id="path338"
           style="fill:#ffb27d;fill-opacity:1;fill-rule:nonzero;stroke:none"
           d="m 15960.3,6127.06 -188.9,581.92 c 0.5,-0.27 238.6,-70.86 358.4,-131.43 0,0 74.9,-96.54 121.2,-319.2 0,0 49,-534.73 -60.3,-730.29 0,0 -345.2,-69.05 -897.4,120.81 v 126.52 c 0,0 604,-31.6 727.7,-45.98 l -60.7,397.65" /></g><g
         transform="scale(1.4841)"
         id="g340"><path
           id="path342"
           style="fill:#ed7d2b;fill-opacity:1;fill-rule:nonzero;stroke:none"
           d="m 15831.6,5869.26 c 7.8,-196.01 53.9,-576.51 465.2,-780.2 1,-0.54 2.1,-1.14 3.2,-1.61 -111.2,371.47 -249,850.34 -313.9,1152.41 -75.6,-112.86 -158.6,-262.65 -154.5,-370.6" /></g><g
         transform="scale(1.48906)"
         id="g344"><path
           id="path346"
           style="fill:#f99746;fill-opacity:1;fill-rule:nonzero;stroke:none"
           d="m 15754.8,6701.9 c 0,0 349.8,-24.71 434.1,-212.42 84.3,-187.7 111.1,-812.12 3.8,-996 0,0 -147.6,-42.04 -408.8,6.79 -3.2,0.6 -6.4,1.2 -9.7,1.81 0,0 -83.3,204.02 -8.6,244.25 0,0 220.3,-11.49 197.3,61.31 -23,72.73 -208.1,894.26 -208.1,894.26" /></g><g
         transform="scale(1.41319)"
         id="g348"><path
           id="path350"
           style="fill:#a9453d;fill-opacity:1;fill-rule:nonzero;stroke:none"
           d="m 15676.1,5996.72 10.8,-34.89 605,188.16 c 0,0 8.1,9.2 4.1,21.44 -4.3,13.44 -14.9,13.51 -14.9,13.51 l -605,-188.22" /></g><g
         transform="scale(1.36004)"
         id="g352"><path
           id="path354"
           style="fill:#a9453d;fill-opacity:1;fill-rule:nonzero;stroke:none"
           d="m 16243.3,6196.82 45.5,34.26 11.2,-36.25 -56.7,1.99" /></g><g
         transform="scale(1.35591)"
         id="g356"><path
           id="path358"
           style="fill:#ffb27d;fill-opacity:1;fill-rule:nonzero;stroke:none"
           d="m 16192.7,5389.23 c 0,0 -160,-88.43 -181.1,-155.76 -21,-67.34 -6.5,-208.35 18.8,-206.28 25.5,2.13 63.3,151.55 84.4,162.1 21,10.47 50.5,42.04 50.5,18.88 0,-23.08 -21.1,-65.2 -10.5,-71.54 10.5,-6.27 44.2,58.93 67.3,71.54 23.2,12.69 32.9,116.75 55.4,144.7 22.5,27.95 -84.8,36.36 -84.8,36.36" /></g><g
         transform="scale(1.40658)"
         id="g360"><path
           id="path362"
           style="fill:#ffb27d;fill-opacity:1;fill-rule:nonzero;stroke:none"
           d="m 16173,6107.57 c 0,0 -138,84.96 -195.8,71.87 -57.8,-13.08 -205.3,-119.86 -134.4,-142.97 70.9,-23.1 128.4,1.14 155.6,-15.64 27.3,-16.78 47.4,-47.49 174.6,-47.06 127,0.42 0,133.8 0,133.8" /></g><path
         id="path364"
         style="fill:#163560;fill-opacity:1;fill-rule:nonzero;stroke:none"
         d="m 7494.6,9874.2 c -32.51,62.7 709.38,288.5 721.13,-330.4 0,0 1389.77,34.2 726.19,808.8 -229.73,268.2 -206.09,489.9 -199.21,696.3 6.99,206.5 -143.09,806.4 -657.5,746 0,0 -134.71,54.8 -302.83,-32.5 C 7400.04,11564.1 6543.56,9646 7494.6,9874.2" /><path
         id="path366"
         style="fill:#ffb27d;fill-opacity:1;fill-rule:nonzero;stroke:none"
         d="m 9766.7,9182.3 c 0,0 90.46,137.7 163.37,140.4 72.93,2.7 207.93,40.5 197.13,13.5 -10.8,-27 -94.5,-29.7 -102.6,-45.9 -8.1,-16.2 124.2,-40.5 162,-43.2 37.8,-2.7 126.9,0 124.2,-18.9 -2.7,-18.9 -160.6,-97.2 -272,-86.4 -111.43,10.8 -249.14,-32.4 -249.14,-32.4 l -22.96,72.9" /><path
         id="path368"
         style="fill:#b0d0ff;fill-opacity:1;fill-rule:nonzero;stroke:none"
         d="m 8458.4,9137.7 c 0,0 49.17,-97.3 138.36,-209.2 107.5,-134.6 273.25,-290.2 481.37,-320.9 99.39,-14.6 196.6,6.7 285.96,46.4 0.24,0.1 0.32,0.1 0.32,0.1 252.75,112.2 442.8,370.2 442.8,370.2 44.55,121.5 -28.35,203.9 -28.35,203.9 0,0 -510.36,-114.8 -558.97,-90.5 -48.61,24.3 -332.14,841.2 -399.62,943.8 -67.56,102.6 -297.63,155.9 -297.63,155.9 L 8458.4,9137.7" /><path
         id="path370"
         style="fill:#98baf4;fill-opacity:1;fill-rule:nonzero;stroke:none"
         d="m 8596.76,8928.5 c 107.5,-134.6 273.25,-290.2 481.37,-320.9 99.39,-14.6 196.6,6.7 285.96,46.4 -9.89,-1.3 -262.31,-32.5 -362.93,147.5 -102.63,183.7 -213.62,475.3 -366.08,378.1 -65.78,-41.9 -62.86,-146.2 -38.32,-251.1" /><path
         id="path372"
         style="fill:#233862;fill-opacity:1;fill-rule:nonzero;stroke:none"
         d="m 6554.33,3628.7 c 0,0 -155.73,-142.2 -125.34,-243.1 30.39,-101 170.92,-168.3 189.91,-291.8 19,-123.4 94.96,-190.7 163.33,-190.7 68.37,0 325.95,0 325.95,0 0,0 50.33,86.9 -71.22,113 -121.54,26.2 -167.37,171.2 -159.77,305.9 7.6,134.6 -11.4,314.1 -11.4,314.1 l -258.28,59.9 -53.18,-67.3" /><path
         id="path374"
         style="fill:#233862;fill-opacity:1;fill-rule:nonzero;stroke:none"
         d="m 7872.43,3568.3 c 0,0 -56.02,-602 12.35,-635.7 l 874.97,1.8 c 0,0 0,101 -140.54,123.4 -140.54,22.5 -387.43,104.7 -429.21,288 -41.78,183.3 -317.57,222.5 -317.57,222.5" /><path
         id="path376"
         style="fill:#ffb27d;fill-opacity:1;fill-rule:nonzero;stroke:none"
         d="m 7248.91,7887.7 c 180.05,403.8 290.23,519.7 269.2,645 -15.66,93.3 47.66,1739.2 47.66,1739.2 21.36,6.6 64.19,12.6 87.61,17.8 73.85,16.4 134.98,68.2 160.42,139.5 30.64,85.8 55.01,212.5 54.44,371.4 l 23.07,-4.6 387.81,-76.8 c 0,0 -8.83,-122 -9.09,-237 0,-1 -0.01,-1.9 -0.01,-2.9 -0.47,-99.8 65.04,-187.9 160.98,-215.6 48.98,-14.2 91.6,-26.3 91.6,-26.3 0,0 142.4,-406.5 169.6,-824.2 27.2,-417.7 -258.95,-599.1 2.16,-1433.7 266.58,-852.5 -1544.92,-314.9 -1445.45,-91.8" /><path
         id="path378"
         style="fill:#e8945b;fill-opacity:1;fill-rule:nonzero;stroke:none"
         d="m 8279.12,10719.2 c 0,0 -8.83,-122 -9.09,-237 -217.01,6.1 -331.72,204.1 -378.72,313.8 l 387.81,-76.8" /><path
         id="path380"
         style="fill:#ffb27d;fill-opacity:1;fill-rule:nonzero;stroke:none"
         d="m 8351.59,10610.4 c 0,0 -513.45,-8.5 -513.8,311.3 -0.35,319.8 -66.86,534.1 260.95,553.1 327.81,18.9 391.64,-103.1 417.72,-209.8 26.08,-106.7 -31.32,-644.2 -164.87,-654.6" /><path
         id="path382"
         style="fill:#163560;fill-opacity:1;fill-rule:nonzero;stroke:none"
         d="m 8332.59,11482.6 c 0,0 -140.58,-375.2 -356.33,-430.7 -215.75,-55.5 -309.34,2.3 -309.34,2.3 0,0 165.5,131.5 199.84,361 0,0 359.78,246 465.83,67.4" /><path
         id="path384"
         style="fill:#163560;fill-opacity:1;fill-rule:nonzero;stroke:none"
         d="m 8297.74,11452.2 c 0,0 104.25,-39 147.16,-115 41.96,-74.4 77.7,-172.9 69.41,-293.7 0,0 105.91,255.1 -13.12,399.3 -126.21,153 -203.45,9.4 -203.45,9.4" /><path
         id="path386"
         style="fill:#ebf3fa;fill-opacity:1;fill-rule:nonzero;stroke:none"
         d="m 8239.87,10808.8 c 0,0 35.43,-46.7 106.32,-43.3 57.09,2.7 79.11,52.2 79.11,52.2 0,0 -104.88,25.2 -185.43,-8.9" /><path
         id="path388"
         style="fill:#b0d0ff;fill-opacity:1;fill-rule:nonzero;stroke:none"
         d="m 7199.36,9543.8 c 0,0 -13.05,-183.8 0,-404.4 8.66,-146.2 156.58,-342.1 177.56,-390.5 52.66,-121.5 112.04,-141.3 112.04,-141.3 l 459.4,-112.6 161.54,-39.5 509.38,152.1 c 0,0 232.01,647.6 138.85,1012.2 -93.16,364.5 -235.49,617.6 -235.49,617.6 0,0 -415.66,-406.9 -956.89,34.6 l -366.39,-728.2" /><path
         id="path390"
         style="fill:#f2ccaa;fill-opacity:1;fill-rule:nonzero;stroke:none"
         d="m 7333.82,9079.7 c 8.67,-146.2 22.12,-282.4 43.1,-330.8 52.66,-121.5 112.04,-141.3 112.04,-141.3 l 459.4,-112.6 199.53,58.7 c 0,0 -666.06,100.9 -592.26,674 l -221.81,-148" /><path
         id="path392"
         style="fill:#ed7d2b;fill-opacity:1;fill-rule:nonzero;stroke:none"
         d="m 8586.88,8509.3 c 0,0 252.27,-785.2 268.47,-1052.5 16.2,-267.3 -482.21,-3797.7 -502.26,-3920.9 C 8334.18,3419.8 8190,3345.8 8190,3345.8 c 0,0 -66.31,-39.1 -160.95,-12.4 -131.32,37.1 -172.82,81.5 -172.82,81.5 0,0 -196.35,2517.8 -74.84,3417.2 121.51,899.4 122.94,1677.2 122.94,1677.2 h 682.55" /><path
         id="path394"
         style="fill:#f99746;fill-opacity:1;fill-rule:nonzero;stroke:none"
         d="m 7518.11,8532.7 c 0,0 -384.8,-516.3 -420.67,-865.3 -35.87,-349 -56.28,-1574.9 -132.71,-1915.2 -76.42,-340.2 -357.22,-995 -357.22,-2056.2 0,0 29.18,-60.8 119.31,-93.2 28.81,-10.4 67.43,-20.5 104.92,-29 74.32,-17.1 150.57,19.2 184.5,87.5 189.83,382.2 794.55,1615 825.55,1870.9 21.95,181.1 212.88,1379.7 629.37,2083 99.99,168.8 -61.37,840.3 -61.37,840.3 l -891.68,77.2" /><path
         id="path396"
         style="fill:#ffffff;fill-opacity:1;fill-rule:nonzero;stroke:none"
         d="m 8251.28,10800.2 c 0,0 8.88,-37.7 102.65,-31.9 0,0 78.72,4.9 76.31,46.3 0,0 -76.33,29.5 -178.96,-14.4" /><path
         id="path398"
         style="fill:#233862;fill-opacity:1;fill-rule:nonzero;stroke:none"
         d="m 8627.18,8630.5 c 0,0 -101.27,-80.1 -302.45,-84.1 -240.3,-4.9 -835.75,61.2 -835.75,61.2 0,0 -26.46,-73.9 -25.38,-151.9 0,0 727.24,-183.5 1148.61,-26.8 0,0 54.34,102.2 14.97,201.6" /><path
         id="path400"
         style="fill:#ffffff;fill-opacity:1;fill-rule:nonzero;stroke:none"
         d="m 8309.08,8463.4 c 0,-48.4 32.88,-87.8 73.3,-87.8 40.43,0 73.31,39.4 73.31,87.8 0,48.4 -32.88,87.8 -73.31,87.8 -40.42,0 -73.3,-39.4 -73.3,-87.8 z m -36.35,0 c 0,68.4 49.18,124.1 109.65,124.1 60.47,0 109.66,-55.7 109.66,-124.1 0,-68.4 -49.19,-124.1 -109.66,-124.1 -60.47,0 -109.65,55.7 -109.65,124.1" /><path
         id="path402"
         style="fill:#b5453c;fill-opacity:1;fill-rule:nonzero;stroke:none"
         d="m 6706.09,8488.5 745.08,-648.8 888.08,1019.9 -745.08,648.8 -888.08,-1019.9" /><path
         id="path404"
         style="fill:#ffb27d;fill-opacity:1;fill-rule:nonzero;stroke:none"
         d="m 7657.03,8486.1 c 0,0 272.99,-31.9 272.14,-96.7 -0.85,-64.8 -68.02,-197.9 -101.74,-203.9 -33.72,-5.9 -222.17,180.1 -222.17,180.1 l 51.77,120.5" /><path
         id="path406"
         style="fill:#b0d0ff;fill-opacity:1;fill-rule:nonzero;stroke:none"
         d="m 7565.75,10272 c 0,0 -364.47,-25.6 -504.18,-365.2 -139.72,-339.7 -404.8,-909.9 -404.8,-1005.8 0,-96 148.07,-391.7 943.31,-561.7 0,0 82.25,86.5 77.27,154.9 0,0 -496.41,426.4 -495.08,476.3 2.52,94.2 81.38,218.7 517.22,654.6 118.49,118.6 -133.74,646.9 -133.74,646.9" /><path
         id="path408"
         style="fill:#b0d4ff;fill-opacity:1;fill-rule:nonzero;stroke:none"
         d="m 11592.6,2921.7 h -3.5 c -20.3,0 -36.7,16.7 -36.2,37.1 l 55,2384 162,18.9 -138.2,-2403.1 c -1.2,-20.7 -18.3,-36.9 -39.1,-36.9" /><path
         id="path410"
         style="fill:#95c0f4;fill-opacity:1;fill-rule:nonzero;stroke:none"
         d="m 10648.4,2921.7 h -3.5 c -20.3,0 -36.7,16.7 -36.2,37.1 l 55,2384 162,18.9 -138.2,-2403.1 c -1.2,-20.7 -18.3,-36.9 -39.1,-36.9" /><path
         id="path412"
         style="fill:#b0d4ff;fill-opacity:1;fill-rule:nonzero;stroke:none"
         d="m 13253.8,2921.7 h 3.5 c 20.3,0 36.7,16.7 36.3,37.1 l -55.1,2384 -162,18.9 138.2,-2403.1 c 1.2,-20.7 18.3,-36.9 39.1,-36.9" /><path
         id="path414"
         style="fill:#b0d4ff;fill-opacity:1;fill-rule:nonzero;stroke:none"
         d="m 10541,5490.7 v 1633.7 c 0,287.4 233.1,520.5 520.5,520.5 h 1177 c 287.5,0 520.5,-233.1 520.5,-520.5 V 5428.3 l -2218,62.4" /><path
         id="path416"
         style="fill:#95c0f4;fill-opacity:1;fill-rule:nonzero;stroke:none"
         d="m 12969.9,5232.8 h -2272.6 c -86.3,0 -156.3,70 -156.3,156.3 v 101.6 h 2428.9 v -257.9" /><path
         id="path418"
         style="fill:#b0d4ff;fill-opacity:1;fill-rule:nonzero;stroke:none"
         d="m 13242.3,5232.8 h -1719.4 c -63.8,0 -115.5,51.7 -115.5,115.5 v 26.8 c 0,63.9 51.7,115.6 115.5,115.6 h 1719.4 c 63.8,0 115.5,-51.7 115.5,-115.6 v -26.8 c 0,-63.8 -51.7,-115.5 -115.5,-115.5" /><path
         id="path420"
         style="fill:#233862;fill-opacity:1;fill-rule:nonzero;stroke:none"
         d="M 13175.5,5897.8 C 13006.9,5604.3 12794.8,5491 12794.8,5491 h -882.3 c 0,0 1391.6,630.6 1263,406.8" /><path
         id="path422"
         style="fill:#ffb27d;fill-opacity:1;fill-rule:nonzero;stroke:none"
         d="m 12497.9,3627.1 c -23,-26.3 -26,-55.8 -14.6,-87.2 0,-0.1 0.1,-0.3 0.2,-0.4 21.1,-58.2 90.6,-123.1 171.4,-188 10.3,-8.3 19.5,-15.9 27.5,-22.9 2.1,-1.8 4.2,-3.7 6.1,-5.5 1.7,-1.5 3.2,-3 4.8,-4.3 75.3,-69.4 46.9,-85.3 182.2,-226.2 154.3,-160.5 260.5,-163.4 290.7,-148.8 25.6,12.5 -26.3,97.6 -83.9,193.3 -2.8,4.6 -5.5,9.3 -8.4,13.9 -7.6,12.8 -15.3,25.7 -22.9,38.5 -67.4,115.1 -50.1,169.1 -34.1,340.5 13,139.3 216.7,778 216.7,778 l -295.7,51 c 0,0 -89,-508.7 -187.1,-587 -52.4,-41.8 -111.2,-42.3 -161.6,-73.2 -3.5,-2.2 -7,-4.4 -10.4,-6.7 -28.7,-19 -57.9,-38.6 -80.9,-65" /><path
         id="path424"
         style="fill:#233862;fill-opacity:1;fill-rule:nonzero;stroke:none"
         d="m 12497.9,3627.1 c -23,-26.3 -26,-55.8 -14.6,-87.2 0,-0.1 0.1,-0.3 0.2,-0.4 25.8,-58.1 93.6,-122.7 171.6,-187.4 10.2,-8.5 19.2,-16.2 27.3,-23.5 2.1,-1.8 4.2,-3.7 6.1,-5.5 1.7,-1.5 3.2,-3 4.8,-4.3 75.3,-69.4 46.9,-85.3 182.2,-226.2 154.3,-160.5 260.5,-163.4 290.7,-148.8 25.6,12.5 -26.3,97.6 -83.9,193.3 -30,11 -169.5,67.7 -275,202.6 -92.9,118.5 -154.8,270.8 -218.1,359.1 -3.5,-2.2 -7,-4.4 -10.4,-6.7 -28.7,-19 -57.9,-38.6 -80.9,-65" /><path
         id="path426"
         style="fill:#ffb27d;fill-opacity:1;fill-rule:nonzero;stroke:none"
         d="m 14881.6,3811.8 c 18.3,-91.3 148.4,-76.1 293.7,-40.5 145.3,35.5 110.8,-6.8 317.6,16.1 206.8,22.9 269.5,100.1 275.8,130.8 5.6,27.3 -96.6,36.9 -206.2,49.5 -13.8,1.6 -27.6,3.3 -41.5,5 -123.7,15.5 -214.3,95.4 -326.8,161 -106.5,62.1 -265.4,315.2 -265.4,315.2 l -283.6,-22.4 c 0,0 148.8,-226.1 206.4,-324.4 33.9,-57.8 32.1,-134.3 27.9,-193.3 -2.2,-32.1 -4.3,-64.9 2.1,-97" /><path
         id="path428"
         style="fill:#233862;fill-opacity:1;fill-rule:nonzero;stroke:none"
         d="m 15175.3,3771.3 c 145.3,35.5 110.8,-6.8 317.6,16.1 206.8,22.9 269.5,100.1 275.8,130.8 5.6,27.3 -96.6,36.9 -206.2,49.5 l -1,-2.1 c 0,0 -124,-87.9 -296.2,-92 -140.3,-3.4 -288.9,36.8 -385.8,35.2 -2.2,-32.1 -4.3,-64.9 2.1,-97 18.3,-91.3 148.4,-76.1 293.7,-40.5" /><path
         id="path430"
         style="fill:#233862;fill-opacity:1;fill-rule:nonzero;stroke:none"
         d="m 13794.6,5625.5 -265.1,-713.5 -346.2,-931.7 c 0,0 -93.9,-9 -183.9,16.8 -82.8,24 -177.9,86.6 -177.9,86.6 0,0 96.2,1000.3 275.5,1574.5 45.9,147.4 97.4,266.6 154.3,333.8 277.9,328.5 543.3,-366.5 543.3,-366.5" /><path
         id="path432"
         style="fill:#2b478b;fill-opacity:1;fill-rule:nonzero;stroke:none"
         d="m 13525,6758.6 c -173.7,56 -669.1,-15.9 -1166.8,-113.3 l -104.2,171.9 -1075.1,83.9 c 0,0 -354.7,-786.7 -160.5,-1287.9 28.6,-73.7 85.3,-120.9 182,-122.5 0,0 15.6,0 15.7,0 0,0 639.8,0.4 847.5,0.4 534.7,0 1131.5,367.5 1208.7,382.9 126.4,25.3 176.9,-227.5 303.3,-492.8 126.4,-265.4 1187.9,-1175.3 1187.9,-1175.3 0,0 163.1,-1.6 230.5,23.7 72.5,27.2 99,62.5 99,62.5 0,0 -1176.2,2340.1 -1568,2466.5" /><path
         id="path434"
         style="fill:#233862;fill-opacity:1;fill-rule:nonzero;stroke:none"
         d="m 12211.7,9947.4 c -137.7,72.3 -347.3,82.1 -381.3,86.7 -407.4,54.7 -652.6,-537.2 -667,-716.6 -26.6,-330.6 -201.5,-381 -447.6,-588 -493.6,-415.2 -348.9,-897.6 -79,-1076.8 162,-107.6 447.4,0 447.4,0 4,-2.8 780.6,434.1 1163.4,644.9 573.9,81.6 315,1465.5 -35.9,1649.8" /><path
         id="path436"
         style="fill:#ffb27d;fill-opacity:1;fill-rule:nonzero;stroke:none"
         d="m 11926.8,8477 c 1.7,-1.1 -188.4,-65.9 -315.4,-9.7 -119.6,52.9 -210.1,249.5 -208.4,249.6 54.4,2.5 114.1,50.1 160.1,362.1 l 23.2,-8.4 389.3,-140.1 c 0,0 -28.2,-124.9 -46.5,-243.8 -15.3,-99.9 -23.6,-195.6 -2.3,-209.7" /><path
         id="path438"
         style="fill:#ed975d;fill-opacity:1;fill-rule:nonzero;stroke:none"
         d="m 11975.6,8930.5 c 0,0 -28.2,-124.9 -46.5,-243.8 -223.6,40.2 -311.4,263 -342.8,383.9 l 389.3,-140.1" /><path
         id="path440"
         style="fill:#ffb27d;fill-opacity:1;fill-rule:nonzero;stroke:none"
         d="m 12033.6,8806.5 c 0,0 -532.7,71.6 -483.1,402.6 49.6,331 14.3,563.2 356.5,531.6 342.2,-31.7 389.2,-167.9 399.5,-282.4 10.3,-114.5 -133.1,-661.8 -272.9,-651.8" /><path
         id="path442"
         style="fill:#233862;fill-opacity:1;fill-rule:nonzero;stroke:none"
         d="m 12287.1,9639.7 c 0,0 -341,-293.8 -572.9,-317.5 -232,-23.7 -319.8,50.8 -319.8,50.8 0,0 136.7,113.5 219,296.7 24.2,54 75.5,91 134.5,96.1 165.6,14.3 479.5,20.8 539.2,-126.1" /><path
         id="path444"
         style="fill:#233862;fill-opacity:1;fill-rule:nonzero;stroke:none"
         d="m 12074,9666.1 c 0,0 114,-110.3 150,-192.1 34.6,-79 45,-267.8 17.4,-342.8 0,0 177.8,345.6 77.1,513.5 -106.7,178.1 -244.5,21.4 -244.5,21.4" /><path
         id="path446"
         style="fill:#ffffff;fill-opacity:1;fill-rule:nonzero;stroke:none"
         d="m 12375.3,7692.3 c -16.1,-1078.3 -4.4,-852.9 -122.3,-955.3 -28.5,-24.6 -108.4,-39.3 -213.5,-46.2 -330.7,-22 -911.9,32.5 -934,93.6 -76.3,211.4 -22.4,277.1 -86,600.8 -6.7,34.4 -14.9,71.7 -24.5,112.3 -53.1,222.3 -104.7,297.9 83.5,655.1 170.7,323.5 348,586.1 364,576.6 450.3,-267.3 486.6,-42.6 486.6,-42.6 0,0 454.1,-468.3 446.2,-994.3" /><path
         id="path448"
         style="fill:#2b478b;fill-opacity:1;fill-rule:nonzero;stroke:none"
         d="m 13529.5,4912 -346.2,-931.7 c 0,0 -93.9,-9 -183.9,16.8 -82.8,24 -177.9,86.6 -177.9,86.6 0,0 96.2,1000.3 275.5,1574.5 l 432.5,-746.2" /><path
         id="path450"
         style="fill:#ffffff;fill-opacity:1;fill-rule:nonzero;stroke:none"
         d="m 11929.1,8686.7 c 0,0 463.4,-78.6 517.8,-278.1 54.4,-199.5 374.6,-1372.3 374.6,-1372.3 0,0 -235.5,-42.4 -344.4,66.4 -108.8,108.9 -378.6,1009.7 -378.6,1009.7 l -169.4,574.3" /><path
         id="path452"
         style="fill:#ebf3ff;fill-opacity:1;fill-rule:nonzero;stroke:none"
         d="m 12039.5,6690.8 c -330.7,-22 -911.9,32.5 -934,93.6 -76.3,211.4 -22.4,277.1 -86,600.8 l 159.4,449.1 c 0,0 -26.3,-500.1 121.1,-631.6 147.4,-131.5 603.8,-253.9 675.5,-363.8 34.6,-52.8 57.4,-105.6 64,-148.1" /><path
         id="path454"
         style="fill:#ffb27d;fill-opacity:1;fill-rule:nonzero;stroke:none"
         d="m 11660.7,6901.1 c 0,0 326.2,72.6 378.8,43.7 52.6,-29 181.2,-134.4 197.4,-171.1 16.1,-36.7 -117.2,27.9 -160.6,39.5 -28,7.5 -102,-18.1 -138.5,-30.3 -154,-51.4 -248.3,-25 -248.3,-25 l -28.8,143.2" /><path
         id="path456"
         style="fill:#ffffff;fill-opacity:1;fill-rule:nonzero;stroke:none"
         d="m 11442.2,8729.5 c 0,0 -438,-27 -589.6,-238.5 -213.5,-297.7 -636.9,-1566.3 -394.2,-1735.6 273.3,-190.5 1243.7,-49.8 1243.7,-49.8 0,0 32.3,150.9 -12.6,224 -45,73 -775.1,190.9 -808.8,224.6 -33.7,33.7 421.2,657.2 421.2,758.3 0,101.1 140.3,817 140.3,817" /><path
         id="path458"
         style="fill:#ffb27d;fill-opacity:1;fill-rule:nonzero;stroke:none"
         d="m 12055.3,6854 c 0,0 68.3,-88.2 90.7,-98.7 22.4,-10.5 36.9,-7.9 36.9,-7.9 l -46,82.9 -81.6,23.7" /><path
         id="path460"
         style="fill:#ffb27d;fill-opacity:1;fill-rule:nonzero;stroke:none"
         d="m 12039.5,6944.8 198.7,-96.5 c 0,0 -8.5,-13.8 -32.9,-12.7 -24.5,1.1 -86.2,23.7 -86.2,23.7 l -79.6,85.5" /><path
         id="path462"
         style="fill:#f99746;fill-opacity:1;fill-rule:nonzero;stroke:none"
         d="m 12146,6620.2 h 1571.9 l 472.9,1175.9 H 12621.3 L 12146,6620.2" /><path
         id="path464"
         style="fill:#ed7d2b;fill-opacity:1;fill-rule:nonzero;stroke:none"
         d="m 13736.3,6666.1 h -2075.6 v -45.9 h 2057.2 l 18.4,45.9" /><path
         id="path466"
         style="fill:#ffffff;fill-opacity:1;fill-rule:nonzero;stroke:none"
         d="m 13321.1,7208.2 c 11.9,41.3 -12,74.8 -53.4,74.8 -41.3,0 -84.4,-33.5 -96.3,-74.8 -11.8,-41.3 12.1,-74.9 53.4,-74.9 41.4,0 84.5,33.6 96.3,74.9" /><g
         transform="scale(1.25209)"
         id="g468"><path
           id="path470"
           style="fill:#78acea;fill-opacity:1;fill-rule:nonzero;stroke:none"
           d="m 16257.5,2298.65 h 3.7 c 21.5,0 38.8,18.76 38.3,41.53 l -58.1,2665.95 -171.1,21.16 145.9,-2687.27 c 1.3,-23.25 19.4,-41.37 41.3,-41.37" /></g><path
         id="path472"
         style="fill:#78acea;fill-opacity:1;fill-rule:nonzero;stroke:none"
         d="m 11668.5,2878.1 h -4.6 c -26.9,0 -48.6,23.5 -48,52 l 72.8,3338 214.2,26.5 -182.7,-3364.7 c -1.6,-29.1 -24.3,-51.8 -51.7,-51.8" /><g
         transform="scale(1.27299)"
         id="g474"><path
           id="path476"
           style="fill:#78acea;fill-opacity:1;fill-rule:nonzero;stroke:none"
           d="M 16193.2,4875.67 H 8991.72 c -59,0 -106.84,47.84 -106.84,106.84 v 102.75 c 0,58.99 47.84,106.83 106.84,106.83 h 7201.48 c 59,0 106.8,-47.84 106.8,-106.83 v -102.75 c 0,-59 -47.8,-106.84 -106.8,-106.84" /></g><path
         id="path478"
         style="fill:#dfedfb;fill-opacity:1;fill-rule:nonzero;stroke:none"
         d="m 9448.47,12330.4 c -34.63,857.1 683.73,1237.9 1418.33,1237.9 734.5,0 1533.9,-190.3 1603.1,-1330 44.6,-733.2 -346.3,-1184.3 -1471.7,-1184.3 -379.6,0 -674.6,59.9 -900.6,166.6 l -562.56,-499.9 276.47,691 c -244.91,227.7 -348.09,548.9 -363.04,918.7" /><g
         transform="scale(1.63426)"
         id="g480"><path
           id="path482"
           style="fill:#233862;fill-opacity:1;fill-rule:nonzero;stroke:none"
           d="m 15997.1,1763.36 c 0,0 12.6,98.52 41.9,157.08 29.3,58.62 215.7,21.35 215.7,21.35 0,0 37.3,-32 45.3,-181.12 l -302.9,2.69" /></g><g
         transform="scale(1.54461)"
         id="g484"><path
           id="path486"
           style="fill:#233862;fill-opacity:1;fill-rule:nonzero;stroke:none"
           d="m 16253.7,1867.13 c 46.3,28.3 20,239.29 20,239.29 0,0 -216,172.73 -245.7,40.46 -29.6,-132.27 -205.1,-191.63 -305,-207.82 -68.9,-11.2 -90.2,-49.33 -96.8,-71.93 h 627.5" /></g><g
         transform="scale(1.61306)"
         id="g488"><path
           id="path490"
           style="fill:#213f7a;fill-opacity:1;fill-rule:nonzero;stroke:none"
           d="m 15992.3,3257.42 c -8.4,-46.37 -13.7,-84.44 -15.2,-111.71 -19.2,-374.88 -315.6,-1232.13 -368.6,-1252.1 -82,-30.93 -211.1,34.84 -278.7,56.36 -28,8.92 -46.9,37.19 -40.7,65.83 146.8,674.75 200.7,1646.32 220.4,2221.56 9.9,289.7 59.6,489.82 59.6,489.82 0,0 722.8,192.86 727.1,-51.08 3.8,-215.87 -239.4,-1062.52 -303.9,-1418.68" /></g><g
         transform="scale(1.61306)"
         id="g492"><path
           id="path494"
           style="fill:#233862;fill-opacity:1;fill-rule:nonzero;stroke:none"
           d="m 15992.3,3257.42 -482.8,979.94 c 9.9,289.7 59.6,489.82 59.6,489.82 0,0 722.8,192.86 727.1,-51.08 3.8,-215.87 -239.4,-1062.52 -303.9,-1418.68" /></g><g
         transform="scale(1.65212)"
         id="g496"><path
           id="path498"
           style="fill:#213f7a;fill-opacity:1;fill-rule:nonzero;stroke:none"
           d="m 15457.1,4564.67 373.1,-2703.97 c 0,0 163.8,-39.53 291.2,-7.93 0,0 109.3,1438.15 100.2,1785.82 -9.1,347.68 78.4,930.32 -20,994.54 -98.3,64.28 -744.5,-68.46 -744.5,-68.46" /></g><g
         transform="scale(1.64971)"
         id="g500"><path
           id="path502"
           style="fill:#b0d0ff;fill-opacity:1;fill-rule:nonzero;stroke:none"
           d="m 16298.2,4616.52 c 1.8,-24.49 -13.8,-46.73 -37.4,-53.58 -52.1,-15.1 -112.2,-25.65 -228.1,-49.65 -108.9,-22.61 -255.3,-42.61 -435.2,-43.77 -286.3,-1.81 -394.6,96.87 -394.6,96.87 -12.4,-0.24 6.5,59.65 23.5,344.43 5.7,96.5 11.2,218.76 15.2,373.34 3.7,139.05 6.1,304.29 6.3,500.27 0.3,235.8 365.3,489.44 372,489.44 l 0.1,-0.11 c 0,-33.95 53.5,-96.59 135.9,-102 97.8,-6.39 217.8,42.28 217.8,98.61 0,0.57 176.8,-282.88 239.6,-584.87 31.8,-151.97 18.9,-147.9 84.9,-1068.98" /></g><g
         transform="scale(1.58088)"
         id="g504"><path
           id="path506"
           style="fill:#b0d0ff;fill-opacity:1;fill-rule:nonzero;stroke:none"
           d="m 16300,6547.01 c 0,0 -354.2,3 -439.4,-116.52 -85.2,-119.56 -272,-762.56 -174.6,-976.49 97.6,-214 280,88.49 381.3,219.56 101.3,131.07 232.7,873.45 232.7,873.45" /></g><g
         transform="scale(1.61707)"
         id="g508"><path
           id="path510"
           style="fill:#ffb27d;fill-opacity:1;fill-rule:nonzero;stroke:none"
           d="m 15931.6,6453.3 0.2,-35.79 c 0,0 -9.8,-111.92 128.1,-128.27 137.8,-16.38 240.1,20.9 236.3,107.28 -12.4,66.87 -23.9,135.54 -24.8,190.87 -0.3,20.57 1.1,42.38 4.9,67.02 l -267.1,5.34 -78.6,-12.85 1,-193.6" /></g><g
         transform="scale(1.61472)"
         id="g512"><path
           id="path514"
           style="fill:#e2915a;fill-opacity:1;fill-rule:nonzero;stroke:none"
           d="m 15953.8,6656.57 1,-193.88 c 28.4,-13.2 60.4,-21.27 96.4,-21.27 122.9,0 202.4,90.14 243.8,155.55 -0.3,20.6 1.2,42.45 5,67.12 l -267.5,5.35 -78.7,-12.87" /></g><g
         transform="scale(1.62774)"
         id="g516"><path
           id="path518"
           style="fill:#ffb27d;fill-opacity:1;fill-rule:nonzero;stroke:none"
           d="m 16190,6653.52 c -30.7,-165.68 -244.5,-160.23 -336.9,-149.82 -26,2.89 -42.4,6.21 -42.4,6.21 -29.3,7.83 -45.7,54 -53.2,114.48 -15.1,119.69 3.9,295.39 24.1,340.32 30.5,67.63 87.8,140.76 303.1,87.99 215.3,-52.81 144.8,-186.92 105.3,-399.18" /></g><g
         transform="scale(1.55614)"
         id="g520"><path
           id="path522"
           style="fill:#98baf4;fill-opacity:1;fill-rule:nonzero;stroke:none"
           d="m 16191.2,6164.29 c 0,0 -139.1,-307.3 -135.1,-399.45 0,0 68.9,2.38 135.1,-17.35 108.8,-32.39 0,416.8 0,416.8" /></g><g
         transform="scale(1.63266)"
         id="g524"><path
           id="path526"
           style="fill:#233862;fill-opacity:1;fill-rule:nonzero;stroke:none"
           d="m 15668.2,7100.94 c 0,0 94.5,7.27 205.9,55.72 90.4,39.32 204.5,-3.98 241.6,-23.49 -1,5.96 -3.4,14.11 -9.1,22.28 0,0 16.7,-11.79 19.1,-28.27 1.8,-1.26 2.5,-2.14 2.1,-2.43 0,0 18.8,3.45 31,-2 0,0 -8.6,1.21 -11.6,-4.24 -0.3,-0.58 -0.8,-1.07 -1.3,-1.5 141.1,-68.17 154.1,-291.12 108.7,-342.71 -54.6,-62.07 -137.1,-202.51 -137.1,-202.51 0,0 -6.9,33.69 3,88.31 10,54.61 -37.2,54.61 -96.8,79.44 -59.6,24.83 -9.9,94.34 -62.1,136.55 -52.1,42.21 -243.3,17.38 -240.8,49.65 -71,25.85 -52.6,167.94 -52.6,175.2" /></g><g
         transform="scale(1.62108)"
         id="g528"><path
           id="path530"
           style="fill:#98baf4;fill-opacity:1;fill-rule:nonzero;stroke:none"
           d="m 16300,5364.76 c -56.4,-226.4 -666.2,-343.42 -804.8,-367.23 5.9,98.21 11.5,222.63 15.6,379.94 l 789.2,-12.71" /></g><g
         transform="scale(1.63644)"
         id="g532"><path
           id="path534"
           style="fill:#ffb27d;fill-opacity:1;fill-rule:nonzero;stroke:none"
           d="m 16014.4,5241.5 c 5.8,0 134.3,19.18 157.3,30.67 23,11.55 128.3,161.14 59.4,199.52 -69,38.37 -254.1,-115.07 -254.1,-115.07 l 37.4,-115.12" /></g><g
         transform="scale(1.61353)"
         id="g536"><path
           id="path538"
           style="fill:#b0d0ff;fill-opacity:1;fill-rule:nonzero;stroke:none"
           d="m 15449,5270.87 c 0,0 504.1,-27.39 842.4,45.06 0,0 8.6,97.74 -97.7,141.18 0,0 -527.3,111.74 -654,80.63 -126.7,-31.11 -90.7,-266.87 -90.7,-266.87" /></g><g
         transform="scale(1.66869)"
         id="g540"><path
           id="path542"
           style="fill:#b0d0ff;fill-opacity:1;fill-rule:nonzero;stroke:none"
           d="m 16057.8,5479.22 c -101.1,-122.01 -233.4,-221.61 -379.2,-244.93 v 0 c -1.2,1.86 -44.2,67.06 -36.1,162.83 3.7,44.34 18.4,95.22 53.1,149.46 10.6,16.66 20.2,36.13 28.6,57.76 79.7,203.16 67.8,594.71 67.8,594.71 0,0 338.1,-35.41 443.5,-185.92 64.5,-92.19 -17.8,-341.07 -177.7,-533.91" /></g><g
         transform="scale(1.58318)"
         id="g544"><path
           id="path546"
           style="fill:#e2915a;fill-opacity:1;fill-rule:nonzero;stroke:none"
           d="m 16299.2,6686.75 c -26.7,2.97 -43.5,6.38 -43.5,6.38 -30.1,8.05 -47,55.52 -54.7,117.7 56.4,-13.91 82.3,-57.58 93.1,-76.18 4.9,-8.36 5.9,-27.12 5.1,-47.9" /></g><g
         transform="scale(1.58222)"
         id="g548"><path
           id="path550"
           style="fill:#ffb27d;fill-opacity:1;fill-rule:nonzero;stroke:none"
           d="m 16165.4,6594.39 c 0,0 -123.1,203.22 -27.3,212.06 95.7,8.84 134.2,-55.97 148.1,-79.78 13.8,-23.81 -3.6,-131.22 -3.6,-131.22 l -117.2,-1.06" /></g><g
         transform="scale(1.61514)"
         id="g552"><path
           id="path554"
           style="fill:#b0d0ff;fill-opacity:1;fill-rule:nonzero;stroke:none"
           d="m 16295.8,5582.73 c -3.7,-25.2 -11.3,-48.42 -20.6,-69.09 -29.4,-65.45 -76.8,-105.82 -76.8,-105.82 h -0.1 c -313.2,141.48 -376.6,627.07 -387.3,893.92 -4.3,107.25 0,179.17 0,179.17 141.4,46.8 181.1,-34.52 181.1,-34.52 0,0 166.9,-396.89 253.4,-656.25 33.1,-99.24 54.5,-178.37 50.3,-207.41" /></g><g
         transform="scale(1.6439)"
         id="g556"><path
           id="path558"
           style="fill:#98baf4;fill-opacity:1;fill-rule:nonzero;stroke:none"
           d="M 16300,5561.85 C 16197.3,5438 16063.1,5336.9 15915.1,5313.23 h -0.1 c -307.8,139 -370.1,616.1 -380.6,878.28 0,0 145.7,-528.32 344,-713 35.8,-33.4 73.4,-55.54 112.2,-61.32 0,0 250,70.63 302.4,137.18 3.7,4.8 6,7.18 7,7.48" /></g><g
         transform="scale(1.07843)"
         id="g560"><path
           id="path562"
           style="fill:#2b478b;fill-opacity:1;fill-rule:nonzero;stroke:none"
           d="m 16300,6128.82 h -1457.6 l -438.5,1090.38 h 1455.4 L 16300,6128.82" /></g><g
         transform="scale(1.1082)"
         id="g564"><path
           id="path566"
           style="fill:#2b478b;fill-opacity:1;fill-rule:nonzero;stroke:none"
           d="M 14427.1,6005.49 H 16300 v -41.33 h -1856.3 l -16.6,41.33" /></g><g
         transform="scale(1.01625)"
         id="g568"><path
           id="path570"
           style="fill:#ffffff;fill-opacity:1;fill-rule:nonzero;stroke:none"
           d="m 16141.1,7082.35 c -11.7,40.73 11.8,73.7 52.5,73.7 40.7,0 83.1,-32.97 94.8,-73.7 11.6,-40.64 -11.9,-73.61 -52.6,-73.61 -40.7,0 -83.1,32.97 -94.7,73.61" /></g><g
         transform="scale(1.86073)"
         id="g572"><path
           id="path574"
           style="fill:#2e3552;fill-opacity:1;fill-rule:nonzero;stroke:none"
           d="m 16300,1562.77 v -5.37 c 0,-8.6 -8,-15.64 -17.6,-15.64 H 785.902 c -9.653,0 -17.601,7.04 -17.601,15.64 v 5.37 c 0,8.6 7.948,15.7 17.601,15.7 H 16282.4 c 9.6,0 17.6,-7.1 17.6,-15.7" /></g></g></g></svg>