<?xml version="1.0" encoding="UTF-8" standalone="no"?>
<svg
   xmlns:dc="http://purl.org/dc/elements/1.1/"
   xmlns:cc="http://creativecommons.org/ns#"
   xmlns:rdf="http://www.w3.org/1999/02/22-rdf-syntax-ns#"
   xmlns:svg="http://www.w3.org/2000/svg"
   xmlns="http://www.w3.org/2000/svg"
   viewBox="0 0 4266.6665 2666.6667"
   height="2666.6667"
   width="4266.6665"
   xml:space="preserve"
   id="svg2"
   version="1.1"><metadata
     id="metadata8"><rdf:RDF><cc:Work
         rdf:about=""><dc:format>image/svg+xml</dc:format><dc:type
           rdf:resource="http://purl.org/dc/dcmitype/StillImage" /></cc:Work></rdf:RDF></metadata><defs
     id="defs6" /><g
     transform="matrix(1.3333333,0,0,-1.3333333,0,2666.6667)"
     id="g10"><g
       transform="scale(0.1)"
       id="g12"><g
         transform="scale(1.96319)"
         id="g14"><path
           id="path16"
           style="fill:#ffffff;fill-opacity:1;fill-rule:nonzero;stroke:none"
           d="M 16300,0 H 0 V 10187.5 H 16300 V 0" /></g><g
         transform="scale(1.90943)"
         id="g18"><path
           id="path20"
           style="fill:#ebf3fa;fill-opacity:1;fill-rule:nonzero;stroke:none"
           d="m 16296.8,4640.34 c -17.2,-582.79 -147.7,-1403.67 -407,-2021.55 -8.5,-20.21 -17,-40.17 -25.8,-59.91 -51,-114.96 -106.6,-222 -167.1,-318.16 -16.8,-26.92 -34.1,-53 -51.8,-78.14 -83.7,-119.35 -176,-217.86 -277,-288.51 -34,-23.94 -69.1,-44.62 -105.3,-61.8 -0.4,-0.21 -0.8,-0.42 -1.2,-0.53 -0.8,-0.47 -1.6,-0.83 -2.4,-1.2 -1.3,-0.63 -2.6,-1.2 -3.9,-1.78 -17.5,-8.17 -35.1,-15.45 -53,-21.89 l -976.7,-5.19 -1382.4,-7.38 -308.7,-1.62 -3402.4,9.89 -4902.1,13.99 -19.74,0.05 -2684.87,7.7 c 0,0 -677.298,433.22 -951.699,1211.77 -7.046,20.06 -13.895,40.33 -20.374,60.86 -61.731,193.99 -97.753,408.29 -92.661,641.66 16.91,777.09 242.47,2417.62 2606.044,2801.09 2216.71,359.65 1627.3,2647.6 4895.94,2422.79 1289.71,-88.7 1861.97,-969.24 2858.76,-734.63 2667.1,627.64 4016.1,31.43 4727.5,-998.28 v -0.07 l 5,-7.1 c 23.6,-34.58 46.6,-69.59 68.9,-105.05 92.8,-147.35 173.5,-302.5 244.3,-463.37 49.8,-113.16 94.6,-229.08 135.1,-347.2 5.9,-17.29 11.8,-34.64 17.5,-51.99 0.1,-0.38 0.3,-0.76 0.4,-1.13 0,-0.07 0,-0.19 0,-0.25 53,-160.18 98.2,-324.07 137.3,-489.65 6.7,-28.23 13.2,-56.52 19.5,-84.81 v -0.06 c 9.2,-41.68 18.2,-83.36 26.7,-125.16 v -0.07 c 6.3,-30.23 12.3,-60.41 18.2,-90.65 6.1,-31.87 12.1,-63.74 17.9,-95.61 12.6,-70.22 24.5,-140.4 35.7,-210.53 8.9,-56.61 15.4,-122.28 19.2,-195.6 4.7,-89.87 5.4,-191.16 2.2,-300.93" /></g><g
         transform="scale(1.73075)"
         id="g22"><path
           id="path24"
           style="fill:#f8fcff;fill-opacity:1;fill-rule:nonzero;stroke:none"
           d="m 13689.2,7325.17 c 0,0 130.5,292.25 442.7,259.78 0,0 453.2,487.09 936.4,64.94 0,0 513.8,104.6 894.2,-90.57 253.7,-130.12 337.5,-266.62 337.5,-266.62 l -2610.8,32.47" /></g><g
         transform="scale(1.13261)"
         id="g26"><path
           id="path28"
           style="fill:#f8fcff;fill-opacity:1;fill-rule:nonzero;stroke:none"
           d="m 11692.2,12703.6 c 0,0 230.5,450.2 781.4,400.2 0,0 799.8,750.4 1652.7,100.1 0,0 906.7,161.1 1578.2,-139.6 447.6,-200.4 595.5,-410.7 595.5,-410.7 l -4607.8,50" /></g><g
         transform="scale(1.25996)"
         id="g30"><path
           id="path32"
           style="fill:#f8fcff;fill-opacity:1;fill-rule:nonzero;stroke:none"
           d="m 13561.7,10361.3 c 0,0 137,267.5 464.3,237.8 0,0 475.4,446 982.2,59.5 0,0 538.8,95.7 937.9,-83 266,-119.1 353.9,-244.1 353.9,-244.1 l -2738.3,29.8" /></g><path
         id="path34"
         style="fill:#a8d29f;fill-opacity:1;fill-rule:nonzero;stroke:none"
         d="m 7619.65,3430.5 -4813.02,14.7 c 0,0 -1214.17,827.2 -1706.02,2313.8 1773.59,-502.7 2396.71,-1828.9 3017.31,-1614.7 660.2,227.7 3443.17,227.9 3501.73,-713.8" /><g
         transform="scale(1.90026)"
         id="g36"><path
           id="path38"
           style="fill:#a8d29f;fill-opacity:1;fill-rule:nonzero;stroke:none"
           d="m 16300,5469.27 c -12.9,-143.39 -31,-315.51 -52.5,-505.85 -10.8,-95.31 -22.4,-195.19 -34.7,-298.28 -72.9,-612.02 -169.3,-1338.5 -246.3,-1904 -8.9,-65.62 -17.7,-129.08 -26,-189.92 -65.5,-147.82 -138.7,-282.7 -219.9,-398.21 -84.1,-119.93 -176.9,-218.91 -278.4,-289.9 -34.2,-24.05 -69.4,-44.84 -105.8,-62.1 h -1706.6 l -667.6,0.05 h -2215.8 c 0,0 -103.8,399.95 554,419.1 1158.8,33.73 510.8,576.77 1215.2,594.39 61.2,1.58 132.6,-0.89 216.4,-7.94 79.4,-6.74 156.3,-3.48 230.2,8.31 16.5,2.58 32.9,5.63 49,9.11 14.2,3.05 28.2,6.31 42.1,10.05 1.7,0.37 3.5,0.79 5.2,1.31 24.4,6.48 48.6,13.9 72.4,22.26 4.9,1.69 9.8,3.37 14.6,5.16 34.9,12.84 69,27.42 102.3,43.78 29.3,14.26 57.9,29.89 85.9,46.68 13.9,8.32 27.7,16.95 41.2,25.84 5.2,3.32 10.3,6.73 15.5,10.21 4.9,3.37 9.9,6.79 15,10.26 37.8,26.31 74.4,54.68 109.5,84.83 2.8,2.32 5.5,4.74 8.2,7.1 2.8,2.32 5.5,4.69 8.1,7.06 7.6,6.68 15.1,13.42 22.6,20.26 12.2,11.26 24.3,22.63 36.1,34.26 27.1,26.36 53,53.67 78.2,81.77 19.7,22.05 38.8,44.52 57.3,67.47 58.2,71.99 110.4,147.66 156.3,224.12 188.9,315.44 268.9,644.23 208.9,780.69 -0.3,0.73 -0.7,1.57 -1,2.31 0,0.11 -0.1,0.11 -0.1,0.16 -18.1,39.2 -48.1,61.89 -91,62.83 -83.8,1.84 -178.4,7.74 -273.1,24.52 -325.4,57.63 -651.5,244.13 -543.2,839.68 140,768.82 745.9,603.57 945.2,934 199.3,330.49 473.4,729.84 1188.8,654.1 261.6,-27.66 469.9,-83.7 627.5,-178.77 50,-113.7 95,-230.17 135.7,-348.87 5.9,-17.37 11.8,-34.8 17.6,-52.24 0.1,-0.38 0.2,-0.76 0.3,-1.14 0.1,-0.06 0.1,-0.18 0.1,-0.25 53.2,-160.95 98.7,-325.63 138,-492.01 6.7,-28.36 13.2,-56.79 19.5,-85.21 v -0.07 c 9.3,-41.87 18.3,-83.76 26.9,-125.76 v -0.07 c 6.3,-30.38 12.3,-60.7 18.2,-91.08" /></g><g
         transform="scale(1.86138)"
         id="g40"><path
           id="path42"
           style="fill:#f9ddbf;fill-opacity:1;fill-rule:nonzero;stroke:none"
           d="M 14012.1,5063.29 V 1855.45 h 1637 c 1.3,0.59 2.7,1.18 4,1.83 0.8,0.37 1.6,0.75 2.5,1.23 h 109.2 v 0.54 h -108 c 37.1,17.62 73.1,38.84 108,63.4 103.6,72.47 198.3,173.52 284.2,295.96 82.9,117.92 157.6,255.62 224.5,406.52 9,20.26 17.8,40.73 26.5,61.46 v 2376.9 h -2287.9" /></g><g
         transform="scale(1.90943)"
         id="g44"><path
           id="path46"
           style="fill:#fff3e9;fill-opacity:1;fill-rule:nonzero;stroke:none"
           d="m 16296.8,4640.34 c -17.2,-582.79 -147.7,-1403.67 -407,-2021.55 v 2317.08 l 23.6,0.26 256.1,3.46 125.1,1.68 c 4.7,-89.87 5.4,-191.16 2.2,-300.93" /></g><g
         transform="scale(1.89501)"
         id="g48"><path
           id="path50"
           style="fill:#ed9f4a;fill-opacity:1;fill-rule:nonzero;stroke:none"
           d="m 16280.4,5787.47 c 6.7,-28.44 13.3,-56.94 19.6,-85.45 v -0.06 l -16.7,-34.27 -337.1,-694.25 -76.8,-158.05 -23.8,-48.81 v -0.05 h -2236.8 l 154.7,200.47 5,6.44 1000.5,1309.06 5.9,-5.57 674.3,2.02 381,1.2 311.8,0.95 c 0.1,-0.06 0.1,-0.19 0.1,-0.25 53.3,-161.4 98.9,-326.53 138.3,-493.38" /></g><g
         transform="scale(1.89814)"
         id="g52"><path
           id="path54"
           style="fill:#f9ddbf;fill-opacity:1;fill-rule:nonzero;stroke:none"
           d="m 16300,5566.64 v -0.07 l -291.9,-601.08 -0.2,-0.26 -23.6,-48.63 v -0.05 l -76.7,-157.84 h -2233.2 l 66.3,85.93 0.1,0.05 93.1,120.54 959.2,1242.26 45.6,59.13 585.3,1.77 380.3,1.14 311.1,0.95 c 53.3,-161.13 98.8,-326 138.1,-492.56 6.7,-28.4 13.3,-56.85 19.6,-85.31 v -0.07 c 9.3,-41.92 18.3,-83.85 26.9,-125.9" /></g><g
         transform="scale(1.90943)"
         id="g56"><path
           id="path58"
           style="fill:#ed9f4a;fill-opacity:1;fill-rule:nonzero;stroke:none"
           d="m 16294.6,4941.27 c -3.8,73.32 -10.3,138.99 -19.2,195.6 -11.2,70.13 -23.1,140.31 -35.7,210.53 -5.8,31.87 -11.8,63.74 -17.9,95.61 -5.9,30.24 -11.9,60.42 -18.2,90.65 v 0.07 c -8.5,41.8 -17.5,83.48 -26.7,125.16 v 0.06 c -6.3,28.29 -12.8,56.58 -19.5,84.81 -39.1,165.58 -84.3,329.47 -137.3,489.65 0,0.06 0,0.18 0,0.25 -0.1,0.37 -0.3,0.75 -0.4,1.13 l -691.7,0.06 -670.6,0.19 5,-6.72 43.2,-57.52 926.2,-1234.93 117.7,-156.85 36.4,-48.45 62.6,-83.48 41.3,-0.62 245.2,-3.72 161.8,-2.41 c 3.2,109.77 2.5,211.06 -2.2,300.93" /></g><g
         transform="scale(1.70345)"
         id="g60"><path
           id="path62"
           style="fill:#efcdaf;fill-opacity:1;fill-rule:nonzero;stroke:none"
           d="m 16086.5,5923.39 h -35.9 c -121.8,0 -220.6,-98.81 -220.6,-220.68 v -560.74 h 470 v 567.9 c 0,117.94 -95.6,213.52 -213.5,213.52" /></g><g
         transform="scale(1.70488)"
         id="g64"><path
           id="path66"
           style="fill:#fff3e9;fill-opacity:1;fill-rule:nonzero;stroke:none"
           d="m 16272.6,5697.75 h -442.3 v 0.23 c 0,113.97 92.8,206.78 206.9,206.78 h 35.8 c 110.1,0 199.6,-89.58 199.6,-199.68 z m -442.3,-34.43 h 198.8 v -511.94 h -198.8 z m 442.3,-511.94 h -208.4 v 511.94 h 208.4 z m -199.6,780.69 h -35.8 c -129.1,0 -234.2,-105.04 -234.2,-234.09 v -573.99 h 497 v 581.09 c 0,125.17 -101.8,226.99 -227,226.99" /></g><g
         transform="scale(1.77969)"
         id="g68"><path
           id="path70"
           style="fill:#efcdaf;fill-opacity:1;fill-rule:nonzero;stroke:none"
           d="m 16095.7,5669.67 h -34.4 c -116.6,0 -211.2,-94.59 -211.2,-211.24 v -536.72 h 449.9 v 543.58 c 0,112.88 -91.5,204.38 -204.3,204.38" /></g><g
         transform="scale(1.78113)"
         id="g72"><path
           id="path74"
           style="fill:#fff3e9;fill-opacity:1;fill-rule:nonzero;stroke:none"
           d="m 16273.8,5453.84 h -423.4 v 0.23 c 0,109.09 88.8,197.92 197.9,197.92 h 34.3 c 105.4,0 191.2,-85.75 191.2,-191.13 z m -423.4,-32.95 h 190.2 v -490.03 h -190.2 z m 423.4,-490.03 h -199.5 v 490.03 h 199.5 z m -191.2,747.28 h -34.3 c -123.6,0 -224.1,-100.55 -224.1,-224.07 v -549.43 h 475.8 v 556.22 c 0,119.82 -97.5,217.28 -217.4,217.28" /></g><g
         transform="scale(1.69962)"
         id="g76"><path
           id="path78"
           style="fill:#ed9f4a;fill-opacity:1;fill-rule:nonzero;stroke:none"
           d="m 16300,4842.44 -584.4,-1203.33 h -1775.7 l 925.7,1198.97 1434.4,4.36" /></g><g
         transform="scale(1.70517)"
         id="g80"><path
           id="path82"
           style="fill:#f9ddbf;fill-opacity:1;fill-rule:nonzero;stroke:none"
           d="m 16300,4826.67 -582.6,-1199.41 h -1769.9 l 922.7,1195.07 1429.8,4.34" /></g><g
         transform="scale(1.64382)"
         id="g84"><path
           id="path86"
           style="fill:#f9ddbf;fill-opacity:1;fill-rule:nonzero;stroke:none"
           d="m 16300,3762.63 v -1658.2 l -1831.9,-3.59 V 3762.63 H 16300" /></g><g
         transform="scale(1.80026)"
         id="g88"><path
           id="path90"
           style="fill:#fff3e9;fill-opacity:1;fill-rule:nonzero;stroke:none"
           d="M 16300,3435.66 V 1987.71 c -36.1,-25.39 -73.3,-47.33 -111.7,-65.55 h 111.7 v -0.55 H 14883.5 V 3435.66 H 16300" /></g><g
         transform="scale(1.81745)"
         id="g92"><path
           id="path94"
           style="fill:#ed9f4a;fill-opacity:1;fill-rule:nonzero;stroke:none"
           d="m 16300,3336.65 h -1507.3 l -890.9,1187.76 449,-0.06 1032.4,-0.22 916.8,-1187.48" /></g><g
         transform="scale(1.58898)"
         id="g96"><path
           id="path98"
           style="fill:#efcdaf;fill-opacity:1;fill-rule:nonzero;stroke:none"
           d="M 16300,3606.79 V 2173.35 h -798.4 v 1420.22 c 0,118.32 50.6,224.87 131.4,298.94 72.2,66.46 168.5,106.92 274.4,106.92 104.2,0 199,-40.65 269.2,-106.92 76,-71.56 123.4,-173.07 123.4,-285.72" /></g><g
         transform="scale(1.81745)"
         id="g100"><path
           id="path102"
           style="fill:#e58638;fill-opacity:1;fill-rule:nonzero;stroke:none"
           d="m 16300,3336.65 h -98.3 l -1364.7,1187.7 546.2,-0.22 916.8,-1187.48" /></g><g
         transform="scale(1.58302)"
         id="g104"><path
           id="path106"
           style="fill:#fff3e9;fill-opacity:1;fill-rule:nonzero;stroke:none"
           d="m 15965.1,3963.99 h -0.2 c -191.2,0 -346.2,-154.95 -346.2,-346.17 V 2238.37 h 681.3 v 1390.7 c 0,185.02 -150,334.92 -334.9,334.92" /></g><g
         transform="scale(1.57866)"
         id="g108"><path
           id="path110"
           style="fill:#f9ddbf;fill-opacity:1;fill-rule:nonzero;stroke:none"
           d="m 16300,3634.47 v -12.04 h -590.7 v 2.28 c 0,165.71 134.4,300.13 300.2,300.13 h 0.1 c 160.4,0 290.4,-130.05 290.4,-290.37" /></g><g
         transform="scale(1.57986)"
         id="g112"><path
           id="path114"
           style="fill:#efcdaf;fill-opacity:1;fill-rule:nonzero;stroke:none"
           d="m 16262.5,3750.27 c -0.2,0.32 -0.4,0.57 -0.4,0.89 -2,4.24 -4.1,8.42 -6.2,12.59 -1.7,3.42 -3.5,6.78 -5.4,10.07 -0.6,1.14 -1.3,2.34 -2,3.54 -0.7,1.21 -1.4,2.35 -2,3.48 -0.3,0.38 -0.5,0.7 -0.7,1.08 0,0.06 0,0.19 -0.2,0.25 -0.9,1.65 -2,3.36 -3.1,5 -1.6,2.6 -3.3,5.2 -5,7.66 -1.7,2.6 -3.5,5.07 -5.4,7.53 -1.1,1.59 -2.3,3.23 -3.6,4.82 -1.6,2.27 -3.4,4.49 -5.2,6.64 -1.6,2.09 -3.3,4.12 -5.1,6.21 -1.7,2.08 -3.5,4.17 -5.4,6.13 -1.7,1.9 -3.4,3.8 -5.3,5.7 -1.2,1.33 -2.5,2.66 -3.8,3.93 -1.9,2.02 -4,4.05 -6.1,5.94 -1.7,1.59 -3.3,3.17 -5,4.69 -1.1,1.01 -2.2,2.02 -3.2,2.91 l -7.4,-9.94 v -0.12 c 32.2,-28.61 57.7,-64.63 73.8,-105.27 3.4,2.79 6.7,5.7 9.9,8.55 -1,2.6 -2.1,5.19 -3.2,7.72 z m -552.6,-118.3 c 2.7,79.25 37.6,150.39 92.1,200.91 5.9,5.5 12.2,10.82 18.7,15.82 48.7,38.17 110.2,60.89 176.8,60.89 62,0 119.1,-20.38 165.3,-54.62 6.7,-4.94 13,-10.2 19.1,-15.58 h 0.1 v -0.12 c 32.2,-28.61 57.7,-64.63 73.8,-105.27 12.7,-31.64 19.5,-66.01 19.6,-102.03 z m 565.5,119.06 c -32.5,75.33 -94.8,135.01 -172.1,163.94 -32.9,12.47 -68.6,19.24 -105.9,19.24 -37.9,0 -74.2,-6.77 -107.8,-19.24 -119.3,-43.99 -204.4,-158.69 -204.4,-293.06 v -14.56 h 614.8 v 24.37 c 0,42.34 -8.7,82.66 -24.6,119.31" /></g><g
         transform="scale(1.57361)"
         id="g116"><path
           id="path118"
           style="fill:#efcdaf;fill-opacity:1;fill-rule:nonzero;stroke:none"
           d="m 16257.7,2914.18 c 0,11.7 9.5,21.17 21.1,21.17 11.7,0 21.2,-9.47 21.2,-21.17 0,-11.63 -9.5,-21.09 -21.2,-21.09 -11.6,0 -21.1,9.46 -21.1,21.09" /></g><g
         transform="scale(1.56918)"
         id="g120"><path
           id="path122"
           style="fill:#efcdaf;fill-opacity:1;fill-rule:nonzero;stroke:none"
           d="m 16300,3876.11 -7.9,-10.65 -156.1,-208.77 -18.5,-24.73 h -11.9 l -21.4,24.73 -174.7,202.21 -8.3,9.62 18.7,16.12 8.4,-9.68 182.2,-210.87 162.4,217.05 7.3,9.82 19.8,-14.85" /></g><g
         transform="scale(1.58826)"
         id="g124"><path
           id="path126"
           style="fill:#efcdaf;fill-opacity:1;fill-rule:nonzero;stroke:none"
           d="m 16300,3501.51 h -752 v 55.85 h 752 v -55.85" /></g><g
         transform="scale(1.57837)"
         id="g128"><path
           id="path130"
           style="fill:#efcdaf;fill-opacity:1;fill-rule:nonzero;stroke:none"
           d="m 16293.8,2304.15 h -572.1 v 1160.38 h 572.1 z m -578.4,1166.59 v -1172.8 h 584.6 v 1172.8 h -584.6" /></g><g
         transform="scale(1.83879)"
         id="g132"><path
           id="path134"
           style="fill:#82b378;fill-opacity:1;fill-rule:nonzero;stroke:none"
           d="m 16300,2326.81 c -17.5,-27.95 -35.4,-55.04 -53.8,-81.14 -86.9,-123.94 -182.8,-226.24 -287.7,-299.6 -35.3,-24.86 -71.8,-46.34 -109.3,-64.17 -0.4,-0.22 -0.9,-0.44 -1.2,-0.55 -0.9,-0.49 -1.7,-0.87 -2.6,-1.25 -1.3,-0.65 -2.7,-1.25 -4,-1.85 -18.1,-8.48 -36.5,-16.04 -55,-22.73 l -1014.3,-5.39 c 37.9,174.52 137.2,296.34 276.6,378.57 0,0 0,0.05 0.1,0.05 26,15.34 53.3,29.32 82,41.88 h 0.1 c 8.7,3.92 17.5,7.72 26.6,11.31 15.4,6.26 31,12.13 47.1,17.68 v 0 c 13.5,4.73 27.3,9.13 41.2,13.32 31.1,9.41 63.3,17.67 96.3,24.91 133.1,28.99 280.8,40.84 434.6,40.84 91.3,0 184.7,-4.19 278.5,-11.42 91.7,-7.02 170.4,-22.24 244.8,-40.46" /></g><g
         transform="scale(1.71991)"
         id="g136"><path
           id="path138"
           style="fill:#82b378;fill-opacity:1;fill-rule:nonzero;stroke:none"
           d="m 16300,2311 c 0,0 -184,673.69 -324.6,638.23 C 15834.8,2913.7 16300,2311 16300,2311" /></g><g
         transform="scale(1.72607)"
         id="g140"><path
           id="path142"
           style="fill:#82b378;fill-opacity:1;fill-rule:nonzero;stroke:none"
           d="m 16300,2238.55 c 0,0 -473.6,509.88 -581.3,413.6 -107.7,-96.23 581.3,-413.6 581.3,-413.6" /></g><g
         transform="scale(1.73434)"
         id="g144"><path
           id="path146"
           style="fill:#82b378;fill-opacity:1;fill-rule:nonzero;stroke:none"
           d="m 16269.8,2115.38 c 0,0 30.2,691.91 -113.3,700.96 -143.5,8.99 113.3,-700.96 113.3,-700.96" /></g><path
         id="path148"
         style="fill:#f9ddbf;fill-opacity:1;fill-rule:nonzero;stroke:none"
         d="m 10622.2,11490.5 c 0,0 754.1,-1317.8 602.8,-1772.3 -151.2,-454.5 -657.3,-483.6 -657.3,-483.6 l 54.5,2255.9" /><path
         id="path150"
         style="fill:#233862;fill-opacity:1;fill-rule:nonzero;stroke:none"
         d="M 11013.2,3380.4 H 9960.39 c -75.44,51.2 20.34,551.3 20.34,551.3 0,0 287.37,109 336.97,-112.7 49.8,-221.5 366,-292 533.3,-319 114.6,-18.6 150.8,-81.6 162.2,-119.6" /><path
         id="path152"
         style="fill:#233862;fill-opacity:1;fill-rule:nonzero;stroke:none"
         d="M 9451.77,3380.4 H 8398.95 c -75.43,51.2 20.35,551.3 20.35,551.3 0,0 287.34,109 336.96,-112.7 49.78,-221.5 366,-292 533.35,-319 114.52,-18.6 150.71,-81.6 162.16,-119.6" /><path
         id="path154"
         style="fill:#2b478b;fill-opacity:1;fill-rule:nonzero;stroke:none"
         d="m 10729.9,8482.6 c 0,0 -47.3,-590.4 -102.9,-1300.1 -75.6,-964.1 -279.5,-3354.4 -279.5,-3354.4 0,0 -133.7,-114 -429.74,-51.6 0,0 -252.02,824.6 -327.38,1765.7 -1.17,15.5 -2.34,31 -3.51,46.5 -70.1,958.2 -179.12,2975.7 -179.12,2975.7 l 1322.15,-81.8" /><path
         id="path156"
         style="fill:#233862;fill-opacity:1;fill-rule:nonzero;stroke:none"
         d="m 10746.1,8686.6 c 0,0 -63.5,-794.4 -119.1,-1504.1 L 9590.38,5542.2 c -1.17,15.5 -2.34,31 -3.51,46.5 -70.1,958.2 -179.12,2975.7 -179.12,2975.7 l 1338.35,122.2" /><path
         id="path158"
         style="fill:#2b478b;fill-opacity:1;fill-rule:nonzero;stroke:none"
         d="m 10444,8686.6 c 0,0 -751.88,-1871.5 -992.23,-2580.8 -171.2,-505.4 -654.03,-2278 -654.03,-2278 0,0 -209.96,-63.9 -386.42,59.6 0,0 -179.63,1811.1 183.22,2321.7 192.51,271 47.83,2816.4 828.37,2838.2 780.49,21.8 1021.09,-360.7 1021.09,-360.7" /><path
         id="path160"
         style="fill:#ffb27d;fill-opacity:1;fill-rule:nonzero;stroke:none"
         d="m 10108.1,11445.5 c -114.75,-60.5 -226.76,-64.2 -323.87,-43.6 -88.84,18.7 -165.11,57.9 -219.44,92.6 -55.75,35.6 -88.53,66.7 -88.53,66.7 0,0 3.88,5.6 10.41,16.6 33.91,58 136.73,266.5 90.99,601.6 -0.61,4.4 32.57,-1.9 82.71,-13.7 149.19,-35.4 449.13,-120.4 462.33,-124.2 0.3,0 0.5,0 0.5,0 0,0 3.7,-70.5 16.1,-196.8 1,-11.1 2.1,-22.7 3.3,-34.8 1.6,-14.8 3.1,-30.5 4.9,-46.6 13.9,-131.4 -39.4,-317.8 -39.4,-317.8" /><path
         id="path162"
         style="fill:#ed975d;fill-opacity:1;fill-rule:nonzero;stroke:none"
         d="m 10139.3,11844.7 c -222.73,-51 -555.11,277.8 -555.11,277.8 24.31,18.1 49.83,32.4 76.18,43.2 149.19,-35.4 449.13,-120.4 462.33,-124.2 0.3,0 0.5,0 0.5,0 0,0 3.7,-70.5 16.1,-196.8" /><path
         id="path164"
         style="fill:#f9ddbf;fill-opacity:1;fill-rule:nonzero;stroke:none"
         d="m 10847.5,9001.8 c -16.2,-214.5 -61.5,-368.1 -160.9,-368.1 0,0 -441.7,-155.5 -969.58,-159.7 -103.18,-0.7 -249.38,19.4 -370.53,39.7 -123.76,20.9 -221.82,42.1 -221.82,42.1 -106.15,24.5 -223.3,90 -207.56,211.1 8.29,64.4 14.34,147.1 18.44,242.9 0.28,6.2 0.55,12.3 0.83,18.6 11.64,280.3 9.78,666.6 11.18,1036.4 1.02,227.1 3.26,447.9 10.89,634.2 0,0 -104.2,731.5 11.46,851.6 135.58,140.4 533.58,183.5 558.54,178.1 7.45,1.6 14.99,3.4 22.63,4.7 0,0 346.13,-188.9 598.02,-47.5 0,0 367.4,-83.7 473.1,-195.4 36.5,-38.5 182,-274.6 186,-534 5.5,-361.6 -8.6,-772.3 -8.6,-772.4 3.8,-58.8 10.1,-134.5 17,-220.9 7.4,-92.1 15.5,-196.1 22.4,-304.6 3.5,-54.7 6.7,-110.4 9.3,-166.2 7.8,-172.2 10.2,-345.4 -0.8,-490.6" /><path
         id="path166"
         style="fill:#f2ccaa;fill-opacity:1;fill-rule:nonzero;stroke:none"
         d="m 9530.13,11728.3 c 0,0 375.11,-386.9 643.27,-307.6 0,0 35.8,52.2 -85,69 -120.81,16.7 -251.18,9.9 -558.27,238.6" /><path
         id="path168"
         style="fill:#ffb27d;fill-opacity:1;fill-rule:nonzero;stroke:none"
         d="m 10214.9,12059.3 c 0,0 -91.5,-32.9 -208.3,-48.6 -170.73,-23 -395.23,-9.4 -465.76,197.2 -118.8,347.7 -270.54,556.1 79.04,698.1 187.14,76 306.86,80.1 388.22,51.1 70.6,-25.1 112.3,-75.1 143.8,-124.6 67.9,-106.4 204.4,-712.3 63,-773.2" /><path
         id="path170"
         style="fill:#163560;fill-opacity:1;fill-rule:nonzero;stroke:none"
         d="m 10178.4,13042.5 c 78.9,-19.2 114.5,-143.6 39.3,-195.3 -134.8,-92.7 -299.44,-56.3 -360.11,-83.3 -86.94,-38.6 -102.56,-184.5 -104.12,-230.7 -1.57,-46.4 -7.66,-85.5 -125.74,-57.8 -19.34,4.5 -33.29,3.2 -42.87,-2.5 -48.98,-29.1 13.61,-170 32.49,-200.4 0,0 27.17,-100.9 -33.12,-150 -7.3,-5.9 -125.73,-57.7 -411.14,379.1 -44.86,68.6 -87.69,223 -18.41,371.7 69.19,148.7 283.21,332.9 540.04,332.9 203.2,0 316.58,-123.1 483.68,-163.7" /><path
         id="path172"
         style="fill:#ffffff;fill-opacity:1;fill-rule:nonzero;stroke:none"
         d="m 10217.6,12283.8 c 0,0 7.3,-45 -97.3,-80.9 0,0 -87.9,-30.2 -104,15.9 0,0 69.8,66.5 201.3,65" /><path
         id="path174"
         style="fill:#ed975d;fill-opacity:1;fill-rule:nonzero;stroke:none"
         d="m 9838.9,9257.9 c 0,0 282.1,-186.2 391.1,-198.1 74.1,-8.1 366.8,3.9 368.4,40.9 2.3,52.2 -178.8,107.4 -225.7,128.4 -46.9,21 -83.6,45.2 -83.3,65.4 0.4,20.3 181.4,-46.7 161.9,-2.6 -19.5,44.2 -186.8,121.1 -227.3,128.5 -40.4,7.4 -170.7,-36.8 -221.4,-13.4 -50.68,23.4 -163.7,-149.1 -163.7,-149.1" /><path
         id="path176"
         style="fill:#f2ccaa;fill-opacity:1;fill-rule:nonzero;stroke:none"
         d="m 9962.73,9421.2 c 37.57,-70.4 -123.83,-163.3 -123.83,-163.3 0,0 -446.07,-212.1 -903.35,-248.1 0.28,6.2 0.55,12.3 0.83,18.6 11.64,280.3 9.78,666.6 11.18,1036.4 0,0 953.31,-527.5 1015.17,-643.6" /><path
         id="path178"
         style="fill:#f9ddbf;fill-opacity:1;fill-rule:nonzero;stroke:none"
         d="m 9067.68,11618.6 c 0,0 -193.22,-81.7 -422.92,-510.8 -229.7,-429.2 -446.99,-1338.1 -353.86,-1485.8 93.12,-147.8 877.34,-486.1 1560.98,-395.9 0,0 169.62,154.4 135.38,213.9 0,0 -1146.23,467.3 -1146.95,523.2 -0.71,55.9 408.92,537.4 432.2,777.2 23.28,239.7 -204.83,878.2 -204.83,878.2" /><path
         id="path180"
         style="fill:#ffb27d;fill-opacity:1;fill-rule:nonzero;stroke:none"
         d="m 10201.8,10532.9 c 0,0 -13.6,-147 0,-185.1 13.6,-38.1 404,-46.7 413.9,-10.9 9.8,35.8 24.5,144.3 0,163.3 -24.5,19.1 -413.9,32.7 -413.9,32.7" /><path
         id="path182"
         style="fill:#ffb27d;fill-opacity:1;fill-rule:nonzero;stroke:none"
         d="m 10459.4,9167.7 h -87.7 c -217.3,0 -395.08,177.8 -395.08,395.1 v 378.6 c 0,217.3 4.72,410.4 238.38,482.1 l 410.7,-31 c 354.8,-97.9 228.8,-233.8 228.8,-451.1 v -378.6 c 0,-217.3 -177.8,-395.1 -395.1,-395.1" /><path
         id="path184"
         style="fill:#ffb27d;fill-opacity:1;fill-rule:nonzero;stroke:none"
         d="m 10616.1,10397.9 c 0,0 96.8,-24.9 166,13.3 99.8,55.1 219.2,85.9 240,111.1 35.4,42.6 207.6,218.1 207.6,218.1 l 82.8,-55.3 c 0,0 -79.8,-324.1 -144.3,-382 -64.5,-57.8 -180.1,-263.4 -375,-292.5 -101.2,-15.1 -177.1,387.3 -177.1,387.3" /><path
         id="path186"
         style="fill:#ffb27d;fill-opacity:1;fill-rule:nonzero;stroke:none"
         d="m 11229.7,10740.4 c 0,0 -30.2,81.5 -5.3,92.2 25,10.7 39.5,-48.7 39.5,-48.7 0,0 65,134.9 131.1,76.7 66.1,-58.3 -82.5,-175.5 -82.5,-175.5 l -82.8,55.3" /><path
         id="path188"
         style="fill:#ffb27d;fill-opacity:1;fill-rule:nonzero;stroke:none"
         d="m 10200.1,10419.1 c 0,0 -96.8,-24.8 -166,13.4 -99.81,55.1 -219.21,85.9 -240.08,111.1 -35.34,42.6 -207.57,218 -207.57,218 l -82.77,-55.2 c 0,0 79.72,-324.1 144.26,-382 64.55,-57.9 180.15,-263.4 374.96,-292.5 101.2,-15.1 177.2,387.2 177.2,387.2" /><path
         id="path190"
         style="fill:#ffb27d;fill-opacity:1;fill-rule:nonzero;stroke:none"
         d="m 9586.45,10761.6 c 0,0 30.22,81.5 5.27,92.2 -24.96,10.7 -39.52,-48.6 -39.52,-48.6 0,0 -64.98,134.8 -131.05,76.6 -66.06,-58.2 82.53,-175.4 82.53,-175.4 l 82.77,55.2" /><path
         id="path192"
         style="fill:#ffb27d;fill-opacity:1;fill-rule:nonzero;stroke:none"
         d="m 10785.3,9718.2 c 0,0 229.8,-100.8 351,-136.5 113.1,-33.2 252.9,-112.5 255.8,-125.4 2.9,-12.8 4.4,-125 -52.9,-147 -57.3,-22 -679.2,-110.9 -771.5,-74.7 0,0 66.4,445.9 217.6,483.6" /><path
         id="path194"
         style="fill:#ffffff;fill-opacity:1;fill-rule:nonzero;stroke:none"
         d="m 11383.5,9689.9 c 0,0 -109.6,-7.7 -174,-88.2 0,0 -26.3,-35 -73.2,-20 0,0 -172.4,-110.1 -62.5,-318 0,0 232.3,14.5 265.4,45.6 33.1,31.1 44.3,380.6 44.3,380.6" /><path
         id="path196"
         style="fill:#afcdfb;fill-opacity:1;fill-rule:nonzero;stroke:none"
         d="m 11339.2,9309.3 c 0,0 116,27.5 136.9,143.6 21,116.2 -0.6,226 -77.1,235.7 -76.4,9.7 -124.7,-31.7 -145.6,-87.1 -21,-55.3 -82.5,-297.7 85.8,-292.2" /><path
         id="path198"
         style="fill:#ffb27d;fill-opacity:1;fill-rule:nonzero;stroke:none"
         d="m 10446.9,11317 c 0,0 231.7,10.4 320,-209.8 88.4,-220.3 105.7,-599.1 -99.2,-658.9 -139.7,-40.7 -290.2,-12 -425,39.7 -71.3,27.3 -95.5,87.3 -136.2,134.8 -261.35,304.9 -176.95,667 340.4,694.2" /><path
         id="path200"
         style="fill:#ffffff;fill-opacity:1;fill-rule:nonzero;stroke:none"
         d="m 9976.62,9772.9 c 0,0 455.48,-97.6 877.38,0 0,0 48.3,-82.2 54.5,-106.8 13.3,-52.1 -10.6,-137.7 -104.5,-246.7 -138,-160.3 -609.7,-279.9 -775.1,-177.4 -144.96,89.9 -177.63,395.8 -52.28,530.9" /><path
         id="path202"
         style="fill:#ffb27d;fill-opacity:1;fill-rule:nonzero;stroke:none"
         d="m 10486.3,9578.9 c 84.7,-29.4 207.4,-97.9 317.7,-159.5 103,-57.4 221.7,-165.7 221.7,-178.9 0,-13.2 -23.4,-122.9 -84.1,-131.7 -60.7,-8.8 -686.9,42.1 -768.9,97.9 0,0 -94.8,27.1 -107,135.4 -17.8,157.4 59.5,362.6 420.6,236.8" /><path
         id="path204"
         style="fill:#ffffff;fill-opacity:1;fill-rule:nonzero;stroke:none"
         d="m 11069,9470.1 c 0,0 -108.6,16.8 -189.2,-47.4 0,0 -33.4,-28.4 -75.8,-3.3 0,0 -192.5,-69.2 -131.4,-296.4 0,0 229.9,-37.2 269,-14.2 39.1,23.1 127.4,361.3 127.4,361.3" /><path
         id="path206"
         style="fill:#afcdfb;fill-opacity:1;fill-rule:nonzero;stroke:none"
         d="m 10941.6,9108.8 c 0,0 119.2,1.1 165.3,109.8 46.1,108.6 49.4,220.5 -23,246.9 -72.5,26.3 -128.6,-3.3 -161.3,-52.7 -32.7,-49.4 -146.3,-272.1 19,-304" /><path
         id="path208"
         style="fill:#ffffff;fill-opacity:1;fill-rule:nonzero;stroke:none"
         d="m 10539.5,10653.8 c 0,0 46.8,-55.1 108.2,-35.1 61.5,20 70.9,86.8 70.9,86.8 0,0 -89.5,0 -179.1,-51.7" /><path
         id="path210"
         style="fill:#ed975d;fill-opacity:1;fill-rule:nonzero;stroke:none"
         d="m 10245.4,10794.2 c 0,0 -89.9,78.8 -118.5,21.7 -28.6,-57.2 36.8,-140.9 89.9,-141.9 53.1,-1.1 63.9,95.1 28.6,120.2" /><path
         id="path212"
         style="fill:#ffb27d;fill-opacity:1;fill-rule:nonzero;stroke:none"
         d="m 10258.7,10797.3 c 0,0 -68.6,60.2 -90.4,16.5 -21.9,-43.6 28,-107.5 68.6,-108.3 40.5,-0.8 48.8,72.6 21.8,91.8" /><path
         id="path214"
         style="fill:#ff9843;fill-opacity:1;fill-rule:nonzero;stroke:none"
         d="m 10177.9,11201.4 c 0,0 111.2,-151.2 345,-145.6 0,0 91.9,13.3 130.8,72.7 0,0 -73.7,-29.6 -112.7,-17 0,0 220.4,33.6 217.6,92.6 -2.8,58.9 -118.4,124.9 -202.8,135 -67.2,8.1 -270.3,6.7 -331.8,-26.9 -61.5,-33.8 -63.3,-91.1 -46.1,-110.8" /><path
         id="path216"
         style="fill:#ff9843;fill-opacity:1;fill-rule:nonzero;stroke:none"
         d="m 10277.1,11329 c 0,0 -255.1,-41.4 -300.48,-244.7 -18.26,-81.9 20.34,-201.2 20.34,-201.2 0,0 -5.14,242.1 198.84,252.2 148.4,7.4 245.6,22.5 245.6,22.5 l -164.3,171.2" /><path
         id="path218"
         style="fill:#ed975d;fill-opacity:1;fill-rule:nonzero;stroke:none"
         d="m 10313.8,10110.2 c 0,-8.4 -6.9,-15.3 -15.3,-15.3 -8.5,0 -15.3,6.9 -15.3,15.3 0,8.5 6.8,15.3 15.3,15.3 8.4,0 15.3,-6.8 15.3,-15.3" /><path
         id="path220"
         style="fill:#ed975d;fill-opacity:1;fill-rule:nonzero;stroke:none"
         d="m 10697.3,10110.2 c 0,-8.4 -6.8,-15.3 -15.3,-15.3 -8.4,0 -15.3,6.9 -15.3,15.3 0,8.5 6.9,15.3 15.3,15.3 8.5,0 15.3,-6.8 15.3,-15.3" /><path
         id="path222"
         style="fill:#ed975d;fill-opacity:1;fill-rule:nonzero;stroke:none"
         d="m 11019,9820.4 c -12,45.6 -44.2,83.2 -87,103.1 -54.5,25.2 -131.8,59.1 -167.1,65.5 -57.4,10.4 -174.8,79.5 -184.4,43.6 -9.6,-35.9 82.9,-77.4 83.3,-117 0.5,-39.5 -259.6,-136.3 -252.7,-177.3 6.9,-41 81.1,-132.8 181.9,-108.3 100.8,24.5 351.1,83.2 408.9,99.4 30.6,8.6 27.6,51.1 17.1,91" /><path
         id="path224"
         style="fill:#2c3a64;fill-opacity:1;fill-rule:nonzero;stroke:none"
         d="m 13876.7,4061 c 0,0 -41.6,-74.1 -9.7,-156 20.1,-51.5 22.2,-105.7 5.3,-151.5 -14.4,-38.7 -66.5,-45 -89.3,-10.6 l -240.9,363.1 c -20.5,30.9 -9.9,72.7 23,90 28.7,15.2 61.9,33.1 86.7,47.8 54.2,32.1 131.3,7.6 131.3,7.6 l 93.6,-190.4" /><path
         id="path226"
         style="fill:#35488b;fill-opacity:1;fill-rule:nonzero;stroke:none"
         d="m 14547.1,4794.3 c -63.8,-200.4 -647.4,-830.5 -647.4,-830.5 0,0 -249.6,183.3 -243.6,315.9 0,0 307.4,572.4 310.6,642.6 0.7,16.6 -34.2,85.3 -87.5,181.1 -7.2,13 -14.8,26.5 -22.6,40.5 v 0 c -92.2,163.6 -224.7,387.9 -328.6,575 -2.5,4.5 -5,8.9 -7.4,13.4 -93,168.3 -160.8,303.8 -151.5,332.8 27.3,84.7 827.5,198.8 827.5,198.8 0,0 414.3,-1269.3 350.5,-1469.6" /><path
         id="path228"
         style="fill:#2c3a64;fill-opacity:1;fill-rule:nonzero;stroke:none"
         d="m 13856.6,5143.9 c -92.2,163.6 -224.7,387.9 -328.6,575 -2.5,4.5 -5,8.9 -7.4,13.4 l 0.4,199.9 277.3,42.5 58.3,-830.8" /><path
         id="path230"
         style="fill:#2c3a64;fill-opacity:1;fill-rule:nonzero;stroke:none"
         d="m 12847.6,3865 c 0,0 -43.7,-181.5 0.7,-257.4 27.9,-47.7 38.6,-100.9 29,-148.8 -8,-40.5 -58.5,-54.9 -86.5,-24.5 l -295,320.7 c -25.1,27.3 -21.1,70.3 8.6,92.6 25.9,19.4 55.9,42.4 78.1,60.8 48.5,40.2 128.5,28.2 128.5,28.2 l 136.6,-71.6" /><path
         id="path232"
         style="fill:#35488b;fill-opacity:1;fill-rule:nonzero;stroke:none"
         d="m 13806,6145.9 c 0,0 -310.5,-1080.1 -426.1,-1351.7 -80.5,-189.1 -468.9,-1062.9 -468.9,-1062.9 0,0 -387.7,118.2 -361.6,237.8 0,0 247.5,896 291.9,997.3 57.5,131.4 21.4,1026.1 240,1187.3 218.7,161.1 724.7,-7.8 724.7,-7.8" /><path
         id="path234"
         style="fill:#ffb27d;fill-opacity:1;fill-rule:nonzero;stroke:none"
         d="m 13804.2,7636.7 c 0,0 490.6,516.4 517.5,584 27,67.6 129.3,660.5 129.3,660.5 l 127.5,-5 c 0,0 33.5,-698 -8.5,-838 -41.9,-140 -618.2,-768.2 -618.2,-768.2 l -147.6,366.7" /><path
         id="path236"
         style="fill:#ffb27d;fill-opacity:1;fill-rule:nonzero;stroke:none"
         d="m 13712.5,7788.8 c -15.5,23 -26.9,48.6 -35.1,75.2 -18.7,60.1 -21.6,124.8 -20,173 1.5,44.7 6.8,75.3 6.8,75.3 l -337.9,139.2 c 13.1,-84.3 14.7,-161.3 10.5,-227.9 -10,-158.4 -52.7,-258.1 -52.7,-258.1 l 5.8,-15.3 c -37.7,-7.1 -77.7,-15.3 -120.1,-24.8 l 437.1,-230.9 252.7,262.7 c 0,0 -35.6,24.8 -147.1,31.6" /><path
         id="path238"
         style="fill:#ea9c68;fill-opacity:1;fill-rule:nonzero;stroke:none"
         d="m 13677.4,7864 c -184.8,-10.3 -340.6,159.6 -340.6,159.6 l 320.6,13.4 c -1.6,-48.2 1.3,-112.9 20,-173" /><path
         id="path240"
         style="fill:#ffb27d;fill-opacity:1;fill-rule:nonzero;stroke:none"
         d="m 13062.1,7617.4 c 0,0 -406.6,445.1 -597.5,577.9 0,0 -294.3,582.5 -317.4,620.5 -23.2,38.1 -144,-45.2 -144,-45.2 0,0 138.2,-578.5 247.3,-744.3 109,-165.9 450.8,-724.5 659.8,-728.9 209.1,-4.5 151.8,320 151.8,320" /><path
         id="path242"
         style="fill:#ffb27d;fill-opacity:1;fill-rule:nonzero;stroke:none"
         d="m 13758.3,7974.1 c 0,0 -359.7,-127.5 -510.7,154.4 -163,304.3 -31.9,546.6 91.7,572.4 246.5,51.5 399,-31.4 451,-128.2 52.1,-96.7 166.6,-530 -32,-598.6" /><path
         id="path244"
         style="fill:#ffffff;fill-opacity:1;fill-rule:nonzero;stroke:none"
         d="m 13581.2,8127.9 c 0,0 42.1,-52.6 137.4,-23.2 0,0 86.9,23.2 61.2,81.3 0,0 -103.7,12.7 -198.6,-58.1" /><path
         id="path246"
         style="fill:#2c3a64;fill-opacity:1;fill-rule:nonzero;stroke:none"
         d="m 13321.7,8031.7 c 0,0 -53.6,122.9 -54,190.9 0,0 -106.1,114.4 -52.7,149.3 53.4,34.9 89.5,-34.9 101.2,-19.7 11.6,15.3 11.7,257.4 80.3,255.4 68.5,-2 326.1,-59 428.4,45 102.2,104.1 -195.6,453 -636.5,272.3 -440.9,-180.8 -306.8,-676.6 133.3,-893.2" /><path
         id="path248"
         style="fill:#2c3a64;fill-opacity:1;fill-rule:nonzero;stroke:none"
         d="m 12981.4,8709 c 0,0 -25.6,59.4 -7.2,105 0,0 6.1,-60.1 31.9,-85 25.9,-24.8 -24.7,-20 -24.7,-20" /><path
         id="path250"
         style="fill:#2c3a64;fill-opacity:1;fill-rule:nonzero;stroke:none"
         d="m 12987.3,8752.5 c 0,0 -56.6,1.7 -79.4,-43.5 0,0 37.2,29.9 79.4,4.9 v 38.6" /><path
         id="path252"
         style="fill:#f99746;fill-opacity:1;fill-rule:nonzero;stroke:none"
         d="m 14169.2,5999.1 c -433.6,-145 -1003.2,-130.9 -1143.7,-124.8 -21,0.9 -32.4,1.6 -32.4,1.6 -49.8,6.6 -86.4,43.4 -90,87.3 -0.5,5.6 -0.3,11.5 0.3,17.3 l 76.8,668.1 -71.3,326.3 -40.6,186.1 -92.8,424.9 c 182.4,102.6 350.9,163.4 507.1,196.9 65.1,-50.9 191.3,-123.3 323.6,-96.5 99.4,20.2 118.3,69.1 112.2,120.6 212.5,-13.8 326.6,-58.5 326.6,-58.5 L 14309.2,6215 c 16,-92.1 -42.5,-183.2 -140,-215.9" /><path
         id="path254"
         style="fill:#f99746;fill-opacity:1;fill-rule:nonzero;stroke:none"
         d="m 12553.6,7508.1 c 0,0 273,-156 303.2,-294.6 0,0 378.3,302.4 425.8,569.3 0,0 -81.4,-0.4 -180.4,-38.6 0,0 -51,18.6 -103.5,15.7 l -209.6,143 c 0,0 -225.1,-79 -235.5,-394.8" /><path
         id="path256"
         style="fill:#f99746;fill-opacity:1;fill-rule:nonzero;stroke:none"
         d="m 13718.4,7806.9 c 0,0 110.1,18.8 150.6,12.4 0,0 18.6,16.9 64.7,23.2 l 227.2,173.9 c 0,0 173.6,-150.2 150.5,-380.6 0,0 -189.2,-137.9 -188.9,-168 0.2,-30 5.4,-200.3 5.4,-200.3 l -409.5,539.4" /><path
         id="path258"
         style="fill:#ffb27d;fill-opacity:1;fill-rule:nonzero;stroke:none"
         d="m 14451,8881.2 c 0,0 -2,54.9 -23.5,99.5 -21.5,44.6 -21,165 2.1,160.1 23.2,-4.8 16.6,-48.6 41.5,-41.5 24.8,7.2 53.7,149.4 87.6,139.5 33.9,-9.9 61.6,-54.6 59.9,-156.5 -1.7,-101.9 -40.1,-206.1 -40.1,-206.1 l -127.5,5" /><path
         id="path260"
         style="fill:#ffb27d;fill-opacity:1;fill-rule:nonzero;stroke:none"
         d="m 12144.3,8816.6 c 0,0 -18.3,59 -12,114.4 6.2,55.3 -39.1,182.9 -61.9,169.1 -22.8,-13.7 0.5,-57.8 -28.5,-59.4 -29.1,-1.7 -112.7,138.6 -145,115.5 -32.3,-23.2 -45.1,-81 -5.3,-188.5 39.7,-107.5 119.2,-203.8 119.2,-203.8 l 133.5,52.7" /><g
         transform="scale(1.0205)"
         id="g262"><path
           id="path264"
           style="fill:#ffb27d;fill-opacity:1;fill-rule:nonzero;stroke:none"
           d="m 16199.9,7987.77 c 0,0 -176.2,-12.05 -248.1,-56.54 -71.8,-44.49 -136.9,-61.54 -124,-82.11 12.8,-20.48 138.6,23.12 141.2,0 2.5,-23.03 -111.1,-92.41 -142.8,-97.51 -31.7,-5.09 -103.7,-15.38 -90.8,-56.44 12.8,-41.06 134.5,-53.89 231.5,-56.44 97,-2.55 333.1,153.95 333.1,153.95 l -100.1,195.09" /></g><g
         transform="scale(1.13087)"
         id="g266"><path
           id="path268"
           style="fill:#f9ddbf;fill-opacity:1;fill-rule:nonzero;stroke:none"
           d="m 14734.7,7008.97 c 161,0.09 692.2,355.04 870.7,498.38 19.4,15.57 34.4,28.65 44.1,38.55 66.6,67.83 296.2,402.44 459.1,700.53 93.8,171.64 165.5,331.07 171.1,420.48 20.3,319 -147.4,765.13 -147.4,765.13 -496.5,-172.77 -548.7,-569.13 -548.7,-569.13 l -254.5,-946.85 c -13.5,-50.31 -42.2,-95.32 -82.4,-128.66 l -672.6,-559.13 c -22.7,-95.77 106.9,-219.3 160.6,-219.3" /></g><g
         transform="scale(1.11904)"
         id="g270"><path
           id="path272"
           style="fill:#f2ccaa;fill-opacity:1;fill-rule:nonzero;stroke:none"
           d="m 15770.3,7586.66 c 19.5,15.73 34.7,28.95 44.6,38.96 67.2,68.54 299.2,406.69 463.8,707.93 21.3,181.94 6.7,352.71 -68.3,472.01 0,0 -426.5,-750.37 -440.1,-1218.9" /></g><g
         transform="scale(1.14926)"
         id="g274"><path
           id="path276"
           style="fill:#ffb27d;fill-opacity:1;fill-rule:nonzero;stroke:none"
           d="m 15637,4483.48 83.1,-346.31 51.3,-214.31 171.1,-713.41 c 0,0 146.4,-45.16 298.6,0 0,0 56.4,236.06 58,530.51 0.9,154.01 -13.3,324.03 -58.3,484.57 -18.2,65.35 -41.6,129.04 -71.2,189.51 -241.4,492.93 -532.6,69.44 -532.6,69.44" /></g><g
         transform="scale(1.1501)"
         id="g278"><path
           id="path280"
           style="fill:#2b478b;fill-opacity:1;fill-rule:nonzero;stroke:none"
           d="m 15483.9,2998.77 h 803.4 c 0,0 12.7,121.55 -22.7,237.89 -5.2,17.22 -11.6,34.35 -19.1,51.04 0,0 -179.4,-40.69 -334,0 0,0 -145.5,-123.9 -233.4,-161.81 -87.8,-37.99 -184.9,-17.39 -194.2,-127.12" /></g><g
         transform="scale(1.14926)"
         id="g282"><path
           id="path284"
           style="fill:#e8945b;fill-opacity:1;fill-rule:nonzero;stroke:none"
           d="m 15720.1,4137.17 51.3,-214.31 c 87.4,-55.78 276,-156.8 527.7,-182.9 0.9,154.01 -13.3,324.03 -58.3,484.57 -73.9,37.5 -149.2,57.17 -213.2,45.94 -159.6,-27.84 -254.5,-86.14 -307.5,-133.3" /></g><g
         transform="scale(1.1501)"
         id="g286"><path
           id="path288"
           style="fill:#1f396d;fill-opacity:1;fill-rule:nonzero;stroke:none"
           d="m 15901.2,2998.77 h 386.1 c 0,0 12.7,121.55 -22.7,237.89 -96.9,-30.26 -294.2,-105.9 -363.4,-237.89" /></g><g
         transform="scale(1.19445)"
         id="g290"><path
           id="path292"
           style="fill:#ffb27d;fill-opacity:1;fill-rule:nonzero;stroke:none"
           d="m 15662.1,4313.85 79.8,-333.2 49.5,-206.21 164.6,-686.42 c 0,0 140.9,-43.45 287.3,0 0,0 54.3,227.14 55.8,510.44 0.9,148.19 -12.7,311.78 -56,466.24 -17.6,62.88 -40.2,124.16 -68.7,182.35 -232.2,474.27 -512.3,66.8 -512.3,66.8" /></g><g
         transform="scale(1.19558)"
         id="g294"><path
           id="path296"
           style="fill:#2b478b;fill-opacity:1;fill-rule:nonzero;stroke:none"
           d="m 16243.7,3162.66 c 0,0 -172.5,-39.15 -321.3,0 0,0 -139.9,-119.19 -224.5,-155.66 -84.5,-36.55 -177.9,-16.73 -186.9,-122.28 h 772.9 c 0,0 16.1,154.23 -40.2,277.94" /></g><g
         transform="scale(1.19445)"
         id="g298"><path
           id="path300"
           style="fill:#e8945b;fill-opacity:1;fill-rule:nonzero;stroke:none"
           d="m 15741.9,3980.65 49.5,-206.21 c 84.1,-53.66 265.5,-150.86 507.7,-175.98 0.9,148.19 -12.7,311.78 -56,466.24 -71.2,36.08 -143.6,55.01 -205.3,44.21 -153.5,-26.8 -244.7,-82.88 -295.9,-128.26" /></g><g
         transform="scale(1.21493)"
         id="g302"><path
           id="path304"
           style="fill:#f99746;fill-opacity:1;fill-rule:nonzero;stroke:none"
           d="m 14682.2,3867.15 c 284.1,-180.34 1467.5,-51.36 1477.1,123.21 0,0 -58.5,437.4 -78.4,620.53 -8.3,76.14 -12.1,137.05 -7.3,168.82 123.1,814.46 226.4,1773.86 213.8,1957.16 -1.7,25.84 -3,39.18 -3,39.18 0,0 -88.8,7.49 -223.9,12.76 -392.7,15.47 -1176.6,12.75 -1306.8,-244.05 -132.7,-261.58 -136,-1781.43 -136,-1781.43 0,-417.96 64.5,-896.18 64.5,-896.18" /></g><g
         transform="scale(1.21493)"
         id="g306"><path
           id="path308"
           style="fill:#ed7d2b;fill-opacity:1;fill-rule:nonzero;stroke:none"
           d="m 16080.9,4610.89 c -8.3,76.14 -12.1,137.05 -7.3,168.82 123.1,814.46 226.4,1773.86 213.8,1957.16 -1.7,25.84 -3,39.18 -3,39.18 0,0 -88.8,7.49 -223.9,12.76 -203.2,-119.68 -335.3,-323.56 -335.3,-323.56 0,0 40.9,-1524.13 355.7,-1854.36" /></g><g
         transform="scale(1.1581)"
         id="g310"><path
           id="path312"
           style="fill:#bbd2ef;fill-opacity:1;fill-rule:nonzero;stroke:none"
           d="m 16300,10448.2 c 0,111.1 -63.9,191.3 -187.1,199 -90.4,5.6 -215.4,-49.2 -215.4,-160.4 0,-111.1 90.1,-239.9 201.2,-239.9 111.2,0 201.3,90.1 201.3,201.3" /></g><g
         transform="scale(1.18027)"
         id="g314"><path
           id="path316"
           style="fill:#d5e5fb;fill-opacity:1;fill-rule:nonzero;stroke:none"
           d="m 15825.4,9463.64 c 0,0 474.6,427.5 109.4,755.96 -35.4,31.8 -78.4,53.9 -124.9,64 -127.8,27.9 -411.7,67 -555.3,-91.6 -154.7,-170.9 -215.8,-300.87 -86.9,-456.66 128.9,-155.79 657.7,-271.7 657.7,-271.7" /></g><g
         transform="scale(1.21013)"
         id="g318"><path
           id="path320"
           style="fill:#ffb27d;fill-opacity:1;fill-rule:nonzero;stroke:none"
           d="m 16039.4,6468.65 c 0,0 -20.7,-80.24 -12.2,-175.6 11.9,-134.12 36.5,-207.75 123.5,-251.38 0,0 100.5,-68.75 115.9,20.66 15.4,89.33 -15.1,92.47 9.1,217.74 24.3,125.37 6,220.64 -66.1,277.08 l -170.2,-88.5" /></g><g
         transform="scale(1.15844)"
         id="g322"><path
           id="path324"
           style="fill:#ffb27d;fill-opacity:1;fill-rule:nonzero;stroke:none"
           d="m 15687.7,9646.47 c 0,0 6.5,-71.78 18.7,-168.76 5.9,-47.4 13.2,-100.86 21.7,-154.86 6.1,-38.78 12.8,-77.91 20.2,-115.31 l 164.8,-556.51 386.9,626.15 c 0,0 -91,75.22 -214.2,482.94 -1.2,4.34 -2,6.69 -2,6.69 l -396.1,-120.34" /></g><g
         transform="scale(1.23659)"
         id="g326"><path
           id="path328"
           style="fill:#f9ddbf;fill-opacity:1;fill-rule:nonzero;stroke:none"
           d="m 14485,6464.8 c -4.7,-58.63 10.1,-69.22 10.1,-69.22 0,0 222.9,-80.79 783.5,-52.89 60.6,3.07 117.7,6.14 171.1,9.3 361.2,21.27 554.4,43.59 554.4,43.59 0,0 295.9,682.92 -260,1524.35 -62.8,95.1 -136.6,192.27 -222.9,290.68 -90,102.67 -109.9,240.05 -143.9,370.61 -9.8,37.42 18.4,45.68 4.4,80.98 0,0 -101.4,28.65 -111.9,28.65 -57.6,-50.72 -133.5,-149.32 -322,-168.81 -127.4,-13.3 -177.3,58.52 -195.4,101.57 -48.6,-17.55 -98.9,-47.88 -140.2,-67.69 -341.6,-163.98 -372.9,-482.02 -372.9,-482.02 0,0 313.8,-1032.03 333.3,-1160.93 8.7,-57.34 -63.3,-146.45 -87.6,-448.17" /></g><g
         transform="scale(1.14783)"
         id="g330"><path
           id="path332"
           style="fill:#e8945b;fill-opacity:1;fill-rule:nonzero;stroke:none"
           d="m 15851.6,9565.29 c 5.9,-47.84 13.2,-101.78 21.9,-156.29 426.5,166.01 372.2,398.43 361,441.31 -1.2,4.39 -2,6.76 -2,6.76 0,0 -218.9,-155.32 -380.9,-291.78" /></g><g
         transform="scale(1.14891)"
         id="g334"><path
           id="path336"
           style="fill:#ffb27d;fill-opacity:1;fill-rule:nonzero;stroke:none"
           d="m 15748,9500.73 c 0,0 477.1,-15.31 482.1,281.98 5,297.29 69.9,495.49 -234.6,517.89 -304.3,22.3 -365.4,-90.1 -391.3,-188.9 -25.8,-98.9 19.9,-599.33 143.8,-610.97" /></g><g
         transform="scale(1.15018)"
         id="g338"><path
           id="path340"
           style="fill:#d5e5fb;fill-opacity:1;fill-rule:nonzero;stroke:none"
           d="m 15689,10333.7 c 0,0 29.9,-565.84 611,-512.65 0,0 -12.4,756.65 -611,512.65" /></g><g
         transform="scale(1.11492)"
         id="g342"><path
           id="path344"
           style="fill:#d5e5fb;fill-opacity:1;fill-rule:nonzero;stroke:none"
           d="m 16300,10609.7 c 0,0 -177.7,-108.4 -232.9,-282.3 0,0 -198.2,276.2 232.9,282.3" /></g><g
         transform="scale(1.23659)"
         id="g346"><path
           id="path348"
           style="fill:#f2ccaa;fill-opacity:1;fill-rule:nonzero;stroke:none"
           d="m 15449.7,6351.99 c 361.2,21.27 554.4,43.59 554.4,43.59 0,0 295.9,682.92 -260,1524.35 -112.6,-262.33 -378,-963.37 -294.4,-1567.94" /></g><g
         transform="scale(1.22872)"
         id="g350"><path
           id="path352"
           style="fill:#f9ddbf;fill-opacity:1;fill-rule:nonzero;stroke:none"
           d="m 15367.6,8746.48 c 0,0 431.6,-88.56 623.9,-311.22 147.3,-170.62 308.5,-1004.79 308.5,-1142.65 0,-131.68 -151.5,-832 -245.9,-966.29 -6.6,-9.28 -17.5,-14.49 -28.9,-13.27 l -243.1,25.8 c -20.2,2.12 -34.6,20.84 -31.5,40.94 l 136.5,885.23 -479.3,850.31 c 0,0 -282.7,335.01 -40.2,631.15" /></g><g
         transform="scale(1.19178)"
         id="g354"><path
           id="path356"
           style="fill:#ffb27d;fill-opacity:1;fill-rule:nonzero;stroke:none"
           d="m 16284.6,6508.59 c 0,0 -65.9,-189.63 -48.4,-207.25 17.7,-17.62 63.8,59.32 63.8,59.32 l -15.4,147.93" /></g><g
         transform="scale(1.11775)"
         id="g358"><path
           id="path360"
           style="fill:#ffffff;fill-opacity:1;fill-rule:nonzero;stroke:none"
           d="m 16126.2,9971.65 c 0,0 14.5,-49.98 37.9,-54.66 23.4,-4.69 60.9,-12.5 93.8,0 32.7,12.49 42.1,39.04 42.1,39.04 0,0 -74.3,28.12 -173.8,15.62" /></g><path
         id="path362"
         style="fill:#f4a671;fill-opacity:1;fill-rule:nonzero;stroke:none"
         d="m 8103.18,7760.2 -144.55,-26.7 c 0,0 -395.56,609.8 -406.92,795.7 -10.95,177.6 -367.42,954.7 49.89,1439.8 18.8,22 39.25,43.4 61.46,64.1 0.72,0.8 1.55,1.5 2.37,2.3 0,0 0.73,-1.2 2.07,-3.5 8.47,-14.1 41.63,-74 80.47,-206.4 60.84,-207 136.04,-591.3 153.81,-1255 0,0 97.08,-568.2 201.4,-810.3" /><path
         id="path364"
         style="fill:#f4a671;fill-opacity:1;fill-rule:nonzero;stroke:none"
         d="m 8103.18,7760.2 c 0,0 131.66,-146.5 135.69,-200 5.33,-70.8 -49.48,-187.4 -85.22,-176.1 -35.79,11.3 -40.14,68.7 -50.47,112.6 -10.33,43.9 -57.25,91 -54.53,71.2 2.73,-19.9 30.24,-97.9 21.73,-110.4 -8.5,-12.5 -18.83,-10.2 -39.12,27.2 -24.36,44.9 -76.97,107.5 -70.11,153.8 7.39,49.8 8.39,60.5 -10.39,120.5 -18.78,60 -50.24,132 -50.24,132 l 111.65,23.8 91.01,-154.6" /><path
         id="path366"
         style="fill:#ffb27d;fill-opacity:1;fill-rule:nonzero;stroke:none"
         d="m 5004.04,3664.2 -172.61,-89.4 c 0,0 -103.28,134.5 -195.5,297 -64.54,113.7 -123.84,241.3 -138.35,345.8 -35.25,253.8 -303.92,670.9 -275.97,742 27.95,71 560.76,193.8 560.76,193.8 0,0 104.16,-713 173.42,-1174 20.21,-134.5 37.39,-247.6 48.25,-315.2" /><path
         id="path368"
         style="fill:#ffffff;fill-opacity:1;fill-rule:nonzero;stroke:none"
         d="m 5004.04,3664.2 -172.61,-89.4 c 0,0 -103.28,134.5 -195.5,297 71.84,5.4 196.65,26.9 319.86,107.6 20.21,-134.5 37.39,-247.6 48.25,-315.2" /><path
         id="path370"
         style="fill:#ffb27d;fill-opacity:1;fill-rule:nonzero;stroke:none"
         d="m 4611.8,4990.5 c 0,0 -218.11,-307.7 -350.22,-740.2 -31.07,-101.9 -137.01,-228.8 -244.1,-341.5 -103.9,-109.4 -208.86,-205.5 -247.67,-252.7 l -175.82,84.5 c 0,0 61.78,177.3 153.21,338.1 33.92,59.9 71.84,117.4 112.35,162.7 55.99,62.7 37.56,854.2 93.3,906.3 55.81,52.2 658.95,-157.2 658.95,-157.2" /><path
         id="path372"
         style="fill:#ffb27d;fill-opacity:1;fill-rule:nonzero;stroke:none"
         d="m 4116.94,6402.1 0.87,-0.5 c -0.75,-0.3 -0.87,0.5 -0.87,0.5" /><path
         id="path374"
         style="fill:#ffb27d;fill-opacity:1;fill-rule:nonzero;stroke:none"
         d="m 4567.72,6130.1 -449.91,271.5 c 2.49,1 11.59,14.6 45.23,111.9 14.33,41.5 21.93,77.5 25.67,106.1 0.37,2.8 0.74,5.6 0.99,8.3 4.61,41.5 1.25,65.4 1.25,65.4 l 98.55,-35.6 182.29,-66.1 c -2.12,-46.2 4.36,-78.7 14.2,-101 23.8,-54.2 68.15,-54.6 69.4,-54.6 l 12.33,-305.9" /><path
         id="path376"
         style="fill:#ed985f;fill-opacity:1;fill-rule:nonzero;stroke:none"
         d="m 4485.99,6490.6 c -176.18,-15 -275.36,99.9 -297.28,129 -3.25,4.2 -4.86,6.6 -4.86,6.6 0,0 2.12,0.6 5.85,1.7 14.33,4.2 53.21,15.9 99.8,29.8 l 182.29,-66.1 c -2.12,-46.2 4.36,-78.7 14.2,-101" /><path
         id="path378"
         style="fill:#ffb27d;fill-opacity:1;fill-rule:nonzero;stroke:none"
         d="m 4494.81,6553.9 c 0,0 -391.4,-43 -399.41,221.6 -8.01,264.7 -65.88,385.8 204.94,409.4 270.81,23.6 334.77,-74 350.73,-163.5 49.85,-279.7 -45.99,-455.7 -156.26,-467.5" /><path
         id="path380"
         style="fill:#d35c2b;fill-opacity:1;fill-rule:nonzero;stroke:none"
         d="m 3764.81,7452.3 c -5.46,12.3 -9.35,20.2 -9.35,20.2 4.08,-5.6 7.13,-12.5 9.35,-20.2" /><path
         id="path382"
         style="fill:#ffb27d;fill-opacity:1;fill-rule:nonzero;stroke:none"
         d="m 4620.63,6409.5 c 0,0 375.31,288.4 415.37,383.9 40.06,95.4 212.35,444.9 256.87,480.5 0,0 93.3,12 106.65,-52.6 13.35,-64.6 -88.85,-447.9 -160.07,-563.6 -71.22,-115.8 -412.48,-508.1 -524.54,-565.1 l -94.28,316.9" /><path
         id="path384"
         style="fill:#ffb27d;fill-opacity:1;fill-rule:nonzero;stroke:none"
         d="m 5532.71,7450.5 c -6.19,-33.4 -19.8,-69.3 -35.89,-87.8 -21.04,-24.8 -54.45,-74.3 -75.49,-106.5 -13.61,-19.8 -22.28,-34.6 -22.28,-34.6 l -106.43,51.9 c 0,0 -2.47,180.7 68.07,219.1 2.48,1.2 3.71,2.5 6.19,2.5 29.7,16.1 58.16,27.2 82.91,34.6 33.42,8.7 59.41,9.9 74.26,1.3 13.61,-7.5 16.09,-43.4 8.66,-80.5" /><path
         id="path386"
         style="fill:#2b478b;fill-opacity:1;fill-rule:nonzero;stroke:none"
         d="m 4321.37,7055.6 c -138.49,35.1 -85.54,-210.3 -120.53,-193.5 -39.16,18.8 -106.44,18.5 -95.83,-28.8 10.62,-47.3 25.95,-64.2 33.94,-93.7 7.99,-29.5 -0.06,-87.9 -32.26,-76.2 -32.2,11.8 -331.72,353.8 -120.24,620.2 211.48,266.4 842.1,102.3 643.53,-176.3 -34.93,-49 -209.99,-76.7 -308.61,-51.7" /><path
         id="path388"
         style="fill:#f99746;fill-opacity:1;fill-rule:nonzero;stroke:none"
         d="m 4980.43,4478.7 c 0,0 -385.06,-80.7 -568.58,-55.9 -247.15,33.5 -466.24,39.2 -697.56,164 0,0 122.91,610.5 130.48,640.2 10.86,42.7 89.47,370.8 162.11,674.3 66.42,277.6 127.84,534.7 127.84,534.7 0,0 183.3,-130.2 290.13,-84.3 106.83,46 93.12,97.9 93.12,97.9 0,0 69.88,28.3 102.65,17.8 32.75,-10.3 125.79,42.4 125.79,42.4 0,0 102.73,-79.4 106.65,-249.9 0.62,-25.2 -0.89,-52.5 -5.35,-81.8 l -74.15,-85.5 c 0,0 167.43,-1022.3 206.87,-1613.9" /><path
         id="path390"
         style="fill:#aa443e;fill-opacity:1;fill-rule:nonzero;stroke:none"
         d="m 5289.9,3452.3 h -515.41 c 0,0 -9.83,83.8 2.01,155.5 1.42,8.7 5.96,16.6 12.73,23.5 30.17,-10.2 74.51,-17.4 123.83,0.3 40.42,14.5 70.33,36.6 91.16,56.7 5.34,-5.2 111.82,-106.7 161.04,-106.7 50.48,0 127.58,-24.3 124.64,-129.3" /><path
         id="path392"
         style="fill:#ffffff;fill-opacity:1;fill-rule:nonzero;stroke:none"
         d="m 4017.48,3908.8 c -103.9,-109.4 -208.86,-205.5 -247.67,-252.7 l -175.82,84.5 c 0,0 61.78,177.3 153.21,338.1 31.42,-48.9 113.95,-149.6 270.28,-169.9" /><path
         id="path394"
         style="fill:#aa443e;fill-opacity:1;fill-rule:nonzero;stroke:none"
         d="m 3807.9,3701.5 c 0,0 -6.43,-111.9 30.87,-126.7 37.31,-14.9 106.84,-51.5 106.84,-122.5 h -258.17 c 0,0 -178.06,87.5 -201.8,124.7 -23.73,37.2 118.62,196 118.62,196 0,0 87.47,-96.7 203.64,-71.5" /><path
         id="path396"
         style="fill:#ffb27d;fill-opacity:1;fill-rule:nonzero;stroke:none"
         d="m 4235.05,5520 c 0,0 113.04,21.1 157.26,-7.8 44.22,-28.9 57.29,-74.2 25.45,-92.7 -99.77,-58 -200.91,6.1 -200.91,6.1 l 18.2,94.4" /><path
         id="path398"
         style="fill:#ffb27d;fill-opacity:1;fill-rule:nonzero;stroke:none"
         d="m 4139.28,6400.6 c 0,0 -348.18,-73.7 -485.5,-615 -13.44,-52.9 0.45,-109.5 37.06,-150 63.13,-70 202.33,-172.3 526.01,-210 35.34,-4.1 40.09,85.5 40.09,85.5 -3.52,-7.1 -219.88,139.8 -311.97,218.8 -16.65,14.3 -15.95,44.3 -3.93,62.6 31.12,47.5 83.33,129.6 100.87,171.7 25.61,61.5 194.68,408.5 97.37,436.4" /><path
         id="path400"
         style="fill:#f99746;fill-opacity:1;fill-rule:nonzero;stroke:none"
         d="m 4134.76,6436 c 0,0 -204.71,-14.5 -371.63,-237.1 0,0 56.48,-204.7 321.66,-259.4 0,0 163.43,368.6 49.97,496.5" /><path
         id="path402"
         style="fill:#2b478b;fill-opacity:1;fill-rule:nonzero;stroke:none"
         d="m 4084.79,7364.9 c 0,0 -196.93,53.6 -329.33,-90.1 -132.4,-143.8 60.42,-407.3 -124.73,-551.6 -185.14,-144.3 -111.95,-252 -36.74,-287.2 169.14,-79 427.58,19.4 375,152.7 -101.08,256.4 48.49,451.6 48.49,451.6 l 67.31,324.6" /><path
         id="path404"
         style="fill:#f99746;fill-opacity:1;fill-rule:nonzero;stroke:none"
         d="m 6760.29,5112.1 c 0.18,-1.7 0.36,-3.4 0.54,-5 0.36,-2.9 0.72,-5.6 0.81,-8 20.41,-193.3 62.68,-389.1 113.12,-571.1 131.54,-474.8 321,-836.6 321,-836.6 l 157.08,14.6 c 0,0 -85.87,365.3 -93.33,861.5 -5.13,346.9 28.05,757.8 155.73,1152.4 74.73,230.9 133.89,450.8 180.56,656.8 152.22,672.1 171.83,1195.7 168.14,1468.3 -1.8,134.5 -9.26,208 -9.26,208 l -882.98,-124.7 -41.18,-5.8 c 5.94,-406.8 8.63,-959.2 9.8,-1391.2 0.27,-104.1 0.45,-201.3 0.63,-287.7 0.18,-119.9 0.27,-219.1 0.27,-287.8 0,-66.4 0,-104.1 0,-104.1 -50.36,-115.5 -77.78,-245.1 -88.12,-382 -8.63,-115.4 -5.13,-236 7.19,-357.6" /><path
         id="path406"
         style="fill:#ffb27d;fill-opacity:1;fill-rule:nonzero;stroke:none"
         d="m 7099.2,3858.4 c -3.86,20.6 -9.29,46.7 -15.49,75.2 -63.67,149.7 -143.46,358 -208.89,594.4 222.41,-18.6 331.98,11.3 384.73,39.5 2.86,-192.6 17.56,-365.5 34.47,-504.9 23.21,-86.9 65.86,-225.8 114.72,-284 77.75,-92.6 163.42,-172.2 266.79,-224.6 11.57,-5.8 -258.75,-100.9 -396.97,-86.4 -138.22,14.5 -252.37,39.1 -239.74,124.6 4.42,30.1 12.17,61.1 24.14,88.4 22.2,50.3 47.73,116.6 36.24,177.8" /><path
         id="path408"
         style="fill:#e07d32;fill-opacity:1;fill-rule:nonzero;stroke:none"
         d="m 6760.29,5112.1 c -14.03,161.8 262.29,720.7 262.29,720.7 l -181.36,123 c 0,-66.4 0,-104.1 0,-104.1 -50.36,-115.5 -77.78,-245.1 -88.12,-382 -8.63,-115.4 -5.13,-236 7.19,-357.6" /><path
         id="path410"
         style="fill:#1c468a;fill-opacity:1;fill-rule:nonzero;stroke:none"
         d="m 7289.39,3443.4 c 138.79,7.3 99.97,-25.3 292.71,-40.2 192.75,-14.8 263.27,44.7 274.35,71.7 9.87,24 -81.75,50.4 -179.62,80.9 l -1.3,-1.8 c 0,0 -128.43,-58.8 -286.29,-32.8 -128.66,21.1 -257.37,83.5 -346.1,98.9 -7.54,-28.9 -15.13,-58.5 -14.78,-89 0.89,-86.4 122.25,-95 261.03,-87.7" /><path
         id="path412"
         style="fill:#e07d32;fill-opacity:1;fill-rule:nonzero;stroke:none"
         d="m 6830.52,7922.5 c 5.94,-406.8 8.63,-959.2 9.8,-1391.2 0.27,-104.1 182.1,-612 182.28,-698.4 147.01,209.5 274.26,1658 477.82,2024.5 -1.79,134.5 254.26,195.6 254.26,195.6 l -882.98,-124.7 -41.18,-5.8" /><path
         id="path414"
         style="fill:#233862;fill-opacity:1;fill-rule:nonzero;stroke:none"
         d="m 6690.96,11716.6 c -5.23,18.3 -71.71,224.6 -393.58,156.1 0,0 161.17,20.3 205.35,-41.8 0,0 -127.74,58.5 -207.73,9.6 -80,-49 -93.13,-213.7 -81.19,-263.9 11.94,-50.1 100.29,-199.3 158.79,-199.3 22.16,0 45.84,7.3 66.74,16.5 -8.97,-26.5 -17.05,-55.4 -23.76,-87 -62.13,-292.3 132.28,-514.5 232.8,-459.6 64.47,35.2 113.27,-77.6 113.27,-77.6 l 535.01,709.2 c 0,0 -372.83,447.9 -605.7,237.8" /><path
         id="path416"
         style="fill:#ffb27d;fill-opacity:1;fill-rule:nonzero;stroke:none"
         d="m 7531.47,8270 c -242.76,776 23.28,944.7 -2.01,1333 -25.29,388.4 -325.92,805.9 -325.92,805.9 0,0 -15.32,1.5 -41.28,3.9 -20.18,10.6 -25.55,95.1 -25.31,184.1 0.25,106.9 8.45,220.4 8.45,220.4 l -360.57,71.4 -21.44,4.2 c 0.9,-250.9 -65.18,-415.7 -113.05,-454.1 -45.06,-5.1 -237.13,-29.3 -355.49,-78.8 -44.63,-18.6 -78.67,-40.9 -90.57,-66.9 -99.02,-217.7 -197.86,-767.2 -267.35,-1159.2 -38.72,-218.4 -68.25,-388 -83.67,-423.9 -42.99,-100.3 -174.32,-651.9 -286.55,-924 l 101.76,-125.1 c 0,0 514.32,866.5 557.3,1070.6 14.03,66.4 48.4,199.4 88.52,348.4 6.06,22.5 12.26,45.4 18.53,68.5 70.84,-192.1 107.01,-281 105.03,-364 -2.79,-118.1 -82.88,-224.3 -250.28,-599.7 -92.48,-207.4 1591.75,-707.2 1343.9,85.3" /><path
         id="path418"
         style="fill:#e8945b;fill-opacity:1;fill-rule:nonzero;stroke:none"
         d="m 7145.4,10760.1 c 0,0 -8.2,-113.4 -8.45,-220.3 -201.76,5.7 -308.41,189.7 -352.12,291.7 l 360.57,-71.4" /><path
         id="path420"
         style="fill:#233862;fill-opacity:1;fill-rule:nonzero;stroke:none"
         d="m 6747.59,10870.8 c 0,0 -105.73,167.1 -131.11,309.9 -18.12,102 33.83,480.1 413.73,425.6 0,0 110.34,-10.9 214.06,-80.9 82.48,-55.7 201.52,-176 68.42,-505.9 l -34.57,-111.4 -530.53,-37.3" /><path
         id="path422"
         style="fill:#ffb27d;fill-opacity:1;fill-rule:nonzero;stroke:none"
         d="m 7212.78,10658.9 c 0,0 -477.38,-7.9 -477.71,289.5 -0.32,297.4 -62.16,496.6 242.62,514.2 304.78,17.6 364.13,-95.8 388.37,-195 24.26,-99.2 -29.11,-599 -153.28,-608.7" /><path
         id="path424"
         style="fill:#f99746;fill-opacity:1;fill-rule:nonzero;stroke:none"
         d="m 6974,5706.6 c -30.32,-56.8 -330.73,-418 -632.46,-817.9 -25.85,-34.1 -52.66,-71 -80.09,-109.8 -177.81,-250.4 -382.53,-576.9 -504.86,-735.9 -111.21,-144.5 -211.12,36.5 -155.03,165.5 88.51,203.7 163.52,559.8 249.23,821.8 19.72,60.6 40.14,116.2 61.34,163.7 92.28,206.4 247.9,495.2 466.55,719 37.94,38.9 -292.94,902.9 -269.28,1617.6 9.29,283.2 48.73,532.3 138.99,684 l 898.16,-44.5 c 0,0 122.86,-1908.8 -172.55,-2463.5" /><path
         id="path426"
         style="fill:#233862;fill-opacity:1;fill-rule:nonzero;stroke:none"
         d="m 7351.87,11432.9 c -73.67,89.3 -129.37,69.9 -160.64,43.1 -255.97,142 -429.22,-68.8 -429.22,-68.8 -31.93,-213.3 -185.79,-335.6 -185.79,-335.6 0,0 87.01,-53.7 287.6,-2.1 61.21,15.7 115.89,59.1 162.36,111.9 -81.17,-136 -191.55,-233.9 -191.55,-233.9 239.6,110.7 335.81,444 345.4,479.2 29.14,-26.1 86.59,-83 104.1,-138.7 23.79,-75.7 34.5,-231.6 79.93,-226.3 0,0 98.48,237.1 -12.19,371.2" /><path
         id="path428"
         style="fill:#ffb27d;fill-opacity:1;fill-rule:nonzero;stroke:none"
         d="m 5578.5,7811.6 c 0,0 -43.58,-102.7 -88.95,-131.4 -45.37,-28.6 -73.71,-88.4 -61.77,-143.3 11.94,-54.9 -12.25,-150.4 45.06,-150.4 57.3,0 191.02,253.1 207.73,300.9 16.72,47.7 31.04,57.3 31.04,57.3 l -133.11,66.9" /><path
         id="path430"
         style="fill:#ffffff;fill-opacity:1;fill-rule:nonzero;stroke:none"
         d="m 6075,7860.8 c -1.55,-30.9 0.09,-55.6 5.59,-73.3 19.11,-61.4 84.74,-89.4 243.38,-72.6 96.97,10.3 140.2,176.2 159.48,317.8 58.24,-202.6 139.78,-316.2 245.2,-340.1 153.81,-35 984.9,-93.7 1035.69,283 55.86,414.2 -166.63,1110.2 -175.81,1505.7 22.8,140.3 30.59,262 28.13,366.6 -6.48,281.7 -87.45,439.7 -149.71,503.3 -17.63,13.8 -35.28,22.4 -106.07,34.8 -36.18,6.3 -86.3,13.6 -157.34,23.1 0,0 -30.55,4 -29.89,2.9 13.12,-23.9 154.34,-236.3 140.64,-306.1 -14.35,-73.2 -557.31,-62.6 -600.29,-22.4 -42.98,40.2 -155.16,343.6 -155.16,343.6 0,0 -220.67,-24.7 -328.63,-104.8 0,0 0.42,-0.6 1.15,-1.5 -13.04,-9.5 -22.8,-19.7 -28.38,-30.5 -115.18,-223.9 -230.19,-789.1 -311.07,-1192.2 196.06,-110.4 367.34,-77.5 420.5,-63 C 6242.93,8570.8 6085.34,8072.3 6075,7860.8" /><path
         id="path432"
         style="fill:#ffffff;fill-opacity:1;fill-rule:nonzero;stroke:none"
         d="m 7075.62,10834.5 c 0,0 9.08,-36.6 100.33,-29.9 0,0 76.62,5.7 73.8,46 0,0 -74.69,27.8 -174.13,-16.1" /><path
         id="path434"
         style="fill:#ffb27d;fill-opacity:1;fill-rule:nonzero;stroke:none"
         d="M 6261.45,4778.9 C 6083.64,4528.5 5878.92,4202 5756.59,4043 c -111.21,-144.5 -211.12,36.5 -155.03,165.5 88.51,203.7 163.52,559.8 249.23,821.8 57.58,-87.6 175.18,-200.6 410.66,-251.4" /><path
         id="path436"
         style="fill:#ffb27d;fill-opacity:1;fill-rule:nonzero;stroke:none"
         d="m 5659.52,7709.4 c 0,0 26.22,-113.7 7.16,-149.4 -19.06,-35.7 -6.25,-82.1 -44.57,-69 -38.32,13.1 37.41,218.4 37.41,218.4" /><path
         id="path438"
         style="fill:#ffb27d;fill-opacity:1;fill-rule:nonzero;stroke:none"
         d="m 5382.26,4148.3 c -72.43,-47.2 -14.47,-154.2 66.26,-267.3 80.73,-113.1 32.4,-97.9 123.45,-268.4 91.04,-170.6 179.17,-198 207.87,-192.9 25.49,4.6 -1.44,96 -28.33,195 -3.41,12.4 -6.72,24.9 -10.02,37.5 -29.26,112.1 8.4,217.8 26.23,337.4 16.89,113.3 180.47,337.6 180.47,337.6 l -117.15,236.9 c 0,0 -143.73,-206.3 -208.68,-289.8 -38.2,-49.2 -104.77,-74 -157.15,-90.7 -28.44,-9.1 -57.46,-18.6 -82.95,-35.3" /><path
         id="path440"
         style="fill:#1c468a;fill-opacity:1;fill-rule:nonzero;stroke:none"
         d="m 5448.52,3881 c 80.73,-113.1 32.4,-97.9 123.45,-268.4 91.04,-170.6 179.17,-198 207.87,-192.9 25.49,4.6 -1.44,96 -28.33,195 l -2.17,0.1 c 0,0 -118.62,76.7 -181.52,223.8 -51.31,119.9 -67.86,262 -102.61,345 -28.44,-9.1 -57.46,-18.6 -82.95,-35.3 -72.43,-47.2 -14.47,-154.2 66.26,-267.3" /><path
         id="path442"
         style="fill:#ffffff;fill-opacity:1;fill-rule:nonzero;stroke:none"
         d="m 7404.43,10377.4 c 0,0 143.82,0.6 244.29,-192.7 100.47,-193.3 251.8,-821.8 251.8,-821.8 0,0 -176.48,-196.8 -383.29,-151.9 -206.81,45 -112.8,1166.4 -112.8,1166.4" /><g
         transform="scale(1.26894)"
         id="g444"><path
           id="path446"
           style="fill:#233862;fill-opacity:1;fill-rule:nonzero;stroke:none"
           d="m 16300,2727.56 -11.8,3489.53 c 0,0 -26.7,251.46 -245.9,252.73 -234,1.41 -248.9,-249.82 -248.9,-249.82 0,0 3.3,-21.75 27.3,-21.91 25.1,-0.16 29.4,21.6 29.4,21.6 0,0 11.5,193.7 191.9,192.6 168.9,-1.03 189.5,-194.89 189.5,-194.89 l -20.7,-3489.37 89.2,-0.47" /></g><g
         transform="scale(1.27098)"
         id="g448"><path
           id="path450"
           style="fill:#233862;fill-opacity:1;fill-rule:nonzero;stroke:none"
           d="m 16154.7,2723.88 145.3,-0.86 -12,151.92 c 0,0 1.3,21.09 -28,22.51 -27.4,1.25 -81.2,5.42 -86.4,-11.02 -4.5,-14.48 -18.9,-162.55 -18.9,-162.55" /></g><g
         transform="scale(1.26043)"
         id="g452"><path
           id="path454"
           style="fill:#ffb27d;fill-opacity:1;fill-rule:nonzero;stroke:none"
           d="m 16149.9,6699.7 -10.3,-50.22 c 0,0 -248.3,2.46 -308,-263.32 0,0 -16.4,-110.68 63.5,-87.51 80.1,23.16 68,79.73 181.2,110.04 113.3,30.3 187,53.55 204.7,135.75 l 19,91.47 -150.1,63.79" /></g><g
         transform="scale(1.31774)"
         id="g456"><path
           id="path458"
           style="fill:#f99746;fill-opacity:1;fill-rule:nonzero;stroke:none"
           d="m 16300,8486.71 c 0,0 -64.4,-246.87 -119.9,-472.59 -22.3,-90.93 -43.3,-178.39 -58.1,-244.92 -15.1,-68.34 -23.6,-114.63 -20.5,-119.79 46.7,-76.8 -42.1,-542.68 -111.3,-711.68 -6,-14.95 -14.5,-32.56 -24.5,-51.98 -96.4,-186.15 -352,-551.02 -352,-551.02 0,0 -71.6,-7.06 -118.3,10.85 -39,15.03 -65.3,62.91 -65.3,62.91 22.8,36.35 117.2,466.86 236.6,707.88 51.2,103.06 131.2,1061.98 229.8,1190.56 82.2,107.26 403.5,179.78 403.5,179.78" /></g><g
         transform="scale(1.30547)"
         id="g460"><path
           id="path462"
           style="fill:#ed7d2b;fill-opacity:1;fill-rule:nonzero;stroke:none"
           d="m 16252.8,7721.31 c 47.2,-77.53 -42.5,-547.78 -112.3,-718.37 -6.1,-15.09 -14.6,-32.86 -24.7,-52.47 -89.5,406.9 66.2,981.63 66.2,981.63 37.9,-15.28 68,-46.77 91.6,-89.87 -15.3,-68.99 -23.9,-115.71 -20.8,-120.92" /></g><g
         transform="scale(1.35454)"
         id="g464"><path
           id="path466"
           style="fill:#0f2949;fill-opacity:1;fill-rule:nonzero;stroke:none"
           d="m 16278.6,2909.25 c 0,0 21.4,-354.58 -45.6,-359.16 -8.8,-0.59 -339.4,1.33 -339.4,1.33 l -426.4,2.58 c 0,0 7.7,104.1 131.2,124.84 123.5,20.75 330.5,106.24 406.2,268.8 79.6,171.06 274,-38.39 274,-38.39" /></g><g
         transform="scale(1.40784)"
         id="g468"><path
           id="path470"
           style="fill:#163560;fill-opacity:1;fill-rule:nonzero;stroke:none"
           d="m 16279.4,2795.42 c 0,0 20.6,-341.17 -43.8,-345.57 -8.6,-0.57 -326.7,1.35 -326.7,1.35 l -410.3,2.42 c 0,0 7.6,100.15 126.4,120.11 118.8,20.03 317.9,102.21 390.7,258.69 76.7,164.58 263.7,-37 263.7,-37" /></g><g
         transform="scale(1.37447)"
         id="g472"><path
           id="path474"
           style="fill:#2b478b;fill-opacity:1;fill-rule:nonzero;stroke:none"
           d="m 16067.4,3708.84 c 9.5,-147.76 29.4,-337.8 20.9,-508.99 -11.9,-239.3 -20.7,-441.12 -20.7,-441.12 -158.1,-52.75 -447.3,14.04 -447.3,14.04 0,0 -99.2,605.62 -180.9,1089.08 -36.7,216.59 -67.1,404.01 -78.4,492.48 -36.4,285.93 51.3,1804.62 51.3,1804.62 0,0 428.7,271.23 604.3,129.06 175.6,-142.16 283.4,-280.69 -10.1,-1824.84 -22.3,-117.14 39.7,-423.29 60.9,-754.33" /></g><g
         transform="scale(1.37447)"
         id="g476"><path
           id="path478"
           style="fill:#233862;fill-opacity:1;fill-rule:nonzero;stroke:none"
           d="m 16067.4,3708.84 c 9.5,-147.76 27.1,-384.22 18.6,-555.41 -147.5,158.02 -438.2,491.32 -646.6,708.42 -36.7,216.59 -67.1,404.01 -78.4,492.48 -36.4,285.93 51.3,1804.62 51.3,1804.62 0,0 428.7,271.23 604.3,129.06 175.6,-142.16 283.4,-280.69 -10.1,-1824.84 -22.3,-117.14 39.7,-423.29 60.9,-754.33" /></g><g
         transform="scale(1.40784)"
         id="g480"><path
           id="path482"
           style="fill:#2b478b;fill-opacity:1;fill-rule:nonzero;stroke:none"
           d="m 15423.6,5980.58 c 0,0 28.6,-1484.9 85.5,-1760.5 56.9,-275.6 354.8,-1537.6 354.8,-1537.6 0,0 286.1,-27.77 436.1,35.44 0,0 -6.1,583.66 -54.8,926.81 -45.5,320.64 -128.8,613.99 -116,729.7 169.9,1525.1 54.6,1651.89 -127,1777.12 -181.6,125.23 -578.6,-170.97 -578.6,-170.97" /></g><g
         transform="scale(1.40033)"
         id="g484"><path
           id="path486"
           style="fill:#ffb27d;fill-opacity:1;fill-rule:nonzero;stroke:none"
           d="m 16074.6,5878.63 c 0,0 -101,-199.52 89.8,-353.56 0,0 82.8,-57.34 96,16.5 13.1,73.77 -1.7,48.13 19,151.61 20.6,103.47 -4.4,210.74 -63.7,257.72 l -141.1,-72.27" /></g><g
         transform="scale(1.3581)"
         id="g488"><path
           id="path490"
           style="fill:#ffb27d;fill-opacity:1;fill-rule:nonzero;stroke:none"
           d="m 15722.6,8583.76 c 0,0 116.1,-188.42 91.4,-356.61 l 174.6,-416.8 311.4,478.78 c 0,0 -158,186.85 -219,435.57 l -358.4,-140.94" /></g><g
         transform="scale(1.35296)"
         id="g492"><path
           id="path494"
           style="fill:#ffb27d;fill-opacity:1;fill-rule:nonzero;stroke:none"
           d="m 15729.2,8462.23 c 0,0 433.7,-21.35 443.2,239.01 9.3,260.36 127.6,432.9 -196.7,457.71 -266.7,20.41 -356.1,-90.33 -380.3,-176.46 -24.3,-86.14 -26.8,-505.34 133.8,-520.26" /></g><g
         transform="scale(1.42174)"
         id="g496"><path
           id="path498"
           style="fill:#f99746;fill-opacity:1;fill-rule:nonzero;stroke:none"
           d="m 15965.8,5847.19 c -88.8,-7.74 -211,-17.23 -359.2,-25.67 -29.6,-1.69 -60.2,-3.38 -91.8,-4.92 -447.4,-22.37 -624.8,51.06 -624.8,51.06 0,0 -11.8,9.71 -7.8,62.18 21.1,270.37 79,349.99 72.4,401.41 -14.9,115.63 -289.6,1060.13 -289.6,1060.13 0,0 -3.6,297.86 328.4,435.68 34.3,14.25 72,26.73 113.7,37.02 14.3,-38.63 53.7,-103.25 155.4,-91.99 150.5,16.62 258.1,104.62 304.2,149.83 8.4,-0.05 11.7,-0.33 11.7,-0.33 11,-31.73 19.6,-64.82 27.1,-98.44 26.5,-117.22 41.6,-240.47 113,-332.98 70.3,-91.33 130.4,-181.33 181.7,-269.32 42.7,-73.22 79.2,-145.08 110.4,-215.08 289.4,-649.76 59.5,-1149.43 -44.8,-1158.58" /></g><g
         transform="scale(1.40404)"
         id="g500"><path
           id="path502"
           style="fill:#ed7d2b;fill-opacity:1;fill-rule:nonzero;stroke:none"
           d="m 16167.1,5920.93 c -89.9,-7.84 -213.6,-17.45 -363.7,-26 -39.3,737.52 265.3,1443.82 265.3,1443.82 11.3,-8.01 22,-16.98 32,-26.84 52,-51.15 88,-126.8 111.8,-217.8 87.5,-334.81 9.4,-877.47 -45.4,-1173.18" /></g><g
         transform="scale(1.34245)"
         id="g504"><path
           id="path506"
           style="fill:#d5e5fb;fill-opacity:1;fill-rule:nonzero;stroke:none"
           d="m 15712.9,8779.61 c 0,0 -87.2,-337.14 57,-385.55 144.2,-48.41 527.8,-12.59 530.1,401.36 0,0 -201.9,-118.81 -298,-115.2 -96.1,3.61 -157.8,59.43 -246.9,16.64 0,0 -32.5,2.35 -42.2,82.75" /></g><g
         transform="scale(1.41761)"
         id="g508"><path
           id="path510"
           style="fill:#f99746;fill-opacity:1;fill-rule:nonzero;stroke:none"
           d="m 15623.7,7944.7 c 0,0 289.4,-8.24 441,-208.08 116.3,-153.14 235.3,-971.87 234.6,-1095.04 -0.8,-123.16 -136.7,-802.05 -211,-875.48 0,0 -47.8,-11.99 -111.6,0.71 -67.6,13.47 -107.2,52.83 -107.2,52.83 0,0 41.2,756.55 41.6,827.52 0.6,102.78 -316.9,733.73 -316.9,733.73 0,0 -164.8,300.36 29.5,563.81" /></g><g
         transform="scale(1.36136)"
         id="g512"><path
           id="path514"
           style="fill:#d5e5fb;fill-opacity:1;fill-rule:nonzero;stroke:none"
           d="m 16054.5,9020.9 c -7,26.47 -39.5,40.54 -39.5,40.54 -242.2,107.2 -420.3,-7.47 -420.3,-7.47 150,198.89 509,154.82 583.5,-25.82 121.8,-294.93 -104.5,-354.85 -104.5,-354.85 0,0 -225.1,96.15 -93.8,214.22 43.6,39.12 64.8,74.02 71.9,104.43 v 0 0 c 2.3,10.16 3.1,19.81 2.7,28.95" /></g><g
         transform="scale(1.3126)"
         id="g516"><path
           id="path518"
           style="fill:#ffffff;fill-opacity:1;fill-rule:nonzero;stroke:none"
           d="m 16143.3,8839.08 c 0,0 29.5,-46.56 81,-44.9 51.5,1.66 75.7,44.9 75.7,44.9 0,0 -86.9,16.63 -156.7,0" /></g><g
         transform="scale(1.89445)"
         id="g520"><path
           id="path522"
           style="fill:#2e3552;fill-opacity:1;fill-rule:nonzero;stroke:none"
           d="M 16282.8,1783.36 H 661.151 c -9.448,0 -17.176,7.71 -17.176,17.16 v 4.59 c 0,9.45 7.728,17.21 17.176,17.21 H 16282.8 c 9.4,0 17.2,-7.76 17.2,-17.21 v -4.59 c 0,-9.45 -7.8,-17.16 -17.2,-17.16" /></g></g></g></svg>